Ortica Linear.glyphspackage
{
glyphname = exclam;
layers = (
{
layerId = m01;
shapes = (
{
closed = 1;
nodes = (
(101,700,l),
(186,700,l),
(154,164,l),
(132,164,l)
);
},
{
pos = (35,0);
ref = period;
}
);
width = 293;
},
{
associatedMasterId = m01;
layerId = "4EF47A43-EA9F-416F-884D-AC541148DC09";
name = Bold;
shapes = (
{
closed = 1;
nodes = (
(50,700,l),
(211,700,l),
(137,163,l),
(115,163,l)
);
},
{
pos = (26,0);
ref = period;
}
);
width = 261;
},
{
guides = (
{
pos = (144,184);
}
);
layerId = "2CB5E1B6-8A79-4562-81B9-46C99CEA2FC9";
shapes = (
{
closed = 1;
nodes = (
(77,705,l),
(211,705,l),
(164,184,l),
(124,184,l)
);
},
{
pos = (4,0);
ref = period;
}
);
width = 320;
},
{
guides = (
{
pos = (128,175);
}
);
layerId = "1881FB1F-FF0F-4B67-AF41-4B555E01DE13";
shapes = (
{
closed = 1;
nodes = (
(79,702,l),
(182,702,l),
(143,175,l),
(113,175,l)
);
},
{
alignment = -1;
pos = (10,0);
ref = period;
}
);
width = 291;
}
);
metricRight = "=+100";
unicode = 33;
}
{
glyphname = numbersign;
layers = (
{
layerId = m01;
shapes = (
{
closed = 1;
nodes = (
(145,0,l),
(180,0,l),
(370,700,l),
(335,700,l)
);
},
{
closed = 1;
nodes = (
(694,441,l),
(703,474,l),
(81,474,l),
(72,441,l)
);
},
{
closed = 1;
nodes = (
(655,210,l),
(665,243,l),
(49,242,l),
(40,209,l)
);
},
{
closed = 1;
nodes = (
(385,0,l),
(420,0,l),
(603,700,l),
(568,700,l)
);
}
);
width = 743;
},
{
associatedMasterId = m01;
layerId = "4EF47A43-EA9F-416F-884D-AC541148DC09";
name = Bold;
shapes = (
{
closed = 1;
nodes = (
(155,0,l),
(210,0,l),
(400,700,l),
(345,700,l)
);
},
{
closed = 1;
nodes = (
(694,405,l),
(705,460,l),
(83,460,l),
(72,405,l)
);
},
{
closed = 1;
nodes = (
(655,219,l),
(667,274,l),
(51,273,l),
(40,218,l)
);
},
{
closed = 1;
nodes = (
(344,0,l),
(399,0,l),
(589,700,l),
(534,700,l)
);
}
);
width = 745;
},
{
layerId = "2CB5E1B6-8A79-4562-81B9-46C99CEA2FC9";
shapes = (
{
closed = 1;
nodes = (
(140,0,l),
(205,0,l),
(399,705,l),
(334,705,l)
);
},
{
closed = 1;
nodes = (
(724,448,l),
(738,505,l),
(96,505,l),
(82,448,l)
);
},
{
closed = 1;
nodes = (
(684,189,l),
(699,247,l),
(63,246,l),
(49,188,l)
);
},
{
closed = 1;
nodes = (
(406,0,l),
(471,0,l),
(658,705,l),
(593,705,l)
);
}
);
width = 788;
},
{
layerId = "1881FB1F-FF0F-4B67-AF41-4B555E01DE13";
shapes = (
{
closed = 1;
nodes = (
(143,0,l),
(189,0,l),
(381,702,l),
(335,702,l)
);
},
{
closed = 1;
nodes = (
(705,444,l),
(716,486,l),
(87,486,l),
(76,444,l)
);
},
{
closed = 1;
nodes = (
(666,202,l),
(678,245,l),
(54,244,l),
(43,201,l)
);
},
{
closed = 1;
nodes = (
(393,0,l),
(439,0,l),
(624,702,l),
(577,702,l)
);
}
);
width = 759.875;
}
);
unicode = 35;
}
{
glyphname = dollar;
layers = (
{
layerId = m01;
shapes = (
{
closed = 1;
nodes = (
(245,-74,l),
(278,-74,l),
(278,760,l),
(245,760,l)
);
},
{
closed = 1;
nodes = (
(449,644,o),
(351,694,o),
(255,694,cs),
(131,694,o),
(36,636,o),
(36,531,cs),
(36,445,o),
(100,392,o),
(173,359,cs),
(309,298,ls),
(382,265,o),
(408,227,o),
(408,180,cs),
(408,103,o),
(364,35,o),
(266,33,cs),
(142,30,o),
(71,123,o),
(68,257,c),
(52,257,l),
(33,89,l),
(64,66,o),
(147,6,o),
(253,6,cs),
(402,6,o),
(481,102,o),
(481,202,cs),
(481,269,o),
(445,319,o),
(359,358,cs),
(219,422,ls),
(154,452,o),
(110,488,o),
(110,556,cs),
(110,622,o),
(164,668,o),
(239,668,cs),
(362,668,o),
(422,582,o),
(420,470,c),
(435,470,l),
(463,634,l)
);
}
);
width = 524;
},
{
associatedMasterId = m01;
guides = (
{
angle = 180;
pos = (287,-134);
}
);
layerId = "4EF47A43-EA9F-416F-884D-AC541148DC09";
name = Bold;
shapes = (
{
closed = 1;
nodes = (
(259,-84,l),
(314,-84,l),
(314,770,l),
(259,770,l)
);
},
{
closed = 1;
nodes = (
(378,709,l),
(189,688,l),
(39,553,l),
(71,403,l),
(379,230,l),
(377,93,l),
(312,50,l),
(176,120,l),
(86,287,l),
(57,288,l),
(25,95,l),
(265,0,l),
(459,70,l),
(547,205,l),
(456,361,l),
(231,465,l),
(185,567,l),
(246,666,l),
(319,666,l),
(456,476,l),
(485,476,l),
(521,640,l)
);
}
);
width = 567;
},
{
layerId = "2CB5E1B6-8A79-4562-81B9-46C99CEA2FC9";
shapes = (
{
closed = 1;
nodes = (
(259,-74,l),
(319,-74,l),
(319,760,l),
(259,760,l)
);
},
{
closed = 1;
nodes = (
(496,654,o),
(390,705,o),
(290,705,cs),
(167,705,o),
(42,650,o),
(42,518,cs),
(42,442,o),
(78,373,o),
(181,330,cs),
(338,264,ls),
(396,240,o),
(426,204,o),
(426,159,cs),
(426,108,o),
(388,46,o),
(296,44,cs),
(169,41,o),
(98,115,o),
(105,273,c),
(79,273,l),
(50,86,l),
(81,63,o),
(162,0,o),
(274,0,cs),
(452,0,o),
(542,105,o),
(542,217,cs),
(542,294,o),
(505,341,o),
(418,377,cs),
(270,438,ls),
(200,467,o),
(170,501,o),
(170,566,cs),
(170,625,o),
(208,664,o),
(286,664,cs),
(392,664,o),
(458,582,o),
(456,454,c),
(481,454,l),
(509,643,l)
);
}
);
width = 584;
},
{
layerId = "1881FB1F-FF0F-4B67-AF41-4B555E01DE13";
shapes = (
{
closed = 1;
nodes = (
(250,-74,l),
(293,-74,l),
(293,760,l),
(250,760,l)
);
},
{
closed = 1;
nodes = (
(467,648,o),
(366,698,o),
(268,698,cs),
(145,698,o),
(38,641,o),
(38,526,cs),
(38,444,o),
(92,385,o),
(176,348,cs),
(320,285,ls),
(387,256,o),
(415,218,o),
(415,172,cs),
(415,105,o),
(373,39,o),
(277,37,cs),
(152,34,o),
(81,120,o),
(82,263,c),
(62,263,l),
(39,88,l),
(70,65,o),
(153,4,o),
(261,4,cs),
(421,4,o),
(504,103,o),
(504,208,cs),
(504,278,o),
(468,327,o),
(381,365,cs),
(238,428,ls),
(171,458,o),
(133,493,o),
(133,560,cs),
(133,623,o),
(181,667,o),
(257,667,cs),
(373,667,o),
(436,582,o),
(434,464,c),
(452,464,l),
(480,637,l)
);
}
);
width = 546;
}
);
metricLeft = "=S";
metricRight = S;
unicode = 36;
}
{
glyphname = percent;
layers = (
{
layerId = m01;
shapes = (
{
closed = 1;
nodes = (
(128,0,l),
(623,700,l),
(571,700,l),
(76,0,l)
);
},
{
closed = 1;
nodes = (
(293,478,o),
(239,403,o),
(164,403,cs),
(90,403,o),
(35,480,o),
(35,552,cs),
(35,625,o),
(90,702,o),
(164,702,cs),
(239,702,o),
(293,623,o),
(293,552,cs)
);
},
{
closed = 1;
nodes = (
(115,672,o),
(87,617,o),
(87,552,cs),
(87,499,o),
(115,433,o),
(164,433,cs),
(216,433,o),
(241,484,o),
(241,552,cs),
(241,605,o),
(216,672,o),
(164,672,cs)
);
},
{
closed = 1;
nodes = (
(653,75,o),
(599,0,o),
(524,0,cs),
(450,0,o),
(395,77,o),
(395,149,cs),
(395,222,o),
(450,299,o),
(524,299,cs),
(599,299,o),
(653,220,o),
(653,149,cs)
);
},
{
closed = 1;
nodes = (
(475,269,o),
(447,214,o),
(447,149,cs),
(447,96,o),
(475,30,o),
(524,30,cs),
(576,30,o),
(601,81,o),
(601,149,cs),
(601,202,o),
(576,269,o),
(524,269,cs)
);
}
);
width = 688;
},
{
associatedMasterId = m01;
layerId = "4EF47A43-EA9F-416F-884D-AC541148DC09";
name = Bold;
shapes = (
{
closed = 1;
nodes = (
(218,1,l),
(673,700,l),
(620,700,l),
(165,1,l)
);
},
{
closed = 1;
nodes = (
(569,6,l),
(489,88,l),
(469,189,l),
(530,300,l),
(650,314,l),
(730,239,l),
(749,140,l),
(688,21,l)
);
},
{
closed = 1;
nodes = (
(556,263,l),
(539,152,l),
(581,49,l),
(627,38,l),
(661,59,l),
(674,165,l),
(639,270,l),
(597,282,l)
);
},
{
closed = 1;
nodes = (
(180,382,l),
(100,464,l),
(80,565,l),
(141,676,l),
(261,690,l),
(341,615,l),
(360,516,l),
(299,397,l)
);
},
{
closed = 1;
nodes = (
(168,639,l),
(150,528,l),
(192,426,l),
(238,414,l),
(272,435,l),
(285,542,l),
(249,646,l),
(208,658,l)
);
}
);
width = 829;
},
{
layerId = "2CB5E1B6-8A79-4562-81B9-46C99CEA2FC9";
shapes = (
{
closed = 1;
nodes = (
(157,0,l),
(689,705,l),
(619,705,l),
(86,0,l)
);
},
{
closed = 1;
nodes = (
(344,468,o),
(280,382,o),
(193,382,cs),
(106,382,o),
(40,468,o),
(40,548,cs),
(40,624,o),
(106,715,o),
(193,715,cs),
(280,715,o),
(344,624,o),
(344,548,cs)
);
},
{
closed = 1;
nodes = (
(149,674,o),
(118,628,o),
(118,548,cs),
(118,468,o),
(149,422,o),
(193,422,cs),
(237,422,o),
(271,468,o),
(271,548,cs),
(271,628,o),
(237,674,o),
(193,674,cs)
);
},
{
closed = 1;
nodes = (
(726,75,o),
(662,-11,o),
(575,-11,cs),
(488,-11,o),
(422,75,o),
(422,154,cs),
(422,231,o),
(488,322,o),
(575,322,cs),
(662,322,o),
(726,231,o),
(726,154,cs)
);
},
{
closed = 1;
nodes = (
(531,281,o),
(500,235,o),
(500,154,cs),
(500,75,o),
(531,29,o),
(575,29,cs),
(619,29,o),
(653,75,o),
(653,154,cs),
(653,235,o),
(619,281,o),
(575,281,cs)
);
}
);
width = 766;
},
{
layerId = "1881FB1F-FF0F-4B67-AF41-4B555E01DE13";
shapes = (
{
closed = 1;
nodes = (
(137,0,l),
(646,702,l),
(588,702,l),
(78,0,l)
);
},
{
closed = 1;
nodes = (
(311,474,o),
(253,395,o),
(173,395,cs),
(95,395,o),
(35,476,o),
(35,551,cs),
(35,625,o),
(95,707,o),
(173,707,cs),
(253,707,o),
(311,623,o),
(311,551,cs)
);
},
{
closed = 1;
nodes = (
(126,673,o),
(97,621,o),
(97,551,cs),
(97,487,o),
(126,429,o),
(173,429,cs),
(222,429,o),
(251,478,o),
(251,551,cs),
(251,614,o),
(222,673,o),
(173,673,cs)
);
},
{
closed = 1;
nodes = (
(679,75,o),
(621,-4,o),
(542,-4,cs),
(463,-4,o),
(404,76,o),
(404,151,cs),
(404,225,o),
(463,308,o),
(542,308,cs),
(621,308,o),
(679,224,o),
(679,151,cs)
);
},
{
closed = 1;
nodes = (
(495,274,o),
(465,222,o),
(465,151,cs),
(465,88,o),
(495,30,o),
(542,30,cs),
(591,30,o),
(619,79,o),
(619,151,cs),
(619,214,o),
(591,274,o),
(542,274,cs)
);
}
);
width = 714;
}
);
unicode = 37;
}
{
glyphname = ampersand;
layers = (
{
associatedMasterId = m01;
layerId = "4EF47A43-EA9F-416F-884D-AC541148DC09";
name = Bold;
shapes = (
{
closed = 1;
nodes = (
(209,396,l),
(75,296,l),
(40,105,l),
(163,-17,l),
(357,0,l),
(450,102,l),
(568,381,l),
(506,381,l),
(432,132,l),
(280,49,l),
(150,120,l),
(136,251,l),
(225,376,l)
);
},
{
closed = 1;
nodes = (
(203,507,l),
(186,620,l),
(245,671,l),
(350,655,l),
(414,516,l),
(427,516,l),
(486,613,l),
(445,680,l),
(314,716,l),
(124,646,l),
(87,464,l),
(479,38,l),
(543,0,l),
(687,0,l),
(687,22,l),
(643,25,l),
(605,52,l)
);
},
{
closed = 1;
nodes = (
(547,346,l),
(571,386,l),
(633,392,l),
(633,417,l),
(371,416,l),
(371,391,l),
(490,385,l),
(490,320,l)
);
}
);
width = 700;
},
{
associatedMasterId = m01;
layerId = "972DB5D1-8276-4359-BCF2-9C3B4663B4E1";
name = "Sep 13 20, 17:12";
shapes = (
{
closed = 1;
nodes = (
(399,289,ls),
(255,460,o),
(200,512,o),
(200,585,cs),
(200,637,o),
(228,696,o),
(308,696,cs),
(408,696,o),
(462,611,o),
(491,463,c),
(506,463,l),
(560,529,l),
(525,581,o),
(494,716,o),
(336,716,cs),
(258,716,o),
(124,672,o),
(124,541,cs),
(124,472,o),
(160,436,o),
(312,258,cs),
(532,0,l),
(643,0,l)
);
},
{
closed = 1;
nodes = (
(166,320,o),
(80,280,o),
(80,156,cs),
(80,65,o),
(151,-11,o),
(254,-11,cs),
(387,-11,o),
(460,86,o),
(511,146,cs),
(575,221,o),
(618,388,o),
(649,455,c),
(558,455,l),
(550,417,o),
(531,254,o),
(485,173,cs),
(457,124,o),
(380,27,o),
(284,28,cs),
(202,29,o),
(151,96,o),
(151,180,cs),
(151,275,o),
(197,320,o),
(259,368,c),
(243,382,l)
);
}
);
width = 719;
},
{
layerId = m01;
shapes = (
{
closed = 1;
nodes = (
(722,14,l),
(690,15,ls),
(653,16,o),
(636,26,o),
(616,47,cs),
(377,299,ls),
(240,443,o),
(198,493,o),
(198,569,cs),
(198,631,o),
(238,693,o),
(323,693,cs),
(410,693,o),
(464,630,o),
(461,500,c),
(476,500,l),
(520,631,l),
(475,672,o),
(409,713,o),
(326,713,cs),
(238,713,o),
(129,666,o),
(129,545,cs),
(129,469,o),
(168,407,o),
(301,269,cs),
(560,0,l),
(722,0,l)
);
},
{
closed = 1;
nodes = (
(172,350,o),
(72,280,o),
(72,167,cs),
(72,68,o),
(157,-5,o),
(257,-5,cs),
(374,-5,o),
(440,83,o),
(484,148,cs),
(582,291,o),
(602,375,o),
(661,375,cs),
(684,375,l),
(684,393,l),
(451,393,l),
(451,375,l),
(520,375,ls),
(573,375,o),
(585,345,o),
(473,183,cs),
(440,135,o),
(384,47,o),
(289,47,cs),
(215,47,o),
(152,106,o),
(152,196,cs),
(152,283,o),
(206,342,o),
(269,382,c),
(249,396,l)
);
}
);
width = 729;
},
{
associatedMasterId = m01;
layerId = "DE8BF74E-8BCE-45D9-8F29-0DF0C01894C2";
name = "Sep 6 21, 12:15";
shapes = (
{
closed = 1;
nodes = (
(712,14,l),
(671,23,ls),
(600,39,o),
(460,203,o),
(372,299,cs),
(237,445,o),
(189,509,o),
(189,582,cs),
(189,634,o),
(228,693,o),
(316,693,cs),
(408,693,o),
(454,630,o),
(461,500,c),
(476,500,l),
(530,636,l),
(473,673,o),
(419,713,o),
(326,713,cs),
(238,713,o),
(123,669,o),
(123,542,cs),
(123,479,o),
(154,416,o),
(296,268,cs),
(378,183,o),
(518,0,o),
(639,0,cs),
(712,0,l)
);
},
{
closed = 1;
nodes = (
(172,330,o),
(75,270,o),
(75,156,cs),
(75,67,o),
(156,-5,o),
(253,-5,cs),
(372,-5,o),
(441,83,o),
(485,148,cs),
(583,291,o),
(598,377,o),
(672,377,cs),
(694,377,l),
(694,393,l),
(471,393,l),
(471,377,l),
(514,377,ls),
(572,377,o),
(581,347,o),
(476,183,cs),
(446,136,o),
(381,38,o),
(288,39,cs),
(203,40,o),
(156,107,o),
(156,191,cs),
(156,276,o),
(207,330,o),
(269,378,c),
(249,392,l)
);
}
);
width = 729;
},
{
layerId = "2CB5E1B6-8A79-4562-81B9-46C99CEA2FC9";
shapes = (
{
closed = 1;
nodes = (
(722,26,l),
(690,27,ls),
(653,28,o),
(637,38,o),
(616,59,cs),
(381,294,ls),
(248,427,o),
(195,479,o),
(195,561,cs),
(195,615,o),
(228,671,o),
(310,671,cs),
(380,671,o),
(444,627,o),
(448,487,c),
(476,487,l),
(529,633,l),
(484,671,o),
(389,713,o),
(306,713,cs),
(198,713,o),
(78,664,o),
(78,533,cs),
(78,455,o),
(129,395,o),
(258,264,cs),
(516,0,l),
(722,0,l)
);
},
{
closed = 1;
nodes = (
(131,351,o),
(35,290,o),
(35,177,cs),
(35,78,o),
(119,-8,o),
(240,-8,cs),
(366,-8,o),
(440,83,o),
(485,148,cs),
(585,291,o),
(609,370,o),
(678,370,cs),
(708,370,l),
(708,403,l),
(449,403,l),
(449,370,l),
(505,370,ls),
(523,370,o),
(533,361,o),
(533,343,cs),
(533,314,o),
(508,262,o),
(448,185,cs),
(386,105,o),
(347,79,o),
(286,79,cs),
(218,79,o),
(145,125,o),
(145,219,cs),
(145,283,o),
(174,332,o),
(237,372,c),
(208,397,l)
);
}
);
width = 720;
},
{
layerId = "1881FB1F-FF0F-4B67-AF41-4B555E01DE13";
shapes = (
{
closed = 1;
nodes = (
(722,19,l),
(690,20,ls),
(653,21,o),
(636,31,o),
(616,52,cs),
(379,297,ls),
(243,437,o),
(197,488,o),
(197,566,cs),
(197,625,o),
(234,685,o),
(318,685,cs),
(399,685,o),
(457,629,o),
(456,495,c),
(476,495,l),
(523,632,l),
(478,672,o),
(402,713,o),
(319,713,cs),
(223,713,o),
(110,665,o),
(110,541,cs),
(110,464,o),
(153,403,o),
(285,267,cs),
(544,0,l),
(722,0,l)
);
},
{
closed = 1;
nodes = (
(157,350,o),
(58,284,o),
(58,171,cs),
(58,72,o),
(143,-6,o),
(251,-6,cs),
(371,-6,o),
(440,83,o),
(484,148,cs),
(583,291,o),
(605,373,o),
(667,373,cs),
(693,373,l),
(693,397,l),
(450,397,l),
(450,373,l),
(514,373,ls),
(565,373,o),
(570,332,o),
(464,184,cs),
(420,124,o),
(370,59,o),
(288,59,cs),
(216,59,o),
(149,113,o),
(149,205,cs),
(149,283,o),
(194,338,o),
(257,378,c),
(234,396,l)
);
}
);
width = 725.625;
}
);
unicode = 38;
}
{
glyphname = quotesingle;
kernLeft = quotesingle;
kernRight = quotesingle;
layers = (
{
layerId = m01;
shapes = (
{
closed = 1;
nodes = (
(44,731,ls),
(37,785,o),
(116,785,o),
(109,731,cs),
(85,547,l),
(68,547,l)
);
}
);
width = 154;
},
{
associatedMasterId = m01;
layerId = "4EF47A43-EA9F-416F-884D-AC541148DC09";
name = Bold;
shapes = (
{
closed = 1;
nodes = (
(73,559,l),
(40,770,l),
(124,770,l),
(90,559,l)
);
}
);
width = 164;
},
{
layerId = "2CB5E1B6-8A79-4562-81B9-46C99CEA2FC9";
shapes = (
{
closed = 1;
nodes = (
(40,723,ls),
(32,786,o),
(143,786,o),
(135,723,cs),
(107,517,l),
(68,517,l)
);
}
);
width = 175;
},
{
layerId = "1881FB1F-FF0F-4B67-AF41-4B555E01DE13";
shapes = (
{
closed = 1;
nodes = (
(42,728,ls),
(35,785,o),
(126,785,o),
(118,728,cs),
(93,536,l),
(68,536,l)
);
}
);
width = 161.125;
}
);
unicode = 39;
}
{
glyphname = parenleft;
layers = (
{
layerId = m01;
shapes = (
{
closed = 1;
nodes = (
(187,574,o),
(80,436,o),
(80,251,cs),
(80,66,o),
(187,-82,o),
(303,-212,c),
(315,-203,l),
(203,-71,o),
(157,110,o),
(157,251,cs),
(157,392,o),
(203,554,o),
(315,705,c),
(303,714,l)
);
}
);
width = 357;
},
{
associatedMasterId = m01;
layerId = "4EF47A43-EA9F-416F-884D-AC541148DC09";
name = Bold;
shapes = (
{
closed = 1;
nodes = (
(91,579,l),
(10,272,l),
(85,-17,l),
(281,-230,l),
(299,-211,l),
(196,-25,l),
(127,298,l),
(196,590,l),
(295,731,l),
(277,750,l)
);
}
);
width = 314;
},
{
layerId = "2CB5E1B6-8A79-4562-81B9-46C99CEA2FC9";
shapes = (
{
closed = 1;
nodes = (
(216,576,o),
(90,426,o),
(90,251,cs),
(90,76,o),
(216,-84,o),
(339,-214,c),
(364,-199,l),
(262,-48,o),
(227,110,o),
(227,251,cs),
(227,392,o),
(262,550,o),
(364,701,c),
(339,716,l)
);
}
);
width = 394;
},
{
layerId = "1881FB1F-FF0F-4B67-AF41-4B555E01DE13";
shapes = (
{
closed = 1;
nodes = (
(198,575,o),
(84,432,o),
(84,251,cs),
(84,70,o),
(198,-83,o),
(317,-213,c),
(333,-202,l),
(225,-62,o),
(183,110,o),
(183,251,cs),
(183,392,o),
(225,553,o),
(333,704,c),
(317,715,l)
);
}
);
width = 370.875;
}
);
unicode = 40;
}
{
glyphname = parenright;
layers = (
{
layerId = m01;
shapes = (
{
pos = (357,0);
ref = parenleft;
scale = (-1,1);
}
);
width = 357;
},
{
associatedMasterId = m01;
layerId = "4EF47A43-EA9F-416F-884D-AC541148DC09";
name = Bold;
shapes = (
{
closed = 1;
nodes = (
(19,731,l),
(118,590,l),
(187,298,l),
(118,-25,l),
(15,-211,l),
(33,-230,l),
(229,-17,l),
(304,272,l),
(223,579,l),
(37,750,l)
);
}
);
width = 314;
},
{
layerId = "2CB5E1B6-8A79-4562-81B9-46C99CEA2FC9";
shapes = (
{
pos = (394,0);
ref = parenleft;
scale = (-1,1);
}
);
width = 394;
},
{
layerId = "1881FB1F-FF0F-4B67-AF41-4B555E01DE13";
shapes = (
{
alignment = -1;
pos = (371,0);
ref = parenleft;
scale = (-1,1);
}
);
width = 370.875;
}
);
metricLeft = "=|parenleft";
metricRight = "=|parenleft";
unicode = 41;
}
{
glyphname = asterisk;
layers = (
{
layerId = m01;
shapes = (
{
closed = 1;
nodes = (
(299,431,l),
(238,394,l),
(191,531,l),
(185,531,l),
(136,394,l),
(75,430,l),
(168,539,l),
(166,544,l),
(30,520,l),
(30,589,l),
(166,562,l),
(168,567,l),
(75,676,l),
(136,712,l),
(185,575,l),
(191,575,l),
(238,712,l),
(299,675,l),
(209,567,l),
(211,562,l),
(347,589,l),
(347,520,l),
(211,544,l),
(209,539,l)
);
}
);
width = 377;
},
{
associatedMasterId = m01;
layerId = "4EF47A43-EA9F-416F-884D-AC541148DC09";
name = Bold;
shapes = (
{
closed = 1;
nodes = (
(40,661,l),
(83,738,l),
(173,654,l),
(176,656,l),
(148,773,l),
(231,773,l),
(202,655,l),
(205,653,l),
(282,745,l),
(333,671,l),
(215,634,l),
(215,630,l),
(334,598,l),
(290,518,l),
(205,612,l),
(202,608,l),
(231,485,l),
(148,485,l),
(178,604,l),
(173,607,l),
(94,510,l),
(44,586,l),
(162,630,l),
(162,637,l)
);
}
);
width = 372;
},
{
layerId = "2CB5E1B6-8A79-4562-81B9-46C99CEA2FC9";
shapes = (
{
closed = 1;
nodes = (
(365,388,l),
(272,334,l),
(225,488,l),
(219,488,l),
(170,334,l),
(86,388,l),
(190,500,l),
(188,505,l),
(40,480,l),
(40,569,l),
(188,541,l),
(190,546,l),
(86,659,l),
(170,712,l),
(219,558,l),
(225,558,l),
(272,712,l),
(365,659,l),
(255,546,l),
(257,541,l),
(405,569,l),
(405,480,l),
(257,505,l),
(255,500,l)
);
}
);
width = 445;
},
{
layerId = "1881FB1F-FF0F-4B67-AF41-4B555E01DE13";
shapes = (
{
closed = 1;
nodes = (
(324,415,l),
(251,372,l),
(204,515,l),
(198,515,l),
(149,372,l),
(79,414,l),
(176,524,l),
(174,529,l),
(34,505,l),
(34,582,l),
(174,554,l),
(176,559,l),
(79,670,l),
(149,712,l),
(198,569,l),
(204,569,l),
(251,712,l),
(324,669,l),
(226,559,l),
(228,554,l),
(369,582,l),
(369,505,l),
(228,529,l),
(226,524,l)
);
}
);
width = 402.5;
}
);
unicode = 42;
}
{
glyphname = plus;
kernLeft = math;
kernRight = math;
layers = (
{
layerId = m01;
shapes = (
{
closed = 1;
nodes = (
(50,340,l),
(50,300,l),
(523,300,l),
(523,340,l)
);
},
{
closed = 1;
nodes = (
(308,558,l),
(265,558,l),
(265,82,l),
(308,82,l)
);
}
);
width = 573;
},
{
associatedMasterId = m01;
layerId = "4EF47A43-EA9F-416F-884D-AC541148DC09";
name = Bold;
shapes = (
{
closed = 1;
nodes = (
(50,280,l),
(50,216,l),
(535,216,l),
(535,280,l)
);
},
{
closed = 1;
nodes = (
(325,491,l),
(260,491,l),
(260,6,l),
(325,6,l)
);
}
);
width = 585;
},
{
layerId = "2CB5E1B6-8A79-4562-81B9-46C99CEA2FC9";
shapes = (
{
closed = 1;
nodes = (
(60,350,l),
(60,289,l),
(545,289,l),
(545,350,l)
);
},
{
closed = 1;
nodes = (
(336,565,l),
(269,565,l),
(269,74,l),
(336,74,l)
);
}
);
width = 605;
},
{
layerId = "1881FB1F-FF0F-4B67-AF41-4B555E01DE13";
shapes = (
{
closed = 1;
nodes = (
(54,344,l),
(54,296,l),
(531,296,l),
(531,344,l)
);
},
{
closed = 1;
nodes = (
(319,561,l),
(267,561,l),
(267,79,l),
(319,79,l)
);
}
);
width = 585;
}
);
unicode = 43;
}
{
glyphname = comma;
kernLeft = period;
kernRight = period;
layers = (
{
layerId = m01;
shapes = (
{
closed = 1;
nodes = (
(112,-99,o),
(127,-38,o),
(128,-1,c),
(119,-9,o),
(108,-10,o),
(100,-10,cs),
(76,-10,o),
(52,7,o),
(52,40,cs),
(52,65,o),
(71,89,o),
(104,89,cs),
(138,89,o),
(159,60,o),
(159,12,cs),
(159,-43,o),
(125,-113,o),
(59,-157,c),
(50,-147,l)
);
}
);
width = 209;
},
{
associatedMasterId = m01;
layerId = "4EF47A43-EA9F-416F-884D-AC541148DC09";
name = Bold;
shapes = (
{
closed = 1;
nodes = (
(158,39,l),
(142,81,l),
(95,99,l),
(49,82,l),
(29,41,l),
(48,-6,l),
(83.028,-15.775,l),
(100,-39,l),
(31,-148,l),
(50,-160,l),
(143,-14,l)
);
}
);
width = 194;
},
{
layerId = "2CB5E1B6-8A79-4562-81B9-46C99CEA2FC9";
shapes = (
{
closed = 1;
nodes = (
(131,-115,o),
(169,-54,o),
(175,10,c),
(165,-1,o),
(153,-11,o),
(128,-11,cs),
(91,-11,o),
(60,22,o),
(60,63,cs),
(60,103,o),
(91,137,o),
(136,137,cs),
(181,137,o),
(216,102,o),
(216,37,cs),
(216,-45,o),
(167,-125,o),
(91,-169,c),
(77,-151,l)
);
}
);
width = 276;
},
{
layerId = "1881FB1F-FF0F-4B67-AF41-4B555E01DE13";
shapes = (
{
closed = 1;
nodes = (
(119,-105,o),
(142,-44,o),
(145,3,c),
(136,-6,o),
(124,-10,o),
(110,-10,cs),
(81,-10,o),
(55,13,o),
(55,49,cs),
(55,79,o),
(78,107,o),
(116,107,cs),
(154,107,o),
(180,76,o),
(180,21,cs),
(180,-44,o),
(140,-118,o),
(71,-162,c),
(60,-149,l)
);
}
);
width = 235;
}
);
metricRight = "=|";
unicode = 44;
}
{
glyphname = hyphen;
kernLeft = hyphen;
kernRight = hyphen;
layers = (
{
layerId = m01;
shapes = (
{
closed = 1;
nodes = (
(50,227,l),
(369,227,l),
(369,273,l),
(50,273,l)
);
}
);
width = 419;
},
{
associatedMasterId = m01;
layerId = "4EF47A43-EA9F-416F-884D-AC541148DC09";
name = Bold;
shapes = (
{
closed = 1;
nodes = (
(50,220,l),
(369,220,l),
(369,280,l),
(50,280,l)
);
}
);
width = 419;
},
{
layerId = "2CB5E1B6-8A79-4562-81B9-46C99CEA2FC9";
shapes = (
{
closed = 1;
nodes = (
(50,217,l),
(408,217,l),
(408,283,l),
(50,283,l)
);
}
);
width = 458;
},
{
layerId = "1881FB1F-FF0F-4B67-AF41-4B555E01DE13";
shapes = (
{
closed = 1;
nodes = (
(50,223,l),
(384,223,l),
(384,277,l),
(50,277,l)
);
}
);
width = 433.625;
}
);
unicode = 45;
}
{
glyphname = period;
kernRight = period;
layers = (
{
layerId = m01;
shapes = (
{
closed = 1;
nodes = (
(78,-11,o),
(55,11,o),
(55,41,cs),
(55,69,o),
(78,92,o),
(107,92,cs),
(134,92,o),
(158,69,o),
(158,41,cs),
(158,11,o),
(134,-11,o),
(107,-11,cs)
);
}
);
width = 213;
},
{
associatedMasterId = m01;
layerId = "4EF47A43-EA9F-416F-884D-AC541148DC09";
name = Bold;
shapes = (
{
closed = 1;
nodes = (
(93,-12,l),
(52,6,l),
(40,53,l),
(64,92,l),
(110,101,l),
(150,83,l),
(161,38,l),
(138,-5,l)
);
}
);
width = 201;
},
{
layerId = "2CB5E1B6-8A79-4562-81B9-46C99CEA2FC9";
shapes = (
{
closed = 1;
nodes = (
(102,-11,o),
(66,19,o),
(66,62,cs),
(66,105,o),
(102,135,o),
(141,135,cs),
(180,135,o),
(216,105,o),
(216,62,cs),
(216,19,o),
(180,-11,o),
(141,-11,cs)
);
}
);
width = 282;
},
{
layerId = "1881FB1F-FF0F-4B67-AF41-4B555E01DE13";
shapes = (
{
closed = 1;
nodes = (
(88,-11,o),
(60,14,o),
(60,49,cs),
(60,83,o),
(88,108,o),
(121,108,cs),
(152,108,o),
(181,83,o),
(181,49,cs),
(181,14,o),
(152,-11,o),
(121,-11,cs)
);
}
);
width = 241;
}
);
metricRight = "=|";
unicode = 46;
}
{
glyphname = slash;
layers = (
{
layerId = m01;
shapes = (
{
closed = 1;
nodes = (
(75,-146,l),
(425,759,l),
(381,760,l),
(30,-146,l)
);
}
);
width = 395;
},
{
associatedMasterId = m01;
layerId = "4EF47A43-EA9F-416F-884D-AC541148DC09";
name = Bold;
shapes = (
{
closed = 1;
nodes = (
(65,-96,l),
(415,809,l),
(351,810,l),
(0,-96,l)
);
}
);
width = 415;
},
{
layerId = "2CB5E1B6-8A79-4562-81B9-46C99CEA2FC9";
shapes = (
{
closed = 1;
nodes = (
(93,-146,l),
(443,759,l),
(367,760,l),
(16,-146,l)
);
}
);
width = 427;
},
{
layerId = "1881FB1F-FF0F-4B67-AF41-4B555E01DE13";
shapes = (
{
closed = 1;
nodes = (
(82,-146,l),
(432,759,l),
(376,760,l),
(25,-146,l)
);
}
);
width = 407;
}
);
unicode = 47;
}
{
glyphname = zero;
kernLeft = zero;
kernRight = zero;
layers = (
{
layerId = m01;
shapes = (
{
closed = 1;
nodes = (
(440,713,o),
(541,562,o),
(541,351,cs),
(541,140,o),
(440,-11,o),
(289,-11,cs),
(138,-11,o),
(37,140,o),
(37,351,cs),
(37,562,o),
(138,713,o),
(289,713,cs)
);
},
{
closed = 1;
nodes = (
(407,17,o),
(459,185,o),
(459,351,cs),
(459,517,o),
(407,685,o),
(289,685,cs),
(171,685,o),
(119,517,o),
(119,351,cs),
(119,185,o),
(171,17,o),
(289,17,cs)
);
}
);
width = 581;
},
{
associatedMasterId = m01;
layerId = "4EF47A43-EA9F-416F-884D-AC541148DC09";
name = Bold;
shapes = (
{
closed = 1;
nodes = (
(404,20,o),
(328,2,o),
(251,-17,c),
(85,146,l),
(30,397,l),
(135,659,l),
(212,677,o),
(288,696,o),
(365,714,c),
(550,571,l),
(604,300,l),
(481,39,l)
);
},
{
closed = 1;
nodes = (
(191,599,l),
(179,307,l),
(276,69,l),
(365,53,l),
(435,97,l),
(455,373,l),
(350,637,l),
(268,647,l)
);
}
);
width = 634;
},
{
layerId = "2CB5E1B6-8A79-4562-81B9-46C99CEA2FC9";
shapes = (
{
closed = 1;
nodes = (
(504,720,o),
(639,591,o),
(639,355,cs),
(639,118,o),
(504,-11,o),
(352,-11,cs),
(200,-11,o),
(65,118,o),
(65,355,cs),
(65,591,o),
(200,720,o),
(352,720,cs)
);
},
{
closed = 1;
nodes = (
(461,35,o),
(492,188,o),
(492,355,cs),
(492,521,o),
(461,674,o),
(352,674,cs),
(243,674,o),
(212,521,o),
(212,355,cs),
(212,188,o),
(243,35,o),
(352,35,cs)
);
}
);
width = 704;
},
{
layerId = "1881FB1F-FF0F-4B67-AF41-4B555E01DE13";
shapes = (
{
closed = 1;
nodes = (
(464,716,o),
(578,573,o),
(578,353,cs),
(578,132,o),
(464,-11,o),
(313,-11,cs),
(161,-11,o),
(48,132,o),
(48,353,cs),
(48,573,o),
(161,716,o),
(313,716,cs)
);
},
{
closed = 1;
nodes = (
(427,24,o),
(471,186,o),
(471,353,cs),
(471,519,o),
(427,681,o),
(313,681,cs),
(198,681,o),
(154,519,o),
(154,353,cs),
(154,186,o),
(198,24,o),
(313,24,cs)
);
}
);
width = 627.125;
}
);
unicode = 48;
}
{
glyphname = one;
layers = (
{
layerId = m01;
shapes = (
{
closed = 1;
nodes = (
(50,636,l),
(256,710,l),
(265,710,l),
(265,64,ls),
(265,16,o),
(315,16,o),
(400,14,c),
(400,0,l),
(54,0,l),
(54,14,l),
(129,16,o),
(191,16,o),
(191,64,cs),
(191,664,l),
(51,616,l),
(50,617,l)
);
}
);
width = 443;
},
{
associatedMasterId = m01;
background = {
shapes = (
{
closed = 1;
nodes = (
(104,656,l),
(73,631,o),
(23,622,o),
(-21,622,c),
(-21,600,l),
(0,600,ls),
(59,600,o),
(59,589,o),
(59,485,cs),
(59,91,ls),
(59,47,o),
(56,22,o),
(14,22,cs),
(-16,22,l),
(-16,0,l),
(204,0,l),
(204,22,l),
(174,22,ls),
(131,22,o),
(125,47,o),
(125,91,cs),
(125,656,l)
);
}
);
};
layerId = "C8DAEA1E-422D-4659-B41D-6041E98396FF";
name = "Nov 9 18, 16:25";
shapes = (
{
closed = 1;
nodes = (
(228,700,l),
(228,0,l),
(161,0,l),
(161,662,l),
(41,618,l),
(40,619,l),
(40,636,l),
(174,689,l),
(199,700,l)
);
},
{
closed = 1;
nodes = (
(228,45,l),
(271,25,l),
(334,16,l),
(334,0,l),
(55,0,l),
(55,16,l),
(118,25,l),
(161,45,l)
);
}
);
width = 374;
},
{
associatedMasterId = m01;
layerId = "4EF47A43-EA9F-416F-884D-AC541148DC09";
name = Bold;
shapes = (
{
closed = 1;
nodes = (
(195,671,l),
(46,613,l),
(46,582,l),
(54,582,l),
(185,633,l),
(185,1,l),
(322,1,l),
(322,700,l),
(250,700,l)
);
},
{
closed = 1;
nodes = (
(112,25,l),
(44,22,l),
(44,0,l),
(463,0,l),
(463,22,l),
(393,25,l),
(322,75,l),
(185,75,l)
);
}
);
width = 480;
},
{
layerId = "2CB5E1B6-8A79-4562-81B9-46C99CEA2FC9";
shapes = (
{
closed = 1;
nodes = (
(55,640,l),
(314,719,l),
(323,719,l),
(323,77,ls),
(323,29,o),
(363,29,o),
(460,27,c),
(460,0,l),
(50,0,l),
(50,27,l),
(135,29,o),
(187,29,o),
(187,77,cs),
(187,649,l),
(55,611,l),
(55,612,l)
);
}
);
width = 502;
},
{
layerId = "1881FB1F-FF0F-4B67-AF41-4B555E01DE13";
shapes = (
{
closed = 1;
nodes = (
(52,640,l),
(278,715,l),
(287,715,l),
(287,69,ls),
(287,21,o),
(333,21,o),
(423,19,c),
(423,0,l),
(53,0,l),
(53,19,l),
(131,21,o),
(190,21,o),
(190,69,cs),
(190,660,l),
(53,616,l),
(52,617,l)
);
}
);
width = 465.125;
}
);
unicode = 49;
}
{
glyphname = two;
layers = (
{
layerId = m01;
shapes = (
{
closed = 1;
nodes = (
(62,539,l),
(97,646,o),
(176,713,o),
(289,713,cs),
(426,713,o),
(501,617,o),
(501,509,cs),
(501,421,o),
(446,343,o),
(328,240,cs),
(121,58,l),
(398,58,ls),
(476,58,o),
(486,86,o),
(511,176,c),
(525,176,l),
(493,0,l),
(50,0,l),
(50,28,l),
(269,245,ls),
(367,343,o),
(412,413,o),
(412,496,cs),
(412,600,o),
(350,660,o),
(262,660,cs),
(206,660,o),
(130,634,o),
(76,534,c)
);
}
);
width = 603;
},
{
associatedMasterId = m01;
layerId = "4EF47A43-EA9F-416F-884D-AC541148DC09";
name = Bold;
shapes = (
{
closed = 1;
nodes = (
(68,641,l),
(252,714,l),
(445,700,l),
(553,578,l),
(525,398,l),
(135,121,l),
(114,93,l),
(584,112,l),
(560,0,l),
(31,-1,l),
(32,41,l),
(320,348,l),
(392,516,l),
(312,627,l),
(186,656,l),
(77,466,l),
(50,474,l)
);
}
);
width = 607;
},
{
associatedMasterId = m01;
layerId = "89218A2C-75D2-44EB-B59A-569A5EA18333";
name = "Sep 8 20, 18:51";
shapes = (
{
closed = 1;
nodes = (
(76,621,l),
(121,658,o),
(193,723,o),
(306,723,cs),
(444,723,o),
(512,649,o),
(512,552,cs),
(512,471,o),
(474,381,o),
(359,278,cs),
(121,64,l),
(421,64,ls),
(499,64,o),
(500,86,o),
(525,176,c),
(539,176,l),
(503,0,l),
(50,0,l),
(50,28,l),
(284,275,ls),
(379,376,o),
(418,445,o),
(418,542,cs),
(418,622,o),
(372,695,o),
(278,695,cs),
(180,695,o),
(120,616,o),
(142,464,c),
(128,464,l)
);
}
);
width = 593;
},
{
layerId = "2CB5E1B6-8A79-4562-81B9-46C99CEA2FC9";
shapes = (
{
closed = 1;
nodes = (
(46,496,l),
(84,653,o),
(188,720,o),
(308,720,cs),
(442,720,o),
(537,636,o),
(537,515,cs),
(537,391,o),
(438,309,o),
(311,215,cs),
(141,89,l),
(425,89,ls),
(503,89,o),
(515,130,o),
(540,200,c),
(566,200,l),
(523,0,l),
(40,0,l),
(40,48,l),
(239,238,ls),
(333,327,o),
(395,400,o),
(395,496,cs),
(395,587,o),
(336,640,o),
(257,640,cs),
(187,640,o),
(112,601,o),
(77,491,c)
);
}
);
width = 610;
},
{
associatedMasterId = m01;
layerId = "66F5D583-0052-44DE-9D3C-973522B8C64B";
name = "2 gen 22, 16:50";
shapes = (
{
closed = 1;
nodes = (
(67,539,l),
(102,646,o),
(181,713,o),
(294,713,cs),
(420,713,o),
(493,627,o),
(493,523,cs),
(493,429,o),
(450,352,o),
(333,250,cs),
(110,56,l),
(397,56,ls),
(475,56,o),
(486,86,o),
(511,176,c),
(525,176,l),
(493,0,l),
(40,0,l),
(40,28,l),
(274,255,ls),
(373,352,o),
(413,423,o),
(413,501,cs),
(413,610,o),
(339,660,o),
(264,660,cs),
(206,660,o),
(135,634,o),
(81,534,c)
);
}
);
width = 583;
},
{
layerId = "1881FB1F-FF0F-4B67-AF41-4B555E01DE13";
shapes = (
{
closed = 1;
nodes = (
(56,523,l),
(92,649,o),
(181,716,o),
(296,716,cs),
(432,716,o),
(515,624,o),
(515,511,cs),
(515,410,o),
(443,330,o),
(322,231,cs),
(129,70,l),
(408,70,ls),
(486,70,o),
(497,103,o),
(522,185,c),
(540,185,l),
(504,0,l),
(46,0,l),
(46,36,l),
(258,242,ls),
(354,337,o),
(406,408,o),
(406,496,cs),
(406,595,o),
(345,653,o),
(260,653,cs),
(199,653,o),
(123,622,o),
(76,518,c)
);
}
);
width = 605.625;
}
);
unicode = 50;
}
{
glyphname = three;
layers = (
{
associatedMasterId = m01;
layerId = "4EF47A43-EA9F-416F-884D-AC541148DC09";
name = Bold;
shapes = (
{
closed = 1;
nodes = (
(75,671,l),
(273,715,l),
(462,684,l),
(538,567,l),
(493,436,l),
(312,373,l),
(510,331,l),
(568,190,l),
(457,25,l),
(250,-23,l),
(72,45,l),
(59,212,l),
(99,212,l),
(196,24,l),
(341,52,l),
(405,149,l),
(347,289,l),
(239,358,l),
(174,358,l),
(174,392,l),
(266,392,l),
(378,505,l),
(355,624,l),
(199,671,l),
(90,487,l),
(57,484,l)
);
}
);
width = 607;
},
{
associatedMasterId = m01;
layerId = "A5FB1374-774D-4161-9B0B-D84046EAD9BF";
name = "Sep 8 20, 18:40";
shapes = (
{
closed = 1;
nodes = (
(104,700,l),
(520,700,l),
(522,691,l),
(274,436,l),
(415,481,o),
(527,393,o),
(527,249,cs),
(527,146,o),
(464,-13,o),
(278,-13,cs),
(195,-13,o),
(136,19,o),
(95,49,c),
(90,222,l),
(104,222,l),
(126,87,o),
(186,11,o),
(286,11,cs),
(401,11,o),
(451,133,o),
(451,210,cs),
(451,349,o),
(354,426,o),
(184,358,c),
(178,373,l),
(425,626,l),
(103,626,l)
);
}
);
width = 562;
},
{
associatedMasterId = m01;
layerId = "CDECE252-9996-4FB3-8D31-75ED25C9002F";
name = "Sep 8 20, 18:42";
shapes = (
{
closed = 1;
nodes = (
(104,700,l),
(520,700,l),
(522,691,l),
(274,436,l),
(415,481,o),
(527,393,o),
(527,249,cs),
(527,146,o),
(464,-13,o),
(258,-13,cs),
(165,-13,o),
(96,39,o),
(55,69,c),
(71,88,l),
(120,49,o),
(182,11,o),
(252,11,cs),
(397,11,o),
(451,133,o),
(451,210,cs),
(451,349,o),
(354,426,o),
(184,358,c),
(178,373,l),
(425,626,l),
(103,626,l)
);
}
);
width = 562;
},
{
layerId = m01;
shapes = (
{
closed = 1;
nodes = (
(62,602,l),
(90,652,o),
(159,713,o),
(253,713,cs),
(356,713,o),
(408,651,o),
(408,578,cs),
(408,462,o),
(292,422,o),
(177,384,c),
(172,392,l),
(330,413,o),
(459,334,o),
(459,214,cs),
(459,103,o),
(371,-10,o),
(225,-10,cs),
(152,-10,o),
(86,22,o),
(45,52,c),
(60,215,l),
(74,215,l),
(86,80,o),
(126,16,o),
(230,16,cs),
(321,16,o),
(379,98,o),
(379,183,cs),
(379,293,o),
(290,395,o),
(118,367,c),
(115,383,l),
(229,419,o),
(330,460,o),
(330,561,cs),
(330,610,o),
(296,668,o),
(218,668,cs),
(166,668,o),
(113,643,o),
(74,595,c)
);
}
);
width = 492;
},
{
associatedMasterId = m01;
layerId = "49ED67CA-CEB6-45A8-9FD6-FC1B3154DC57";
name = "Sep 27 20, 18:48";
shapes = (
{
closed = 1;
nodes = (
(82,602,l),
(110,652,o),
(179,713,o),
(273,713,cs),
(376,713,o),
(428,651,o),
(428,578,cs),
(428,483,o),
(333,424,o),
(229,392,c),
(370,397,o),
(494,342,o),
(494,215,cs),
(494,95,o),
(384,-13,o),
(248,-13,cs),
(165,-13,o),
(96,19,o),
(55,49,c),
(70,212,l),
(84,212,l),
(96,77,o),
(136,17,o),
(250,17,cs),
(341,17,o),
(415,95,o),
(415,192,cs),
(415,311,o),
(307,395,o),
(135,360,c),
(132,373,l),
(246,419,o),
(350,470,o),
(350,561,cs),
(350,610,o),
(316,668,o),
(238,668,cs),
(194,668,o),
(134,642,o),
(95,594,c)
);
}
);
width = 532;
},
{
layerId = "2CB5E1B6-8A79-4562-81B9-46C99CEA2FC9";
shapes = (
{
closed = 1;
nodes = (
(53,584,l),
(94,654,o),
(168,720,o),
(285,720,cs),
(388,720,o),
(484,666,o),
(484,559,cs),
(484,420,o),
(279,377,o),
(223,381,c),
(223,393,l),
(383,404,o),
(535,342,o),
(535,194,cs),
(535,73,o),
(394,-11,o),
(262,-11,cs),
(159,-11,o),
(84,21,o),
(43,51,c),
(80,230,l),
(104,230,l),
(91,109,o),
(142,31,o),
(244,31,cs),
(335,31,o),
(389,93,o),
(389,177,cs),
(389,287,o),
(293,371,o),
(131,352,c),
(128,379,l),
(242,415,o),
(351,454,o),
(351,555,cs),
(351,611,o),
(312,659,o),
(240,659,cs),
(185,659,o),
(132,633,o),
(78,568,c)
);
}
);
width = 600;
},
{
layerId = "1881FB1F-FF0F-4B67-AF41-4B555E01DE13";
shapes = (
{
closed = 1;
nodes = (
(59,595,l),
(92,653,o),
(162,716,o),
(265,716,cs),
(368,716,o),
(437,657,o),
(437,571,cs),
(437,446,o),
(287,405,o),
(194,383,c),
(191,392,l),
(350,410,o),
(488,337,o),
(488,207,cs),
(488,92,o),
(380,-11,o),
(239,-11,cs),
(155,-11,o),
(85,22,o),
(44,52,c),
(68,221,l),
(85,221,l),
(88,91,o),
(132,21,o),
(235,21,cs),
(326,21,o),
(383,96,o),
(383,181,cs),
(383,291,o),
(291,386,o),
(123,361,c),
(121,382,l),
(235,418,o),
(339,458,o),
(339,559,cs),
(339,610,o),
(302,665,o),
(226,665,cs),
(173,665,o),
(120,639,o),
(76,585,c)
);
}
);
width = 532.5;
}
);
unicode = 51;
}
{
glyphname = four;
layers = (
{
layerId = m01;
shapes = (
{
closed = 1;
nodes = (
(26,248,l),
(423,700,l),
(451,700,l),
(451,246,l),
(558,246,l),
(558,195,l),
(451,195,l),
(451,65,ls),
(451,17,o),
(483,16,o),
(558,14,c),
(558,0,l),
(274,0,l),
(274,14,l),
(339,16,o),
(381,17,o),
(381,65,cs),
(381,195,l),
(26,195,l)
);
},
{
closed = 1;
nodes = (
(381,246,l),
(382,607,l),
(65,246,l)
);
}
);
width = 616;
},
{
associatedMasterId = m01;
layerId = "4EF47A43-EA9F-416F-884D-AC541148DC09";
name = Bold;
shapes = (
{
closed = 1;
nodes = (
(329,233,l),
(118,233,l),
(118,288,l),
(329,582,l)
);
},
{
closed = 1;
nodes = (
(33,233,l),
(33,193,l),
(329,193,l),
(329,6,l),
(466,6,l),
(466,193,l),
(608,193,l),
(608,233,l),
(466,233,l),
(466,700,l),
(366,700,l)
);
},
{
closed = 1;
nodes = (
(261,24,l),
(203,21,l),
(203,-1,l),
(592,-1,l),
(592,21,l),
(532,24,l),
(466,74,l),
(329,72,l)
);
}
);
width = 609;
},
{
layerId = "2CB5E1B6-8A79-4562-81B9-46C99CEA2FC9";
shapes = (
{
closed = 1;
nodes = (
(30,239,l),
(407,705,l),
(470,705,l),
(470,262,l),
(585,262,l),
(585,182,l),
(470,182,l),
(470,77,ls),
(470,29,o),
(502,28,o),
(577,26,c),
(577,0,l),
(238,0,l),
(238,26,l),
(303,28,o),
(345,29,o),
(345,77,cs),
(345,182,l),
(30,182,l)
);
},
{
closed = 1;
nodes = (
(345,262,l),
(345,562,l),
(97,262,l)
);
}
);
width = 643;
},
{
layerId = "1881FB1F-FF0F-4B67-AF41-4B555E01DE13";
shapes = (
{
closed = 1;
nodes = (
(28,245,l),
(417,702,l),
(458,702,l),
(458,252,l),
(568,252,l),
(568,190,l),
(458,190,l),
(458,70,ls),
(458,22,o),
(490,21,o),
(565,19,c),
(565,0,l),
(261,0,l),
(261,19,l),
(326,21,o),
(368,22,o),
(368,70,cs),
(368,190,l),
(28,190,l)
);
},
{
closed = 1;
nodes = (
(368,252,l),
(368,590,l),
(77,252,l)
);
}
);
width = 626.125;
}
);
unicode = 52;
}
{
glyphname = five;
layers = (
{
layerId = m01;
shapes = (
{
closed = 1;
nodes = (
(57,62,l),
(119,24,o),
(187,-11,o),
(269,-11,cs),
(446,-11,o),
(536,133,o),
(536,250,cs),
(536,378,o),
(448,457,o),
(331,457,cs),
(251,457,o),
(166,408,o),
(106,353,c),
(123,349,l),
(165,637,l),
(489,637,l),
(489,700,l),
(143,700,l),
(89,332,l),
(103,324,l),
(167,369,o),
(226,408,o),
(296,408,cs),
(384,408,o),
(456,346,o),
(456,225,cs),
(456,136,o),
(398,14,o),
(276,14,cs),
(195,14,o),
(105,52,o),
(102,209,c),
(82,212,l)
);
}
);
width = 604;
},
{
associatedMasterId = m01;
layerId = "4EF47A43-EA9F-416F-884D-AC541148DC09";
name = Bold;
shapes = (
{
closed = 1;
nodes = (
(40,41,l),
(286,-14,l),
(483,68,l),
(547,213,l),
(507,362,l),
(334,454,l),
(125,413,l),
(151,562,l),
(487,562,l),
(487,700,l),
(138,700,l),
(74,334,l),
(97,334,l),
(189,386,l),
(301,396,l),
(388,268,l),
(394,98,l),
(339,37,l),
(157,40,l),
(78,169,l),
(55,169,l)
);
}
);
width = 577;
},
{
layerId = "2CB5E1B6-8A79-4562-81B9-46C99CEA2FC9";
shapes = (
{
closed = 1;
nodes = (
(40,62,l),
(99,24,o),
(183,-11,o),
(261,-11,cs),
(458,-11,o),
(551,113,o),
(551,238,cs),
(551,362,o),
(460,457,o),
(313,457,cs),
(229,457,o),
(150,422,o),
(91,353,c),
(109,342,l),
(151,600,l),
(495,600,l),
(495,705,l),
(122,705,l),
(65,329,l),
(96,315,l),
(158,370,o),
(210,387,o),
(255,387,cs),
(350,387,o),
(412,327,o),
(412,219,cs),
(412,125,o),
(370,23,o),
(253,23,cs),
(194,23,o),
(99,72,o),
(104,232,c),
(76,235,l)
);
}
);
width = 591;
},
{
associatedMasterId = "2CB5E1B6-8A79-4562-81B9-46C99CEA2FC9";
layerId = "5AAC3467-83B0-436C-B949-234A9A85848B";
name = "15 feb 22, 12:08";
shapes = (
{
closed = 1;
nodes = (
(40,62,l),
(99,24,o),
(183,-11,o),
(261,-11,cs),
(454,-11,o),
(557,113,o),
(557,238,cs),
(557,362,o),
(466,457,o),
(323,457,cs),
(239,457,o),
(160,422,o),
(101,353,c),
(119,342,l),
(161,600,l),
(505,600,l),
(505,705,l),
(132,705,l),
(75,329,l),
(106,315,l),
(168,370,o),
(220,387,o),
(265,387,cs),
(356,387,o),
(418,327,o),
(418,219,cs),
(418,125,o),
(366,23,o),
(253,23,cs),
(194,23,o),
(99,72,o),
(104,232,c),
(76,235,l)
);
}
);
width = 584;
},
{
layerId = "1881FB1F-FF0F-4B67-AF41-4B555E01DE13";
shapes = (
{
closed = 1;
nodes = (
(51,62,l),
(112,24,o),
(186,-11,o),
(266,-11,cs),
(451,-11,o),
(542,126,o),
(542,246,cs),
(542,372,o),
(453,457,o),
(324,457,cs),
(243,457,o),
(160,413,o),
(100,353,c),
(118,346,l),
(160,623,l),
(491,623,l),
(491,702,l),
(135,702,l),
(80,331,l),
(100,321,l),
(164,369,o),
(220,400,o),
(281,400,cs),
(371,400,o),
(440,339,o),
(440,223,cs),
(440,132,o),
(388,17,o),
(267,17,cs),
(195,17,o),
(103,60,o),
(103,218,c),
(80,221,l)
);
}
);
width = 599.125;
}
);
unicode = 53;
}
{
glyphname = six;
kernLeft = zero;
layers = (
{
associatedMasterId = m01;
background = {
shapes = (
{
closed = 1;
nodes = (
(125,378,o),
(130,463,o),
(150,528,cs),
(162,566,o),
(200,630,o),
(279,630,cs),
(314,630,o),
(339,621,o),
(355,595,cs),
(366,577,o),
(374,553,o),
(402,553,cs),
(414,553,o),
(430,560,o),
(430,580,cs),
(430,620,o),
(364,656,o),
(294,656,cs),
(119,656,o),
(43,459,o),
(43,291,cs),
(43,108,o),
(124,-16,o),
(257,-16,cs),
(385,-16,o),
(456,94,o),
(456,194,cs),
(456,314,o),
(366,404,o),
(263,404,cs),
(189,404,o),
(145,353,o),
(127,331,c)
);
},
{
closed = 1;
nodes = (
(125,271,o),
(136,310,o),
(165,341,cs),
(188,365,o),
(220,378,o),
(251,378,cs),
(287,378,o),
(319,362,o),
(341,336,cs),
(371,301,o),
(375,252,o),
(375,207,cs),
(375,157,o),
(374,6,o),
(252,6,cs),
(168,6,o),
(125,97,o),
(125,201,cs)
);
}
);
};
layerId = "DB230CFB-24A0-4356-BFA2-C50A9A52AF47";
name = "Nov 9 18, 16:04";
shapes = (
{
closed = 1;
nodes = (
(208,301,l),
(283,371,o),
(318,407,o),
(385,407,cs),
(505,407,o),
(542,290,o),
(542,204,cs),
(542,92,o),
(483,41,o),
(394,41,cs),
(252,41,o),
(216,251,o),
(216,331,cs),
(216,374,o),
(230,689,o),
(384,689,cs),
(489,689,o),
(537,624,o),
(556,506,c),
(570,506,l),
(602,627,l),
(536,685,o),
(484,714,o),
(417,714,cs),
(217,714,o),
(137,494,o),
(137,299,cs),
(137,143,o),
(225,-5,o),
(358,-7,cs),
(506,-9,o),
(617,106,o),
(615,256,cs),
(613,385,o),
(536,448,o),
(422,448,cs),
(353,448,o),
(283,404,o),
(208,332,c)
);
}
);
width = 600;
},
{
associatedMasterId = m01;
background = {
shapes = (
{
closed = 1;
nodes = (
(125,378,o),
(130,463,o),
(150,528,cs),
(162,566,o),
(200,630,o),
(279,630,cs),
(314,630,o),
(339,621,o),
(355,595,cs),
(366,577,o),
(374,553,o),
(402,553,cs),
(414,553,o),
(430,560,o),
(430,580,cs),
(430,620,o),
(364,656,o),
(294,656,cs),
(119,656,o),
(43,459,o),
(43,291,cs),
(43,108,o),
(124,-16,o),
(257,-16,cs),
(385,-16,o),
(456,94,o),
(456,194,cs),
(456,314,o),
(366,404,o),
(263,404,cs),
(189,404,o),
(145,353,o),
(127,331,c)
);
},
{
closed = 1;
nodes = (
(125,271,o),
(136,310,o),
(165,341,cs),
(188,365,o),
(220,378,o),
(251,378,cs),
(287,378,o),
(319,362,o),
(341,336,cs),
(371,301,o),
(375,252,o),
(375,207,cs),
(375,157,o),
(374,6,o),
(252,6,cs),
(168,6,o),
(125,97,o),
(125,201,cs)
);
}
);
};
layerId = "5A6999C1-0F4B-4813-8EA8-5010E039383E";
name = "Nov 9 18, 16:50";
shapes = (
{
closed = 1;
nodes = (
(455,714,l),
(165,725,o),
(95,489,o),
(88,314,cs),
(81,148,o),
(172,7,o),
(306,0,cs),
(442,-6,o),
(546,107,o),
(550,255,cs),
(552,376,o),
(477,449,o),
(360,454,cs),
(280,457,o),
(184,386,o),
(143,295,c),
(142,264,l),
(187,350,o),
(267,418,o),
(341,416,cs),
(444,412,o),
(497,333,o),
(492,203,cs),
(489,116,o),
(423,42,o),
(337,45,cs),
(191,51,o),
(159,234,o),
(162,344,cs),
(164,387,o),
(201,709,o),
(454,700,c)
);
}
);
width = 600;
},
{
associatedMasterId = m01;
layerId = "4EF47A43-EA9F-416F-884D-AC541148DC09";
name = Bold;
shapes = (
{
closed = 1;
nodes = (
(219,321,l),
(389,390,l),
(500,283,l),
(500,140,l),
(456,54,l),
(320,60,l),
(233,199,l),
(208,450,l),
(244,586,l),
(343,671,l),
(456,663,l),
(510,605,l),
(549,523,l),
(571,523,l),
(595,658,l),
(398,714,l),
(230,671,l),
(116,544,l),
(57,321,l),
(118,117,l),
(270,-8,l),
(422,-1,l),
(563,75,l),
(635,220,l),
(595,372,l),
(422,448,l),
(219,350,l)
);
}
);
width = 678;
},
{
layerId = "2CB5E1B6-8A79-4562-81B9-46C99CEA2FC9";
metricLeft = "=|nine";
shapes = (
{
closed = 1;
nodes = (
(483,717,l),
(215,675,o),
(36,514,o),
(36,302,cs),
(36,117,o),
(153,-11,o),
(306,-11,cs),
(462,-11,o),
(572,99,o),
(572,236,cs),
(572,366,o),
(466,452,o),
(350,453,cs),
(280,453,o),
(167,421,o),
(125,311,c),
(127,264,l),
(173,359,o),
(250,395,o),
(304,395,cs),
(397,394,o),
(443,301,o),
(443,212,cs),
(443,113,o),
(417,21,o),
(315,27,cs),
(211,33,o),
(171,185,o),
(171,339,cs),
(171,508,o),
(274,631,o),
(494,679,c)
);
}
);
width = 602;
},
{
associatedMasterId = m01;
layerId = "8F973E3F-CED3-4120-AECB-47A492A6CBD0";
name = "29 gen 22, 16:09";
shapes = (
{
closed = 1;
nodes = (
(437,708,l),
(221,663,o),
(51,514,o),
(51,305,cs),
(51,116,o),
(155,-11,o),
(307,-11,cs),
(435,-11,o),
(536,98,o),
(536,236,cs),
(536,357,o),
(447,443,o),
(330,443,cs),
(270,443,o),
(150,404,o),
(109,293,c),
(112,256,l),
(157,362,o),
(253,401,o),
(306,401,cs),
(407,401,o),
(456,312,o),
(456,212,cs),
(456,115,o),
(411,13,o),
(307,18,cs),
(203,23,o),
(140,169,o),
(140,336,cs),
(140,501,o),
(273,644,o),
(442,689,c)
);
}
);
width = 579;
},
{
associatedMasterId = m01;
layerId = "5133B808-6396-41CD-98FE-63EC713EB28F";
name = "29 gen 22, 16:18";
shapes = (
{
closed = 1;
nodes = (
(454,714,l),
(237,673,o),
(48,516,o),
(48,307,cs),
(48,119,o),
(148,-11,o),
(304,-11,cs),
(431,-11,o),
(533,97,o),
(533,237,cs),
(533,370,o),
(445,456,o),
(327,456,cs),
(266,456,o),
(151,419,o),
(108,314,c),
(110,277,l),
(156,379,o),
(251,415,o),
(305,415,cs),
(404,415,o),
(453,328,o),
(453,218,cs),
(453,118,o),
(411,19,o),
(308,19,cs),
(201,19,o),
(143,176,o),
(143,329,cs),
(143,507,o),
(289,650,o),
(459,695,c)
);
}
);
width = 579;
},
{
layerId = m01;
name = Light;
shapes = (
{
closed = 1;
nodes = (
(452,713,l),
(215,688,o),
(36,516,o),
(36,291,cs),
(36,113,o),
(136,-11,o),
(282,-11,cs),
(408,-11,o),
(516,77,o),
(516,229,cs),
(516,387,o),
(399,462,o),
(297,458,cs),
(228,456,o),
(132,407,o),
(104,313,c),
(108,279,l),
(139,369,o),
(210,417,o),
(273,417,cs),
(385,417,o),
(436,309,o),
(436,211,cs),
(436,111,o),
(387,18,o),
(289,18,cs),
(185,18,o),
(120,133,o),
(120,279,cs),
(120,497,o),
(267,661,o),
(454,690,c)
);
}
);
width = 579;
},
{
layerId = "1881FB1F-FF0F-4B67-AF41-4B555E01DE13";
name = Light;
shapes = (
{
closed = 1;
nodes = (
(464,715,l),
(215,683,o),
(36,515,o),
(36,295,cs),
(36,115,o),
(142,-11,o),
(291,-11,cs),
(428,-11,o),
(537,85,o),
(537,232,cs),
(537,379,o),
(424,458,o),
(317,456,cs),
(248,455,o),
(145,412,o),
(112,312,c),
(115,273,l),
(152,365,o),
(225,409,o),
(285,409,cs),
(390,408,o),
(439,306,o),
(439,211,cs),
(439,112,o),
(398,19,o),
(299,21,cs),
(195,24,o),
(139,153,o),
(139,302,cs),
(139,501,o),
(270,650,o),
(469,686,c)
);
}
);
width = 587.625;
}
);
unicode = 54;
}
{
glyphname = seven;
layers = (
{
layerId = m01;
shapes = (
{
closed = 1;
nodes = (
(20,642,l),
(429,643,l),
(444,675,l),
(209,410,o),
(168,189,o),
(166,0,c),
(237,0,l),
(239,200,o),
(271,426,o),
(481,686,c),
(472,700,l),
(20,700,l)
);
}
);
width = 509;
},
{
associatedMasterId = m01;
layerId = "4EF47A43-EA9F-416F-884D-AC541148DC09";
name = Bold;
shapes = (
{
closed = 1;
nodes = (
(25,563,l),
(410,563,l),
(255,267,l),
(89,0,l),
(206,0,l),
(498,690,l),
(488,700,l),
(25,700,l)
);
}
);
width = 498;
},
{
layerId = "2CB5E1B6-8A79-4562-81B9-46C99CEA2FC9";
shapes = (
{
closed = 1;
nodes = (
(42,597,l),
(453,598,l),
(463,637,l),
(215,353,o),
(174,173,o),
(173,0,c),
(299,0,l),
(299,225,o),
(336,413,o),
(543,683,c),
(534,705,l),
(42,705,l)
);
}
);
width = 590;
},
{
layerId = "1881FB1F-FF0F-4B67-AF41-4B555E01DE13";
shapes = (
{
closed = 1;
nodes = (
(28,625,l),
(438,626,l),
(451,661,l),
(211,388,o),
(170,183,o),
(169,0,c),
(260,0,l),
(262,209,o),
(295,421,o),
(504,685,c),
(495,702,l),
(28,702,l)
);
}
);
width = 539.375;
}
);
unicode = 55;
}
{
glyphname = eight;
layers = (
{
layerId = m01;
shapes = (
{
closed = 1;
nodes = (
(416,713,o),
(300,713,cs),
(181,713,o),
(101,649,o),
(101,556,cs),
(101,442,o),
(228,387,o),
(301,345,cs),
(364,309,o),
(455,269,o),
(455,170,cs),
(455,111,o),
(420,24,o),
(308,24,cs),
(212,24,o),
(149,95,o),
(149,193,cs),
(149,270,o),
(193,329,o),
(280,375,c),
(262,389,l),
(201,362,o),
(75,308,o),
(75,180,cs),
(75,77,o),
(159,-11,o),
(296,-11,cs),
(473,-11,o),
(529,99,o),
(529,184,cs),
(529,291,o),
(438,346,o),
(357,390,cs),
(272,436,o),
(168,488,o),
(168,577,cs),
(168,643,o),
(223,689,o),
(289,689,cs),
(374,689,o),
(417,627,o),
(417,569,cs),
(417,476,o),
(360,425,o),
(305,389,c),
(318,376,l),
(371,407,o),
(484,461,o),
(484,563,cs),
(484,641,o)
);
}
);
width = 602;
},
{
associatedMasterId = m01;
layerId = "4EF47A43-EA9F-416F-884D-AC541148DC09";
name = Bold;
shapes = (
{
closed = 1;
nodes = (
(352,710,l),
(153,668,l),
(80,549,l),
(103,417,l),
(349,297,l),
(428,171,l),
(410,87,l),
(351,39,l),
(220,117,l),
(184,236,l),
(291,393,l),
(267,394,l),
(105,299,l),
(43,187,l),
(99,56,l),
(301,-12,l),
(485,74,l),
(577,211,l),
(524,342,l),
(248,467,l),
(208,544,l),
(235,655,l),
(328,682,l),
(387,650,l),
(407,520,l),
(296,413,l),
(336,401,l),
(450,433,l),
(532,545,l),
(469,686,l)
);
}
);
width = 602;
},
{
associatedMasterId = "2CB5E1B6-8A79-4562-81B9-46C99CEA2FC9";
layerId = "372C685E-BF3D-43F1-9910-A11E26177A9E";
name = "7 gen 22, 17:04";
shapes = (
{
closed = 1;
nodes = (
(433,720,o),
(319,720,cs),
(190,720,o),
(87,650,o),
(87,547,cs),
(87,426,o),
(242,355,o),
(315,313,cs),
(378,277,o),
(446,242,o),
(446,163,cs),
(446,110,o),
(419,27,o),
(327,27,cs),
(251,27,o),
(195,96,o),
(195,188,cs),
(195,249,o),
(206,305,o),
(279,367,c),
(252,390,l),
(169,355,o),
(70,312,o),
(70,184,cs),
(70,76,o),
(168,-11,o),
(321,-11,cs),
(485,-11,o),
(571,98,o),
(571,202,cs),
(571,296,o),
(471,358,o),
(390,402,cs),
(305,448,o),
(214,494,o),
(214,586,cs),
(214,646,o),
(258,687,o),
(313,687,cs),
(377,687,o),
(423,630,o),
(423,554,cs),
(423,481,o),
(379,423,o),
(334,387,c),
(370,371,l),
(411,390,o),
(548,444,o),
(548,557,cs),
(548,659,o)
);
}
);
width = 641;
},
{
layerId = "2CB5E1B6-8A79-4562-81B9-46C99CEA2FC9";
name = Bold;
shapes = (
{
closed = 1;
nodes = (
(429,720,o),
(315,720,cs),
(186,720,o),
(83,650,o),
(83,547,cs),
(83,426,o),
(238,355,o),
(311,313,cs),
(374,277,o),
(442,242,o),
(442,163,cs),
(442,110,o),
(415,27,o),
(323,27,cs),
(247,27,o),
(191,96,o),
(191,188,cs),
(191,259,o),
(212,315,o),
(295,367,c),
(268,390,l),
(185,355,o),
(66,312,o),
(66,184,cs),
(66,76,o),
(164,-11,o),
(317,-11,cs),
(481,-11,o),
(567,98,o),
(567,202,cs),
(567,296,o),
(467,358,o),
(386,402,cs),
(301,448,o),
(210,494,o),
(210,586,cs),
(210,646,o),
(254,687,o),
(309,687,cs),
(373,687,o),
(419,630,o),
(419,554,cs),
(419,471,o),
(365,423,o),
(320,387,c),
(336,371,l),
(387,390,o),
(544,444,o),
(544,557,cs),
(544,659,o)
);
}
);
width = 633;
},
{
layerId = "1881FB1F-FF0F-4B67-AF41-4B555E01DE13";
shapes = (
{
closed = 1;
nodes = (
(421,716,o),
(306,716,cs),
(183,716,o),
(94,649,o),
(94,553,cs),
(94,436,o),
(232,375,o),
(305,333,cs),
(368,297,o),
(450,259,o),
(450,167,cs),
(450,111,o),
(418,25,o),
(314,25,cs),
(225,25,o),
(165,95,o),
(165,191,cs),
(165,266,o),
(200,324,o),
(286,372,c),
(264,389,l),
(195,359,o),
(72,310,o),
(72,182,cs),
(72,77,o),
(161,-11,o),
(304,-11,cs),
(476,-11,o),
(543,99,o),
(543,191,cs),
(543,293,o),
(449,351,o),
(368,395,cs),
(283,441,o),
(184,490,o),
(184,580,cs),
(184,644,o),
(235,688,o),
(297,688,cs),
(374,688,o),
(418,628,o),
(418,563,cs),
(418,474,o),
(362,424,o),
(311,388,c),
(325,374,l),
(377,401,o),
(507,455,o),
(507,561,cs),
(507,648,o)
);
}
);
width = 613.625;
}
);
unicode = 56;
}
{
glyphname = nine;
kernRight = zero;
layers = (
{
layerId = m01;
shapes = (
{
closed = 1;
nodes = (
(108,-11,l),
(345,14,o),
(524,186,o),
(524,421,cs),
(524,589,o),
(424,713,o),
(278,713,cs),
(152,713,o),
(42,625,o),
(42,473,cs),
(42,315,o),
(161,240,o),
(263,244,cs),
(332,246,o),
(431,295,o),
(459,389,c),
(455,423,l),
(424,333,o),
(350,285,o),
(287,285,cs),
(175,285,o),
(126,393,o),
(126,491,cs),
(126,591,o),
(173,684,o),
(271,684,cs),
(375,684,o),
(443,569,o),
(443,423,cs),
(443,205,o),
(293,41,o),
(106,12,c)
);
}
);
width = 577;
},
{
associatedMasterId = m01;
background = {
shapes = (
{
closed = 1;
nodes = (
(375,262,o),
(370,177,o),
(350,112,cs),
(338,74,o),
(300,10,o),
(221,10,cs),
(186,10,o),
(161,19,o),
(145,45,cs),
(134,63,o),
(126,87,o),
(98,87,cs),
(86,87,o),
(70,80,o),
(70,60,cs),
(70,20,o),
(136,-16,o),
(206,-16,cs),
(381,-16,o),
(457,181,o),
(457,349,cs),
(457,532,o),
(376,656,o),
(243,656,cs),
(115,656,o),
(44,546,o),
(44,446,cs),
(44,326,o),
(134,236,o),
(237,236,cs),
(311,236,o),
(355,287,o),
(373,309,c)
);
},
{
closed = 1;
nodes = (
(375,369,o),
(364,330,o),
(335,299,cs),
(312,275,o),
(280,262,o),
(249,262,cs),
(213,262,o),
(181,278,o),
(159,304,cs),
(129,339,o),
(125,388,o),
(125,433,cs),
(125,483,o),
(126,634,o),
(248,634,cs),
(332,634,o),
(375,543,o),
(375,439,cs)
);
}
);
};
layerId = "4995E82E-A56F-47EC-9AC6-8664137748E6";
name = "Nov 9 18, 18:05";
shapes = (
{
closed = 1;
nodes = (
(183,0,l),
(473,-11,o),
(543,225,o),
(550,400,cs),
(557,566,o),
(466,707,o),
(332,714,cs),
(196,720,o),
(92,607,o),
(88,459,cs),
(86,338,o),
(161,265,o),
(278,260,cs),
(358,257,o),
(454,328,o),
(495,419,c),
(496,450,l),
(451,364,o),
(371,296,o),
(297,298,cs),
(194,302,o),
(141,381,o),
(146,511,cs),
(149,598,o),
(215,672,o),
(301,669,cs),
(447,663,o),
(479,480,o),
(476,370,cs),
(474,327,o),
(437,5,o),
(184,14,c)
);
}
);
width = 600;
},
{
associatedMasterId = m01;
layerId = "4EF47A43-EA9F-416F-884D-AC541148DC09";
name = Bold;
shapes = (
{
closed = 1;
nodes = (
(219,661,l),
(181,578,l),
(187,443,l),
(283,321,l),
(471,388,l),
(471,359,l),
(253,261,l),
(80,357,l),
(40,507,l),
(113,648,l),
(243,700,l),
(424,711,l),
(558,559,l),
(565,222,l),
(430,60,l),
(211,-13,l),
(103,84,l),
(137,104,l),
(313,41,l),
(434,153,l),
(434,466,l),
(358,637,l)
);
}
);
width = 614;
},
{
layerId = "2CB5E1B6-8A79-4562-81B9-46C99CEA2FC9";
shapes = (
{
closed = 1;
nodes = (
(138,-11,l),
(404,34,o),
(563,196,o),
(563,405,cs),
(563,582,o),
(459,719,o),
(293,719,cs),
(138,719,o),
(30,620,o),
(30,476,cs),
(30,338,o),
(134,253,o),
(255,253,cs),
(331,253,o),
(432,288,o),
(473,399,c),
(470,446,l),
(425,340,o),
(361,313,o),
(307,313,cs),
(206,313,o),
(154,416,o),
(154,509,cs),
(154,610,o),
(204,681,o),
(278,681,cs),
(385,681,o),
(427,573,o),
(427,412,cs),
(427,207,o),
(343,74,o),
(127,22,c)
);
}
);
width = 599;
},
{
associatedMasterId = m01;
layerId = "5F6E8E21-208D-4A38-BE61-AD97BAA86CB0";
name = "29 gen 22, 16:11";
shapes = (
{
closed = 1;
nodes = (
(136,-11,l),
(352,29,o),
(514,183,o),
(514,405,cs),
(514,581,o),
(415,713,o),
(272,713,cs),
(143,713,o),
(35,625,o),
(35,483,cs),
(35,348,o),
(125,256,o),
(254,256,cs),
(324,256,o),
(433,306,o),
(454,417,c),
(448,451,l),
(423,345,o),
(347,297,o),
(280,297,cs),
(169,297,o),
(112,412,o),
(112,505,cs),
(112,612,o),
(173,688,o),
(263,684,cs),
(368,679,o),
(441,548,o),
(439,390,cs),
(437,197,o),
(301,50,o),
(132,10,c)
);
}
);
width = 577;
},
{
layerId = "1881FB1F-FF0F-4B67-AF41-4B555E01DE13";
shapes = (
{
closed = 1;
nodes = (
(119,-11,l),
(367,22,o),
(539,190,o),
(539,415,cs),
(539,586,o),
(437,715,o),
(284,715,cs),
(147,715,o),
(38,623,o),
(38,474,cs),
(38,324,o),
(151,245,o),
(260,247,cs),
(332,249,o),
(431,292,o),
(464,393,c),
(461,432,l),
(424,336,o),
(354,296,o),
(295,296,cs),
(187,296,o),
(137,402,o),
(137,498,cs),
(137,599,o),
(185,684,o),
(276,683,cs),
(379,681,o),
(437,570,o),
(437,419,cs),
(437,206,o),
(312,53,o),
(114,16,c)
);
}
);
width = 585.25;
}
);
unicode = 57;
}
{
glyphname = colon;
kernLeft = colon;
kernRight = colon;
layers = (
{
layerId = m01;
shapes = (
{
pos = (0,3);
ref = period;
},
{
pos = (0,414);
ref = period;
}
);
width = 213;
},
{
associatedMasterId = m01;
background = {
shapes = (
{
closed = 1;
nodes = (
(168,471,o),
(141,498,o),
(108,498,cs),
(75,498,o),
(49,471,o),
(49,438,cs),
(49,405,o),
(75,379,o),
(108,379,cs),
(141,379,o),
(168,405,o),
(168,438,cs)
);
},
{
closed = 1;
nodes = (
(168,83,o),
(141,110,o),
(108,110,cs),
(75,110,o),
(49,83,o),
(49,50,cs),
(49,17,o),
(75,-9,o),
(108,-9,cs),
(141,-9,o),
(168,17,o),
(168,50,cs)
);
}
);
};
layerId = "4EF47A43-EA9F-416F-884D-AC541148DC09";
name = Bold;
shapes = (
{
pos = (7,6);
ref = period;
},
{
pos = (7,396);
ref = period;
}
);
width = 201;
},
{
layerId = "2CB5E1B6-8A79-4562-81B9-46C99CEA2FC9";
shapes = (
{
pos = (4,3);
ref = period;
},
{
pos = (4,377);
ref = period;
}
);
width = 290;
},
{
layerId = "1881FB1F-FF0F-4B67-AF41-4B555E01DE13";
shapes = (
{
alignment = -1;
pos = (1,3);
ref = period;
},
{
alignment = -1;
pos = (1,400);
ref = period;
}
);
width = 243;
}
);
metricRight = "=|";
unicode = 58;
}
{
glyphname = equal;
kernLeft = math;
kernRight = math;
layers = (
{
layerId = m01;
shapes = (
{
pos = (0,80);
ref = minus;
},
{
pos = (0,-70);
ref = minus;
}
);
width = 573;
},
{
associatedMasterId = m01;
layerId = "4EF47A43-EA9F-416F-884D-AC541148DC09";
name = Bold;
shapes = (
{
closed = 1;
nodes = (
(84,362,l),
(84,298,l),
(504,298,l),
(504,362,l)
);
},
{
closed = 1;
nodes = (
(84,202,l),
(84,138,l),
(504,138,l),
(504,202,l)
);
}
);
width = 586;
},
{
layerId = "2CB5E1B6-8A79-4562-81B9-46C99CEA2FC9";
shapes = (
{
pos = (0,93);
ref = minus;
},
{
pos = (0,-85);
ref = minus;
}
);
width = 605;
},
{
layerId = "1881FB1F-FF0F-4B67-AF41-4B555E01DE13";
shapes = (
{
alignment = -1;
pos = (0,85);
ref = minus;
},
{
alignment = -1;
pos = (0,-76);
ref = minus;
}
);
width = 585;
}
);
unicode = 61;
}
{
glyphname = greater;
layers = (
{
layerId = m01;
shapes = (
{
closed = 1;
nodes = (
(63,548,l),
(63,501,l),
(447,321,l),
(63,140,l),
(63,93,l),
(532,313,l),
(532,329,l)
);
}
);
width = 573;
},
{
associatedMasterId = m01;
layerId = "4EF47A43-EA9F-416F-884D-AC541148DC09";
name = Bold;
shapes = (
{
closed = 1;
nodes = (
(55,496,l),
(55,423,l),
(319,251,l),
(55,78,l),
(55,5,l),
(414,240,l),
(414,262,l)
);
}
);
width = 452;
},
{
layerId = "2CB5E1B6-8A79-4562-81B9-46C99CEA2FC9";
shapes = (
{
closed = 1;
nodes = (
(40,548,l),
(40,481,l),
(389,321,l),
(40,160,l),
(40,93,l),
(509,312,l),
(509,330,l)
);
}
);
width = 555;
},
{
layerId = "1881FB1F-FF0F-4B67-AF41-4B555E01DE13";
shapes = (
{
closed = 1;
nodes = (
(69,548,l),
(69,494,l),
(440,321,l),
(69,148,l),
(69,93,l),
(538,313,l),
(538,329,l)
);
}
);
width = 585;
}
);
unicode = 62;
}
{
glyphname = question;
layers = (
{
guides = (
{
pos = (184,145);
}
);
layerId = m01;
shapes = (
{
closed = 1;
nodes = (
(40,654,l),
(90,694,o),
(143,724,o),
(221,724,cs),
(310,724,o),
(412,684,o),
(412,558,cs),
(412,434,o),
(310,397,o),
(248,335,cs),
(212,299,o),
(199,266,o),
(199,214,cs),
(199,195,o),
(201,178,o),
(204,165,c),
(182,165,l),
(177,175,o),
(172,196,o),
(172,233,cs),
(172,311,o),
(208,356,o),
(247,395,cs),
(290,440,o),
(338,481,o),
(338,569,cs),
(338,653,o),
(293,703,o),
(217,703,cs),
(133,703,o),
(81,643,o),
(91,507,c),
(76,507,l)
);
},
{
pos = (94,0);
ref = period;
}
);
width = 462;
},
{
associatedMasterId = m01;
background = {
shapes = (
{
closed = 1;
nodes = (
(-12,185,l),
(-12,352,l),
(-5,345,o),
(16,325,o),
(60,325,cs),
(133,325,o),
(192,390,o),
(192,476,cs),
(192,531,o),
(160,656,o),
(22,656,cs),
(-46,656,o),
(-107,624,o),
(-107,587,cs),
(-107,572,o),
(-98,562,o),
(-84,562,cs),
(-64,562,o),
(-57,578,o),
(-53,587,cs),
(-43,608,o),
(-30,635,o),
(17,635,cs),
(94,635,o),
(117,562,o),
(117,501,cs),
(117,408,o),
(91,354,o),
(41,354,cs),
(17,354,o),
(0,372,o),
(-12,391,c),
(-34,391,l),
(-34,185,l)
);
},
{
closed = 1;
nodes = (
(33,66,o),
(9,89,o),
(-19,89,cs),
(-48,89,o),
(-72,67,o),
(-72,37,cs),
(-72,8,o),
(-48,-15,o),
(-19,-15,cs),
(10,-15,o),
(33,8,o),
(33,37,cs)
);
}
);
};
layerId = "5F44AE8D-455F-4685-A1AD-E2BCE04A3ED7";
name = "Jan 8 19, 16:19";
shapes = (
{
closed = 1;
nodes = (
(161,-5,o),
(146,3,o),
(136,16,cs),
(129,25,o),
(126,35,o),
(126,47,cs),
(126,61,o),
(132,74,o),
(141,83,cs),
(151,93,o),
(164,98,o),
(178,98,cs),
(192,98,o),
(205,92,o),
(214,83,cs),
(224,73,o),
(229,61,o),
(229,47,cs),
(229,33,o),
(224,20,o),
(215,11,cs),
(205,1,o),
(192,-5,o),
(178,-5,cs)
);
},
{
closed = 1;
nodes = (
(19,654,l),
(69,694,o),
(102,724,o),
(202,724,cs),
(289,724,o),
(391,664,o),
(391,564,cs),
(391,452,o),
(259,368,o),
(208,309,cs),
(160,254,o),
(176,193,o),
(202,140,c),
(187,133,l),
(153,182,o),
(121,269,o),
(179,337,cs),
(225,391,o),
(318,445,o),
(318,548,cs),
(318,630,o),
(258,703,o),
(177,703,cs),
(92,703,o),
(64,643,o),
(60,513,c),
(45,513,l)
);
}
);
width = 432;
},
{
associatedMasterId = m01;
background = {
shapes = (
{
closed = 1;
nodes = (
(-12,185,l),
(-12,352,l),
(-5,345,o),
(16,325,o),
(60,325,cs),
(133,325,o),
(192,390,o),
(192,476,cs),
(192,531,o),
(160,656,o),
(22,656,cs),
(-46,656,o),
(-107,624,o),
(-107,587,cs),
(-107,572,o),
(-98,562,o),
(-84,562,cs),
(-64,562,o),
(-57,578,o),
(-53,587,cs),
(-43,608,o),
(-30,635,o),
(17,635,cs),
(94,635,o),
(117,562,o),
(117,501,cs),
(117,408,o),
(91,354,o),
(41,354,cs),
(17,354,o),
(0,372,o),
(-12,391,c),
(-34,391,l),
(-34,185,l)
);
},
{
closed = 1;
nodes = (
(33,66,o),
(9,89,o),
(-19,89,cs),
(-48,89,o),
(-72,67,o),
(-72,37,cs),
(-72,8,o),
(-48,-15,o),
(-19,-15,cs),
(10,-15,o),
(33,8,o),
(33,37,cs)
);
}
);
};
layerId = "25503E16-481C-484D-B803-17FF6AF2A7BE";
name = "Jan 8 19, 16:21";
shapes = (
{
closed = 1;
nodes = (
(30,654,l),
(80,694,o),
(113,724,o),
(213,724,cs),
(300,724,o),
(402,664,o),
(402,564,cs),
(402,482,o),
(349,409,o),
(205,294,c),
(189,135,l),
(168,135,l),
(155,282,l),
(211,356,o),
(327,436,o),
(327,548,cs),
(327,630,o),
(263,703,o),
(188,703,cs),
(103,703,o),
(71,656,o),
(71,523,c),
(56,523,l)
);
},
{
closed = 1;
nodes = (
(161,-5,o),
(146,3,o),
(136,16,cs),
(129,25,o),
(126,35,o),
(126,47,cs),
(126,61,o),
(132,74,o),
(141,83,cs),
(151,93,o),
(164,98,o),
(178,98,cs),
(192,98,o),
(205,92,o),
(214,83,cs),
(224,73,o),
(229,61,o),
(229,47,cs),
(229,33,o),
(224,20,o),
(215,11,cs),
(205,1,o),
(192,-5,o),
(178,-5,cs)
);
}
);
width = 432;
},
{
associatedMasterId = m01;
layerId = "4EF47A43-EA9F-416F-884D-AC541148DC09";
name = Bold;
shapes = (
{
closed = 1;
nodes = (
(77,686,l),
(214,727,l),
(379,690,l),
(464,534,l),
(398,394,l),
(279,335,l),
(239,144,l),
(207,144,l),
(175,321,l),
(332,478,l),
(334,592,l),
(245,674,l),
(156,646,l),
(98,472,l),
(83,472,l),
(30,607,l)
);
},
{
pos = (120,-10);
ref = period;
}
);
width = 494;
},
{
layerId = "2CB5E1B6-8A79-4562-81B9-46C99CEA2FC9";
shapes = (
{
closed = 1;
nodes = (
(60,656,l),
(121,696,o),
(184,726,o),
(272,726,cs),
(361,726,o),
(499,676,o),
(499,558,cs),
(499,436,o),
(378,380,o),
(317,335,cs),
(262,294,o),
(246,265,o),
(246,220,cs),
(246,209,o),
(247,197,o),
(250,184,c),
(217,184,l),
(206,217,o),
(202,238,o),
(202,259,cs),
(202,311,o),
(221,347,o),
(279,406,cs),
(344,473,o),
(359,513,o),
(359,571,cs),
(359,652,o),
(321,689,o),
(262,689,cs),
(171,689,o),
(140,609,o),
(132,473,c),
(108,473,l)
);
},
{
pos = (100,0);
ref = period;
}
);
width = 549;
},
{
layerId = "1881FB1F-FF0F-4B67-AF41-4B555E01DE13";
shapes = (
{
closed = 1;
nodes = (
(48,655,l),
(102,695,o),
(159,725,o),
(241,725,cs),
(330,725,o),
(445,681,o),
(445,558,cs),
(445,435,o),
(336,391,o),
(275,335,cs),
(231,297,o),
(218,265,o),
(218,221,cs),
(218,201,o),
(219,192,o),
(222,175,c),
(195,175,l),
(188,197,o),
(184,212,o),
(184,243,cs),
(184,311,o),
(214,353,o),
(260,399,cs),
(311,452,o),
(347,493,o),
(347,570,cs),
(347,653,o),
(304,698,o),
(235,698,cs),
(148,698,o),
(104,630,o),
(107,494,c),
(89,494,l)
);
},
{
alignment = -1;
pos = (97,0);
ref = period;
}
);
width = 495;
}
);
metricRight = "=+50";
unicode = 63;
}
{
glyphname = at;
layers = (
{
layerId = m01;
shapes = (
{
closed = 1;
nodes = (
(406,145,o),
(370,121,o),
(349,121,cs),
(307,121,o),
(278,164,o),
(278,231,cs),
(278,325,o),
(328,392,o),
(391,392,cs),
(419,392,o),
(448,380,o),
(471,355,c),
(438,141,ls),
(431,98,o),
(445,65,o),
(502,65,cs),
(580,65,o),
(714,118,o),
(714,292,cs),
(714,459,o),
(570,571,o),
(411,571,cs),
(244,571,o),
(50,463,o),
(50,238,cs),
(50,13,o),
(235,-74,o),
(408,-74,cs),
(485,-74,o),
(540,-54,o),
(585,-30,c),
(575,-9,l),
(532,-27,o),
(486,-41,o),
(422,-41,cs),
(249,-41,o),
(113,61,o),
(113,253,cs),
(113,399,o),
(206,536,o),
(391,536,cs),
(543,536,o),
(658,429,o),
(658,277,cs),
(658,140,o),
(571,94,o),
(520,94,cs),
(491,94,o),
(484,112,o),
(488,139,cs),
(530,423,l),
(521,423,l),
(496,401,l),
(480,413,o),
(447,423,o),
(408,423,cs),
(318,423,o),
(219,326,o),
(219,208,cs),
(219,126,o),
(273,72,o),
(329,72,cs),
(370,72,o),
(426,139,o),
(456,183,c),
(459,219,l)
);
}
);
width = 764;
},
{
associatedMasterId = m01;
layerId = "55215D1E-51C5-4B46-9B03-72BB1ACD7BF7";
name = "Jan 11 19, 17:34";
shapes = (
{
closed = 1;
nodes = (
(556,264,l),
(622,412,l),
(589,418,l),
(557,383,l),
(535,437,o),
(499,475,o),
(419,475,cs),
(313,475,o),
(199,329,o),
(199,191,cs),
(199,112,o),
(258,52,o),
(358,32,cs),
(502,233,l),
(472,46,l),
(512,13,l),
(599,32,o),
(730,146,o),
(730,301,cs),
(730,499,o),
(604,599,o),
(423,599,cs),
(239,599,o),
(35,475,o),
(35,242,cs),
(35,0,o),
(219,-97,o),
(417,-97,cs),
(508,-97,o),
(559,-75,o),
(606,-49,c),
(599,-37,l),
(554,-56,o),
(525,-72,o),
(410,-72,cs),
(240,-72,o),
(85,61,o),
(87,260,cs),
(89,412,o),
(175,567,o),
(392,567,cs),
(579,567,o),
(685,458,o),
(685,266,cs),
(685,141,o),
(586,53,o),
(534,43,c)
);
},
{
closed = 1;
nodes = (
(369,84,l),
(341,84,o),
(257,111,o),
(257,239,cs),
(257,316,o),
(301,448,o),
(400,448,cs),
(454,448,o),
(497,398,o),
(512,316,c)
);
}
);
width = 765;
},
{
associatedMasterId = m01;
layerId = "4EF47A43-EA9F-416F-884D-AC541148DC09";
name = Bold;
shapes = (
{
closed = 1;
nodes = (
(683,276,l),
(750,496,l),
(705,504,l),
(672,467,l),
(581,532,l),
(451,561,l),
(278,456,l),
(217,200,l),
(315,38,l),
(436,18,l),
(603,273,l),
(567,45,l),
(620,4,l),
(767,34,l),
(942,323,l),
(870,567,l),
(558,731,l),
(203,638,l),
(30,324,l),
(128,-9,l),
(441,-168,l),
(760,-92,l),
(756,-74,l),
(408,-99,l),
(157,71,l),
(109,383,l),
(287,640,l),
(592,680,l),
(858,494,l),
(879,292,l),
(766,102,l),
(666,59,l)
);
},
{
closed = 1;
nodes = (
(437,108,l),
(364,134,l),
(322,265,l),
(351,405,l),
(428,507,l),
(529,505,l),
(606,366,l)
);
}
);
width = 972;
},
{
associatedMasterId = m01;
layerId = "534E16DF-9566-4651-878F-8799F51A8686";
name = "Sep 13 20, 17:30";
shapes = (
{
closed = 1;
nodes = (
(541,288,l),
(595,447,l),
(577,453,l),
(550,424,l),
(527,481,o),
(482,514,o),
(420,514,cs),
(278,514,o),
(174,358,o),
(174,218,cs),
(174,75,o),
(295,26,o),
(376,26,c),
(504,299,l),
(461,32,l),
(504,10,l),
(597,31,o),
(747,162,o),
(747,328,cs),
(747,529,o),
(613,646,o),
(419,646,cs),
(223,646,o),
(5,514,o),
(5,265,cs),
(5,7,o),
(201,-97,o),
(413,-97,cs),
(510,-97,o),
(565,-74,o),
(615,-46,c),
(607,-33,l),
(559,-53,o),
(528,-70,o),
(405,-70,cs),
(224,-70,o),
(58,72,o),
(61,284,cs),
(63,447,o),
(154,612,o),
(386,612,cs),
(586,612,o),
(699,496,o),
(699,321,cs),
(699,157,o),
(583,53,o),
(528,42,c)
);
},
{
closed = 1;
nodes = (
(373,86,l),
(284,86,o),
(236,177,o),
(236,261,cs),
(236,344,o),
(274,485,o),
(386,485,cs),
(443,485,o),
(492,446,o),
(508,358,c)
);
}
);
width = 765;
},
{
associatedMasterId = m01;
layerId = "B24FD283-231B-46EE-BD8E-75E732247B3E";
name = "Sep 5 21, 19:02";
shapes = (
{
closed = 1;
nodes = (
(5,7,o),
(201,-97,o),
(413,-97,cs),
(510,-97,o),
(565,-74,o),
(615,-46,c),
(607,-33,l),
(559,-53,o),
(528,-70,o),
(405,-70,cs),
(224,-70,o),
(78,72,o),
(81,274,cs),
(83,447,o),
(184,613,o),
(396,613,cs),
(586,613,o),
(699,496,o),
(699,307,cs),
(699,157,o),
(592,75,o),
(540,75,cs),
(425,75,o),
(502,229,o),
(584,498,c),
(559,498,l),
(531,469,l),
(501,493,o),
(464,504,o),
(426,504,cs),
(282,504,o),
(180,330,o),
(180,198,cs),
(180,101,o),
(220,49,o),
(293,49,cs),
(338,49,o),
(388,90,o),
(430,157,c),
(425,114,o),
(436,34,o),
(508,34,cs),
(599,34,o),
(747,132,o),
(747,328,cs),
(747,529,o),
(613,646,o),
(419,646,cs),
(223,646,o),
(5,514,o),
(5,265,cs)
);
},
{
closed = 1;
nodes = (
(258,308,o),
(331,469,o),
(426,469,cs),
(458,469,o),
(487,444,o),
(497,418,c),
(487,308,o),
(389,97,o),
(322,97,cs),
(284,97,o),
(258,141,o),
(258,220,cs)
);
}
);
width = 765;
},
{
layerId = "2CB5E1B6-8A79-4562-81B9-46C99CEA2FC9";
shapes = (
{
closed = 1;
nodes = (
(421,177,o),
(393,144,o),
(376,144,cs),
(350,144,o),
(327,182,o),
(327,243,cs),
(327,339,o),
(367,387,o),
(414,387,cs),
(440,387,o),
(461,374,o),
(482,352,c),
(450,156,ls),
(442,105,o),
(464,62,o),
(538,62,cs),
(615,62,o),
(765,116,o),
(765,299,cs),
(765,465,o),
(626,594,o),
(425,593,cs),
(225,592,o),
(53,450,o),
(53,242,cs),
(53,35,o),
(214,-93,o),
(423,-93,cs),
(526,-93,o),
(590,-68,o),
(648,-28,c),
(628,10,l),
(574,-18,o),
(526,-31,o),
(445,-31,cs),
(268,-31,o),
(148,80,o),
(148,251,cs),
(148,385,o),
(234,540,o),
(415,541,cs),
(578,542,o),
(676,427,o),
(676,294,cs),
(676,175,o),
(603,116,o),
(552,116,cs),
(522,116,o),
(524,138,o),
(529,172,cs),
(569,436,l),
(532,436,l),
(511,410,l),
(497,416,o),
(466,430,o),
(436,430,cs),
(336,430,o),
(237,336,o),
(237,221,cs),
(237,145,o),
(289,78,o),
(351,78,cs),
(382,78,o),
(440,143,o),
(468,184,c),
(470,237,l)
);
}
);
width = 815;
},
{
associatedMasterId = m01;
layerId = "1ABBF739-991D-42A4-BB30-735679ED40B4";
name = "29 gen 22, 14:15";
shapes = (
{
closed = 1;
nodes = (
(541,157,o),
(492,106,o),
(459,106,cs),
(389,106,o),
(341,171,o),
(341,279,cs),
(341,398,o),
(429,501,o),
(515,501,cs),
(554,501,o),
(594,482,o),
(626,444,c),
(579,132,ls),
(570,72,o),
(585,30,o),
(666,30,cs),
(768,30,o),
(937,120,o),
(937,349,cs),
(937,570,o),
(771,714,o),
(549,714,cs),
(317,714,o),
(70,562,o),
(70,267,cs),
(70,-28,o),
(291,-155,o),
(542,-155,cs),
(654,-155,o),
(722,-128,o),
(781,-95,c),
(772,-78,l),
(715,-103,o),
(673,-123,o),
(554,-123,cs),
(311,-123,o),
(143,35,o),
(143,274,cs),
(143,478,o),
(267,675,o),
(522,675,cs),
(736,675,o),
(879,531,o),
(879,329,cs),
(879,149,o),
(762,58,o),
(685,58,cs),
(639,58,o),
(634,81,o),
(639,119,cs),
(698,533,l),
(677,533,l),
(655,495,l),
(633,511,o),
(592,533,o),
(539,533,cs),
(418,533,o),
(278,406,o),
(278,242,cs),
(278,135,o),
(334,55,o),
(431,55,cs),
(479,55,o),
(565,137,o),
(607,212,c),
(615,259,l)
);
}
);
width = 1007;
},
{
layerId = "1881FB1F-FF0F-4B67-AF41-4B555E01DE13";
shapes = (
{
closed = 1;
nodes = (
(412,157,o),
(379,130,o),
(359,130,cs),
(323,130,o),
(296,171,o),
(296,236,cs),
(296,330,o),
(343,390,o),
(400,390,cs),
(427,390,o),
(453,378,o),
(475,354,c),
(443,147,ls),
(435,101,o),
(452,64,o),
(516,64,cs),
(593,64,o),
(733,117,o),
(733,295,cs),
(733,461,o),
(591,580,o),
(416,579,cs),
(237,579,o),
(51,458,o),
(51,240,cs),
(51,21,o),
(227,-81,o),
(414,-81,cs),
(500,-81,o),
(559,-59,o),
(609,-29,c),
(595,-2,l),
(548,-24,o),
(501,-37,o),
(431,-37,cs),
(256,-37,o),
(126,68,o),
(126,252,cs),
(126,394,o),
(217,538,o),
(400,538,cs),
(556,538,o),
(665,428,o),
(665,283,cs),
(665,153,o),
(583,102,o),
(532,102,cs),
(503,102,o),
(499,122,o),
(503,151,cs),
(545,428,l),
(525,428,l),
(502,404,l),
(486,414,o),
(454,426,o),
(419,426,cs),
(325,426,o),
(226,330,o),
(226,213,cs),
(226,133,o),
(279,74,o),
(337,74,cs),
(375,74,o),
(431,141,o),
(461,183,c),
(463,226,l)
);
}
);
width = 783.125;
}
);
unicode = 64;
}
{
glyphname = A;
kernLeft = A;
kernRight = A;
layers = (
{
anchors = (
{
name = bottom;
pos = (351,0);
},
{
name = ogonek;
pos = (647,10);
},
{
name = top;
pos = (325,700);
}
);
associatedMasterId = m01;
layerId = "4EF47A43-EA9F-416F-884D-AC541148DC09";
name = Bold;
shapes = (
{
closed = 1;
nodes = (
(687,3,l),
(395,700,l),
(287,700,l),
(-12,0,l),
(57,0,l),
(294,553,l),
(523,3,l)
);
},
{
closed = 1;
nodes = (
(163,255,l),
(433,255,l),
(433,310,l),
(163,310,l)
);
},
{
closed = 1;
nodes = (
(458,25,l),
(394,22,l),
(394,0,l),
(754,0,l),
(754,22,l),
(690,25,l),
(659,70,l),
(495,70,l)
);
},
{
closed = 1;
nodes = (
(-13,25,l),
(-67,22,l),
(-67,0,l),
(183,0,l),
(183,22,l),
(119,25,l),
(119,158,l),
(18,70,l)
);
},
{
closed = 1;
nodes = (
(412,630,l),
(380,700,l),
(185,700,l),
(185,678,l),
(237,675,l),
(262,630,l)
);
}
);
width = 704;
},
{
anchors = (
{
name = bottom;
pos = (352,0);
},
{
name = ogonek;
pos = (733,3);
},
{
name = top;
pos = (352,700);
}
);
associatedMasterId = m01;
layerId = "98FA152D-C81C-4254-A444-483B9EBDEF80";
name = "Sep 7 21, 15:11";
shapes = (
{
closed = 1;
nodes = (
(475,310,l),
(475,280,l),
(182,280,l),
(182,310,l)
);
},
{
closed = 1;
nodes = (
(-48,14,l),
(17,16,o),
(58,27,o),
(77,79,cs),
(286,644,ls),
(303,690,o),
(296,686,o),
(189,686,c),
(189,700,l),
(491,700,l),
(491,686,l),
(373,684,o),
(373,691,o),
(393,645,cs),
(645,54,ls),
(662,15,o),
(708,16,o),
(760,14,c),
(760,0,l),
(462,0,l),
(462,14,l),
(567,14,o),
(579,19,o),
(560,65,cs),
(321,633,l),
(110,58,ls),
(93,11,o),
(137,16,o),
(203,14,c),
(203,0,l),
(-48,0,l)
);
}
);
width = 703;
},
{
anchors = (
{
name = bottom;
pos = (350,0);
},
{
name = ogonek;
pos = (641,3);
},
{
name = top;
pos = (332,713);
}
);
layerId = m01;
shapes = (
{
closed = 1;
nodes = (
(180,280,l),
(473,280,l),
(473,310,l),
(180,310,l)
);
},
{
closed = 1;
nodes = (
(558,65,ls),
(577,19,o),
(563,14,o),
(458,14,c),
(458,0,l),
(760,0,l),
(760,14,l),
(708,16,o),
(662,15,o),
(645,54,cs),
(372,700,l),
(185,700,l),
(185,686,l),
(292,686,o),
(300,683,o),
(321,633,cs)
);
},
{
closed = 1;
nodes = (
(75,79,ls),
(53,28,o),
(15,16,o),
(-50,14,c),
(-50,0,l),
(201,0,l),
(201,14,l),
(135,16,o),
(88,12,o),
(108,58,cs),
(357,627,l),
(324,644,l)
);
}
);
width = 715;
},
{
anchors = (
{
name = bottom;
pos = (390,0);
},
{
name = ogonek;
pos = (680,0);
},
{
name = top;
pos = (376,720);
}
);
layerId = "2CB5E1B6-8A79-4562-81B9-46C99CEA2FC9";
shapes = (
{
closed = 1;
nodes = (
(179,266,l),
(529,266,l),
(529,308,l),
(179,308,l)
);
},
{
closed = 1;
nodes = (
(547,79,ls),
(551,69,o),
(554,60,o),
(554,54,cs),
(554,31,o),
(525,27,o),
(443,27,c),
(443,0,l),
(811,0,l),
(811,27,l),
(769,29,o),
(722,29,o),
(706,68,cs),
(443,705,l),
(180,705,l),
(180,677,l),
(287,677,o),
(300,677,o),
(318,634,cs)
);
},
{
closed = 1;
nodes = (
(80,92,ls),
(59,41,o),
(20,29,o),
(-45,27,c),
(-45,0,l),
(218,0,l),
(218,27,l),
(162,29,o),
(118,26,o),
(118,54,cs),
(118,58,o),
(119,64,o),
(122,71,cs),
(354,635,l),
(317,665,l)
);
}
);
width = 780;
},
{
anchors = (
{
name = bottom;
pos = (365,0);
},
{
name = ogonek;
pos = (656,2);
},
{
name = top;
pos = (346,716);
}
);
layerId = "1881FB1F-FF0F-4B67-AF41-4B555E01DE13";
shapes = (
{
closed = 1;
nodes = (
(180,275,l),
(494,275,l),
(494,309,l),
(180,309,l)
);
},
{
closed = 1;
nodes = (
(554,70,ls),
(573,24,o),
(557,19,o),
(452,19,c),
(452,0,l),
(779,0,l),
(779,19,l),
(731,21,o),
(685,20,o),
(668,59,cs),
(399,702,l),
(183,702,l),
(183,683,l),
(290,683,o),
(300,681,o),
(320,633,cs)
);
},
{
closed = 1;
nodes = (
(77,84,ls),
(55,33,o),
(17,21,o),
(-48,19,c),
(-48,0,l),
(207,0,l),
(207,19,l),
(141,21,o),
(94,17,o),
(113,63,cs),
(356,630,l),
(321,652,l)
);
}
);
width = 739.375;
}
);
unicode = 65;
}
{
glyphname = B;
kernLeft = H;
layers = (
{
layerId = m01;
metricLeft = "=H";
shapes = (
{
closed = 1;
nodes = (
(353,0,ls),
(511,0,o),
(579,94,o),
(579,186,cs),
(579,308,o),
(476,363,o),
(382,380,c),
(446,395,o),
(542,440,o),
(542,542,cs),
(542,656,o),
(439,700,o),
(336,700,cs),
(22,700,l),
(22,686,l),
(97,683,o),
(126,689,o),
(126,646,cs),
(126,55,ls),
(126,12,o),
(97,17,o),
(22,14,c),
(22,0,l)
);
},
{
closed = 1;
nodes = (
(205,365,l),
(306,365,ls),
(450,365,o),
(500,257,o),
(500,186,cs),
(500,113,o),
(461,24,o),
(345,24,cs),
(205,24,l)
);
},
{
closed = 1;
nodes = (
(205,678,l),
(278,678,ls),
(413,678,o),
(468,608,o),
(468,523,cs),
(468,427,o),
(391,389,o),
(309,389,cs),
(205,389,l)
);
}
);
width = 626;
},
{
associatedMasterId = m01;
layerId = "1F185FF8-A08D-4DD0-9291-AAC6E55900C4";
name = "Oct 6 18, 18:25";
shapes = (
{
closed = 1;
nodes = (
(125,0,l),
(200,0,l),
(200,700,l),
(125,700,l)
);
},
{
closed = 1;
nodes = (
(167,656,l),
(167,700,l),
(30,700,l),
(30,685,l),
(92,675,l),
(125,656,l)
);
},
{
closed = 1;
nodes = (
(92,25,l),
(39,15,l),
(39,0,l),
(170,0,l),
(170,45,l),
(125,45,l)
);
},
{
closed = 1;
nodes = (
(248,666,o),
(297,674,o),
(322,673,cs),
(402,670,o),
(457,592,o),
(457,506,cs),
(457,445,o),
(429,373,o),
(351,375,c),
(200,387,l),
(201,633,l),
(224,661,l)
);
},
{
closed = 1;
nodes = (
(327,346,l),
(456,316,o),
(486,261,o),
(486,177,cs),
(486,91,o),
(437,33,o),
(366,27,cs),
(332,24,o),
(223,33,o),
(223,39,c),
(200,67,l),
(201,358,l)
);
},
{
closed = 1;
nodes = (
(335,0,ls),
(468,0,o),
(557,80,o),
(557,198,cs),
(557,268,o),
(497,329,o),
(395,358,c),
(449,373,o),
(529,430,o),
(529,537,cs),
(529,628,o),
(427,700,o),
(336,700,cs),
(167,700,l),
(166,0,l)
);
}
);
width = 577;
},
{
associatedMasterId = m01;
layerId = "E1020819-25DF-4F6F-A18B-92EA18A4A9D7";
name = "Oct 6 18, 18:54";
shapes = (
{
closed = 1;
nodes = (
(101,0,l),
(176,0,l),
(176,700,l),
(101,700,l)
);
},
{
closed = 1;
nodes = (
(143,656,l),
(143,700,l),
(6,700,l),
(6,685,l),
(68,675,l),
(101,656,l)
);
},
{
closed = 1;
nodes = (
(68,25,l),
(15,15,l),
(15,0,l),
(146,0,l),
(146,45,l),
(101,45,l)
);
},
{
closed = 1;
nodes = (
(259,676,l),
(277,678,o),
(301,678,o),
(319,676,cs),
(401,667,o),
(460,590,o),
(460,505,cs),
(460,446,o),
(426,380,o),
(351,381,c),
(176,393,l),
(177,653,l)
);
},
{
closed = 1;
nodes = (
(327,352,l),
(441,325,o),
(486,267,o),
(486,166,cs),
(486,101,o),
(434,40,o),
(366,29,cs),
(306,19,o),
(257,20,o),
(176,44,c),
(177,364,l)
);
},
{
closed = 1;
nodes = (
(326,0,ls),
(464,0,o),
(557,82,o),
(557,198,cs),
(557,281,o),
(479,346,o),
(395,364,cs),
(449,379,o),
(529,430,o),
(529,537,cs),
(529,632,o),
(422,700,o),
(329,700,cs),
(143,700,l),
(142,0,l)
);
}
);
width = 577;
},
{
anchors = (
{
name = bottom;
pos = (342,0);
},
{
name = top;
pos = (342,700);
}
);
associatedMasterId = m01;
layerId = "4EF47A43-EA9F-416F-884D-AC541148DC09";
name = Bold;
shapes = (
{
closed = 1;
nodes = (
(98,0,l),
(248,0,l),
(248,700,l),
(98,700,l)
);
},
{
closed = 1;
nodes = (
(191,0,l),
(469,0,l),
(609,76,l),
(648,188,l),
(573,319,l),
(441,366,l),
(566,399,l),
(614,529,l),
(568,648,l),
(468,700,l),
(194,700,l)
);
},
{
closed = 1;
nodes = (
(400,647,l),
(454,582,l),
(462,455,l),
(385,381,l),
(248,381,l),
(248,635,l),
(279,665,l)
);
},
{
closed = 1;
nodes = (
(248,65,l),
(248,346,l),
(425,317,l),
(478,240,l),
(488,124,l),
(420,35,l),
(279,35,l)
);
},
{
closed = 1;
nodes = (
(65,25,l),
(21,22,l),
(21,0,l),
(312,0,l),
(312,22,l),
(268,25,l),
(235,70,l),
(98,70,l)
);
},
{
closed = 1;
nodes = (
(235,630,l),
(268,675,l),
(312,678,l),
(312,700,l),
(21,700,l),
(21,678,l),
(65,675,l),
(98,630,l)
);
}
);
width = 683;
},
{
layerId = "2CB5E1B6-8A79-4562-81B9-46C99CEA2FC9";
shapes = (
{
closed = 1;
nodes = (
(417,0,ls),
(575,0,o),
(663,84,o),
(663,186,cs),
(663,318,o),
(549,373,o),
(455,383,c),
(539,391,o),
(626,436,o),
(626,545,cs),
(626,661,o),
(513,705,o),
(400,705,cs),
(25,705,l),
(25,678,l),
(100,675,o),
(129,681,o),
(129,638,cs),
(129,68,ls),
(129,25,o),
(100,30,o),
(25,27,c),
(25,0,l)
);
},
{
closed = 1;
nodes = (
(272,363,l),
(341,363,ls),
(466,363,o),
(512,280,o),
(512,197,cs),
(512,113,o),
(454,32,o),
(356,32,cs),
(272,32,l)
);
},
{
closed = 1;
nodes = (
(272,673,l),
(341,673,ls),
(447,673,o),
(490,622,o),
(490,540,cs),
(490,434,o),
(413,396,o),
(341,396,cs),
(272,396,l)
);
}
);
width = 713;
},
{
layerId = "1881FB1F-FF0F-4B67-AF41-4B555E01DE13";
shapes = (
{
closed = 1;
nodes = (
(377,0,ls),
(535,0,o),
(611,90,o),
(611,186,cs),
(611,312,o),
(503,367,o),
(409,381,c),
(481,394,o),
(574,439,o),
(574,543,cs),
(574,658,o),
(467,702,o),
(360,702,cs),
(23,702,l),
(23,683,l),
(98,680,o),
(127,686,o),
(127,643,cs),
(127,60,ls),
(127,17,o),
(98,22,o),
(23,19,c),
(23,0,l)
);
},
{
closed = 1;
nodes = (
(230,364,l),
(319,364,ls),
(456,364,o),
(505,266,o),
(505,190,cs),
(505,113,o),
(458,27,o),
(349,27,cs),
(230,27,l)
);
},
{
closed = 1;
nodes = (
(230,676,l),
(302,676,ls),
(426,676,o),
(476,613,o),
(476,529,cs),
(476,430,o),
(399,392,o),
(321,392,cs),
(230,392,l)
);
}
);
width = 658.625;
}
);
metricLeft = H;
unicode = 66;
}
{
glyphname = C;
kernLeft = O;
kernRight = C;
layers = (
{
anchors = (
{
name = bottom;
pos = (371,0);
},
{
name = top;
pos = (351,713);
}
);
layerId = m01;
metricLeft = "=O";
metricRight = "=O";
shapes = (
{
closed = 1;
nodes = (
(556,687,o),
(486,713,o),
(391,713,cs),
(156,713,o),
(45,536,o),
(45,340,cs),
(45,162,o),
(162,-11,o),
(374,-11,cs),
(549,-11,o),
(636,129,o),
(657,240,c),
(635,240,l),
(604,142,o),
(544,44,o),
(410,44,cs),
(243,44,o),
(127,187,o),
(127,390,cs),
(127,509,o),
(184,688,o),
(385,688,cs),
(525,688,o),
(585,583,o),
(611,467,c),
(628,467,l),
(630,647,l)
);
}
);
width = 702;
},
{
associatedMasterId = m01;
layerId = "D5A60874-D3F0-45BE-A30B-0A5D4030C91E";
name = "Oct 1 18, 21:53";
shapes = (
{
closed = 1;
nodes = (
(564,421,l),
(562,421,l),
(547,585,o),
(453,692,o),
(304,663,cs),
(170,636,o),
(126,493,o),
(126,342,cs),
(126,186,o),
(234,56,o),
(385,56,cs),
(483,56,o),
(544,76,o),
(627,129,c),
(642,118,l),
(567,30,o),
(473,-13,o),
(360,-13,cs),
(166,-13,o),
(37,123,o),
(37,329,cs),
(37,525,o),
(155,700,o),
(349,700,cs),
(486,700,o),
(605,638,o),
(654,524,c)
);
}
);
width = 654;
},
{
associatedMasterId = m01;
background = {
shapes = (
{
closed = 1;
nodes = (
(626,248,l),
(614,151,o),
(552,16,o),
(390,16,cs),
(274,16,o),
(157,103,o),
(157,323,cs),
(157,478,o),
(211,650,o),
(385,650,cs),
(470,650,o),
(597,607,o),
(626,411,c),
(646,411,l),
(641,662,l),
(619,662,l),
(617,642,o),
(611,611,o),
(594,576,c),
(570,606,o),
(493,674,o),
(369,674,cs),
(143,674,o),
(45,488,o),
(45,319,cs),
(45,116,o),
(184,-12,o),
(371,-12,cs),
(438,-12,o),
(523,4,o),
(594,87,c),
(610,66,o),
(620,42,o),
(626,17,c),
(646,17,l),
(646,248,l)
);
}
);
};
layerId = "FD9A230C-FEE9-4D93-B514-79FC70D65758";
name = "Oct 6 18, 20:21";
shapes = (
{
closed = 1;
nodes = (
(623,487,l),
(610,487,l),
(532,630,l),
(463,678,o),
(399,697,o),
(330,681,cs),
(192,650,o),
(132,500,o),
(132,348,cs),
(132,188,o),
(247,42,o),
(388,33,cs),
(439,30,o),
(483,39,o),
(529,53,c),
(624,220,l),
(641,220,l),
(616,52,l),
(501,-7,o),
(447,-12,o),
(354,-12,cs),
(191,-12,o),
(52,143,o),
(52,311,cs),
(52,532,o),
(170,713,o),
(368,713,cs),
(456,713,o),
(540,685,o),
(614,647,c)
);
}
);
width = 645;
},
{
associatedMasterId = m01;
background = {
shapes = (
{
closed = 1;
nodes = (
(614,248,l),
(602,151,o),
(540,16,o),
(378,16,cs),
(262,16,o),
(145,103,o),
(145,323,cs),
(145,478,o),
(199,650,o),
(373,650,cs),
(458,650,o),
(585,607,o),
(614,411,c),
(634,411,l),
(629,662,l),
(607,662,l),
(605,642,o),
(599,611,o),
(582,576,c),
(558,606,o),
(481,674,o),
(357,674,cs),
(131,674,o),
(33,488,o),
(33,319,cs),
(33,116,o),
(172,-12,o),
(359,-12,cs),
(426,-12,o),
(511,4,o),
(582,87,c),
(598,66,o),
(608,42,o),
(614,17,c),
(634,17,l),
(634,248,l)
);
}
);
};
layerId = "67B651F5-689E-4FDE-B03B-F0F796803CB6";
name = "Nov 7 18, 23:29";
shapes = (
{
closed = 1;
nodes = (
(611,487,l),
(598,487,l),
(546,591,o),
(516,685,o),
(346,685,cs),
(179,685,o),
(120,490,o),
(120,348,cs),
(120,188,o),
(235,34,o),
(376,34,cs),
(477,34,o),
(560,60,o),
(612,220,c),
(629,220,l),
(604,52,l),
(489,-7,o),
(435,-12,o),
(342,-12,cs),
(179,-12,o),
(40,143,o),
(40,311,cs),
(40,532,o),
(158,713,o),
(373,713,cs),
(444,713,o),
(528,685,o),
(602,647,c)
);
}
);
width = 667;
},
{
anchors = (
{
name = bottom;
pos = (324,0);
},
{
name = top;
pos = (324,700);
}
);
associatedMasterId = m01;
background = {
shapes = (
{
closed = 1;
nodes = (
(604,248,l),
(592,151,o),
(530,16,o),
(368,16,cs),
(252,16,o),
(135,103,o),
(135,323,cs),
(135,478,o),
(189,650,o),
(363,650,cs),
(448,650,o),
(575,607,o),
(604,411,c),
(624,411,l),
(619,662,l),
(597,662,l),
(595,642,o),
(589,611,o),
(572,576,c),
(548,606,o),
(471,674,o),
(347,674,cs),
(121,674,o),
(23,488,o),
(23,319,cs),
(23,116,o),
(162,-12,o),
(349,-12,cs),
(416,-12,o),
(501,4,o),
(572,87,c),
(588,66,o),
(598,42,o),
(604,17,c),
(624,17,l),
(624,248,l)
);
}
);
};
layerId = "F69498D1-2061-4CEE-89A4-75DD380A2D16";
name = "Jan 6 19, 17:08";
shapes = (
{
closed = 1;
nodes = (
(601,487,l),
(588,487,l),
(510,630,l),
(441,678,o),
(377,685,o),
(336,685,cs),
(169,685,o),
(110,490,o),
(110,348,cs),
(110,185,o),
(225,42,o),
(366,33,cs),
(417,30,o),
(461,39,o),
(507,53,c),
(602,220,l),
(619,220,l),
(594,52,l),
(479,-7,o),
(425,-12,o),
(332,-12,cs),
(169,-12,o),
(30,143,o),
(30,311,cs),
(30,532,o),
(148,713,o),
(363,713,cs),
(434,713,o),
(518,685,o),
(592,647,c)
);
}
);
width = 647;
},
{
anchors = (
{
name = bottom;
pos = (414,0);
},
{
name = top;
pos = (384,700);
}
);
associatedMasterId = m01;
layerId = "4EF47A43-EA9F-416F-884D-AC541148DC09";
metricLeft = "=O";
metricRight = "=O-2";
name = Bold;
shapes = (
{
closed = 1;
nodes = (
(446,713,l),
(189,661,l),
(30,423,l),
(79,139,l),
(289,-14,l),
(529,-4,l),
(658,58,l),
(679,243,l),
(654,243,l),
(560,67,l),
(396,63,l),
(273,156,l),
(205,353,l),
(227,582,l),
(344,658,l),
(539,612,l),
(616,467,l),
(641,467,l),
(642,654,l)
);
}
);
width = 707;
},
{
anchors = (
{
name = bottom;
pos = (354,0);
},
{
name = top;
pos = (354,700);
}
);
associatedMasterId = m01;
layerId = "77C4A9F5-E64C-4AAC-A1E2-E4DEA27A3E41";
metricLeft = "=O";
metricRight = "=O-2";
name = Bold;
shapes = (
{
closed = 1;
nodes = (
(641,467,l),
(616,467,l),
(539,612,l),
(344,658,l),
(227,582,l),
(205,353,l),
(273,156,l),
(396,63,l),
(560,67,l),
(613,139,l),
(624,243,l),
(649,243,l),
(652,181,l),
(619,67,l),
(519,-4,l),
(289,-14,l),
(79,139,l),
(30,423,l),
(189,661,l),
(446,713,l),
(642,654,l)
);
}
);
width = 707;
},
{
anchors = (
{
name = bottom;
pos = (324,0);
},
{
name = top;
pos = (324,700);
}
);
associatedMasterId = m01;
layerId = "B600A7F3-D239-4D80-80A9-98998BFAF924";
name = "Sep 7 21, 15:12";
shapes = (
{
closed = 1;
nodes = (
(610,467,l),
(593,467,l),
(567,583,o),
(507,688,o),
(367,688,cs),
(166,688,o),
(109,499,o),
(109,387,cs),
(109,187,o),
(225,43,o),
(392,43,cs),
(529,43,o),
(586,142,o),
(617,240,c),
(639,240,l),
(618,129,o),
(531,-12,o),
(355,-12,cs),
(144,-12,o),
(27,162,o),
(27,340,cs),
(27,536,o),
(138,713,o),
(373,713,cs),
(468,713,o),
(538,687,o),
(612,647,c)
);
}
);
width = 667;
},
{
anchors = (
{
name = bottom;
pos = (388,0);
},
{
name = top;
pos = (410,721);
}
);
layerId = "2CB5E1B6-8A79-4562-81B9-46C99CEA2FC9";
shapes = (
{
closed = 1;
nodes = (
(599,694,o),
(528,720,o),
(430,720,cs),
(185,720,o),
(50,557,o),
(50,350,cs),
(50,147,o),
(194,-11,o),
(395,-11,cs),
(590,-11,o),
(669,129,o),
(696,250,c),
(667,250,l),
(627,142,o),
(560,74,o),
(456,74,cs),
(313,74,o),
(207,199,o),
(207,395,cs),
(207,579,o),
(288,685,o),
(419,685,cs),
(543,685,o),
(618,590,o),
(644,474,c),
(671,474,l),
(673,654,l)
);
}
);
width = 736;
},
{
anchors = (
{
name = bottom;
pos = (377,0);
},
{
name = top;
pos = (373,716);
}
);
layerId = "1881FB1F-FF0F-4B67-AF41-4B555E01DE13";
shapes = (
{
closed = 1;
nodes = (
(572,690,o),
(502,716,o),
(406,716,cs),
(167,716,o),
(47,544,o),
(47,344,cs),
(47,156,o),
(174,-11,o),
(382,-11,cs),
(564,-11,o),
(648,129,o),
(672,244,c),
(647,244,l),
(613,142,o),
(550,55,o),
(427,55,cs),
(269,55,o),
(157,192,o),
(157,392,cs),
(157,535,o),
(223,687,o),
(398,687,cs),
(532,687,o),
(597,586,o),
(623,470,c),
(644,470,l),
(646,650,l)
);
}
);
width = 714.75;
}
);
metricLeft = O;
unicode = 67;
}
{
glyphname = D;
kernLeft = H;
kernRight = O;
layers = (
{
anchors = (
{
name = bottom;
pos = (355,0);
},
{
name = center;
pos = (355,350);
},
{
name = top;
pos = (303,713);
}
);
layerId = m01;
shapes = (
{
closed = 1;
nodes = (
(254,0,ls),
(532,0,o),
(665,164,o),
(665,382,cs),
(665,586,o),
(501,702,o),
(303,701,cs),
(22,700,l),
(22,686,l),
(97,683,o),
(124,688,o),
(124,645,cs),
(124,55,ls),
(124,12,o),
(97,17,o),
(22,14,c),
(22,0,l)
);
},
{
closed = 1;
nodes = (
(203,673,l),
(296,673,ls),
(453,673,o),
(577,555,o),
(577,354,cs),
(577,203,o),
(504,32,o),
(305,32,cs),
(203,32,l)
);
}
);
width = 710;
},
{
anchors = (
{
name = bottom;
pos = (352,0);
},
{
name = center;
pos = (352,350);
},
{
name = top;
pos = (322,700);
}
);
associatedMasterId = m01;
layerId = "4EF47A43-EA9F-416F-884D-AC541148DC09";
name = Bold;
shapes = (
{
closed = 1;
nodes = (
(97,0,l),
(247,0,l),
(247,700,l),
(97,700,l)
);
},
{
closed = 1;
nodes = (
(190,0,l),
(413,0,l),
(598,117,l),
(668,360,l),
(607,564,l),
(435,700,l),
(193,700,l)
);
},
{
closed = 1;
nodes = (
(368,653,l),
(472,482,l),
(497,214,l),
(453,74,l),
(336,56,l),
(247,76,l),
(247,635,l),
(278,668,l)
);
},
{
closed = 1;
nodes = (
(234,630,l),
(267,675,l),
(311,678,l),
(311,700,l),
(20,700,l),
(20,678,l),
(64,675,l),
(97,630,l)
);
},
{
closed = 1;
nodes = (
(64,25,l),
(20,22,l),
(20,0,l),
(311,0,l),
(311,22,l),
(267,25,l),
(234,70,l),
(97,70,l)
);
}
);
width = 698;
},
{
anchors = (
{
name = bottom;
pos = (399,0);
},
{
name = center;
pos = (399,353);
},
{
name = top;
pos = (369,721);
}
);
layerId = "2CB5E1B6-8A79-4562-81B9-46C99CEA2FC9";
shapes = (
{
closed = 1;
nodes = (
(321,0,ls),
(599,0,o),
(747,154,o),
(747,359,cs),
(747,580,o),
(568,705,o),
(370,705,cs),
(25,705,l),
(25,678,l),
(100,675,o),
(127,680,o),
(127,637,cs),
(127,68,ls),
(127,25,o),
(100,30,o),
(25,27,c),
(25,0,l)
);
},
{
closed = 1;
nodes = (
(270,667,l),
(328,667,ls),
(482,667,o),
(595,558,o),
(595,369,cs),
(595,174,o),
(482,42,o),
(328,42,cs),
(270,42,l)
);
}
);
width = 797;
},
{
anchors = (
{
name = bottom;
pos = (372,0);
},
{
name = center;
pos = (372,351);
},
{
name = top;
pos = (328,716);
}
);
layerId = "1881FB1F-FF0F-4B67-AF41-4B555E01DE13";
shapes = (
{
closed = 1;
nodes = (
(279,0,ls),
(557,0,o),
(696,160,o),
(696,373,cs),
(696,584,o),
(526,703,o),
(328,703,cs),
(23,702,l),
(23,683,l),
(98,680,o),
(125,685,o),
(125,642,cs),
(125,60,ls),
(125,17,o),
(98,22,o),
(23,19,c),
(23,0,l)
);
},
{
closed = 1;
nodes = (
(228,671,l),
(308,671,ls),
(464,671,o),
(584,556,o),
(584,360,cs),
(584,192,o),
(496,36,o),
(314,36,cs),
(228,36,l)
);
}
);
width = 742.625;
}
);
metricLeft = H;
metricRight = O;
unicode = 68;
}
{
glyphname = E;
kernLeft = H;
kernRight = E;
layers = (
{
anchors = (
{
name = bottom;
pos = (320,0);
},
{
name = ogonek;
pos = (511,0);
},
{
name = top;
pos = (320,713);
},
{
name = topleft;
pos = (17,700);
}
);
layerId = m01;
metricLeft = "=H";
shapes = (
{
closed = 1;
nodes = (
(580,0,l),
(623,222,l),
(604,222,l),
(581,125,o),
(567,29,o),
(448,29,cs),
(203,29,l),
(203,343,l),
(423,343,ls),
(462,343,o),
(492,309,o),
(494,230,c),
(510,230,l),
(510,482,l),
(494,482,l),
(492,401,o),
(462,371,o),
(423,371,cs),
(203,371,l),
(203,672,l),
(432,672,ls),
(512,672,o),
(557,633,o),
(580,478,c),
(599,478,l),
(567,700,l),
(22,700,l),
(22,686,l),
(97,683,o),
(124,688,o),
(124,645,cs),
(124,55,ls),
(124,12,o),
(97,17,o),
(22,14,c),
(22,0,l)
);
}
);
width = 658;
},
{
anchors = (
{
name = bottom;
pos = (320,0);
},
{
name = ogonek;
pos = (547,0);
},
{
name = top;
pos = (320,700);
},
{
name = topleft;
pos = (21,700);
}
);
associatedMasterId = m01;
layerId = "4EF47A43-EA9F-416F-884D-AC541148DC09";
metricLeft = "=H";
name = Bold;
shapes = (
{
closed = 1;
nodes = (
(97,0,l),
(247,0,l),
(247,700,l),
(97,700,l)
);
},
{
closed = 1;
nodes = (
(247,337,l),
(496,335,l),
(496,390,l),
(247,388,l)
);
},
{
closed = 1;
nodes = (
(465,304,l),
(474,240,l),
(497,240,l),
(497,485,l),
(474,485,l),
(465,421,l),
(420,390,l),
(420,337,l)
);
},
{
closed = 1;
nodes = (
(64,25,l),
(20,22,l),
(20,0,l),
(324,0,l),
(324,22,l),
(300,25,l),
(247,90,l),
(97,70,l)
);
},
{
closed = 1;
nodes = (
(247,610,l),
(300,675,l),
(324,678,l),
(324,700,l),
(20,700,l),
(20,678,l),
(64,675,l),
(97,630,l)
);
},
{
closed = 1;
nodes = (
(247,0,l),
(546,0,l),
(546,50,l),
(247,45,l)
);
},
{
closed = 1;
nodes = (
(546,650,l),
(545,700,l),
(247,700,l),
(247,655,l)
);
},
{
closed = 1;
nodes = (
(594,222,l),
(569,222,l),
(499,75,l),
(376,20,l),
(376,0,l),
(562,0,l)
);
},
{
closed = 1;
nodes = (
(376,700,l),
(376,680,l),
(499,625,l),
(569,478,l),
(594,478,l),
(562,700,l)
);
}
);
width = 617;
},
{
anchors = (
{
name = bottom;
pos = (323,0);
},
{
name = ogonek;
pos = (581,10);
},
{
name = top;
pos = (323,700);
},
{
name = topleft;
pos = (20,700);
}
);
associatedMasterId = m01;
layerId = "15CC0F58-3D48-43B7-B235-AE37D4AC6AB1";
name = "Sep 26 20, 18:04";
shapes = (
{
closed = 1;
nodes = (
(583,0,l),
(626,212,l),
(607,212,l),
(584,115,o),
(573,29,o),
(454,29,cs),
(206,29,l),
(206,346,l),
(441,346,ls),
(480,346,o),
(505,312,o),
(507,233,c),
(523,233,l),
(523,486,l),
(507,486,l),
(505,405,o),
(480,375,o),
(441,375,cs),
(206,375,l),
(206,672,l),
(438,672,ls),
(518,672,o),
(550,658,o),
(573,498,c),
(592,498,l),
(570,700,l),
(23,700,l),
(23,686,l),
(98,683,o),
(125,688,o),
(125,645,cs),
(125,55,ls),
(125,12,o),
(98,17,o),
(23,14,c),
(23,0,l)
);
}
);
width = 656;
},
{
anchors = (
{
name = bottom;
pos = (371,0);
},
{
name = ogonek;
pos = (556,0);
},
{
name = top;
pos = (371,705);
},
{
name = topleft;
pos = (20,705);
}
);
layerId = "2CB5E1B6-8A79-4562-81B9-46C99CEA2FC9";
shapes = (
{
closed = 1;
nodes = (
(647,0,l),
(692,229,l),
(667,229,l),
(641,125,o),
(594,37,o),
(475,37,cs),
(270,37,l),
(270,338,l),
(439,338,ls),
(488,338,o),
(538,309,o),
(540,222,c),
(567,222,l),
(567,489,l),
(540,489,l),
(538,401,o),
(488,376,o),
(439,376,cs),
(270,376,l),
(270,669,l),
(444,669,ls),
(524,669,o),
(610,638,o),
(636,472,c),
(664,472,l),
(634,705,l),
(25,705,l),
(25,678,l),
(100,675,o),
(127,680,o),
(127,637,cs),
(127,68,ls),
(127,25,o),
(100,30,o),
(25,27,c),
(25,0,l)
);
}
);
width = 742;
},
{
anchors = (
{
name = bottom;
pos = (339,0);
},
{
name = ogonek;
pos = (528,0);
},
{
name = top;
pos = (339,710);
},
{
name = topleft;
pos = (18,702);
}
);
layerId = "1881FB1F-FF0F-4B67-AF41-4B555E01DE13";
shapes = (
{
closed = 1;
nodes = (
(605,0,l),
(649,225,l),
(628,225,l),
(604,125,o),
(577,32,o),
(458,32,cs),
(228,32,l),
(228,341,l),
(429,341,ls),
(472,341,o),
(509,309,o),
(511,227,c),
(531,227,l),
(531,485,l),
(511,485,l),
(509,401,o),
(472,373,o),
(429,373,cs),
(228,373,l),
(228,671,l),
(437,671,ls),
(517,671,o),
(577,635,o),
(601,476,c),
(623,476,l),
(592,702,l),
(23,702,l),
(23,683,l),
(98,680,o),
(125,685,o),
(125,642,cs),
(125,60,ls),
(125,17,o),
(98,22,o),
(23,19,c),
(23,0,l)
);
}
);
width = 689.5;
}
);
metricLeft = H;
unicode = 69;
}
{
glyphname = F;
kernLeft = H;
layers = (
{
layerId = m01;
shapes = (
{
closed = 1;
nodes = (
(124,645,ls),
(124,688,o),
(97,683,o),
(22,686,c),
(22,700,l),
(569,700,l),
(601,478,l),
(582,478,l),
(559,638,o),
(512,672,o),
(432,672,cs),
(205,672,l),
(205,361,l),
(427,361,ls),
(466,361,o),
(494,391,o),
(496,472,c),
(512,472,l),
(512,220,l),
(496,220,l),
(494,299,o),
(466,333,o),
(427,333,cs),
(205,333,l),
(205,55,ls),
(205,12,o),
(242,17,o),
(337,14,c),
(337,0,l),
(22,0,l),
(22,14,l),
(97,17,o),
(124,12,o),
(124,55,cs)
);
}
);
width = 626;
},
{
associatedMasterId = m01;
background = {
shapes = (
{
closed = 1;
nodes = (
(552,662,l),
(42,662,l),
(42,640,l),
(131,640,o),
(142,637,o),
(142,534,cs),
(142,172,ls),
(142,45,o),
(142,22,o),
(58,22,cs),
(38,22,l),
(38,0,l),
(345,0,l),
(345,22,l),
(323,22,ls),
(238,22,o),
(238,44,o),
(238,172,cs),
(238,337,l),
(300,337,ls),
(360,337,o),
(400,337,o),
(400,227,c),
(424,227,l),
(424,460,l),
(400,460,l),
(400,367,o),
(368,359,o),
(300,359,cs),
(238,359,l),
(238,640,l),
(367,640,ls),
(444,640,o),
(515,637,o),
(535,497,c),
(558,497,l)
);
}
);
};
layerId = "A4EDB6C0-061A-4C6C-9645-328C04BA8CF6";
name = "Jan 6 19, 17:08";
shapes = (
{
closed = 1;
nodes = (
(126,0,l),
(202,0,l),
(202,700,l),
(126,700,l)
);
},
{
closed = 1;
nodes = (
(196,675,l),
(581,655,l),
(581,700,l),
(196,700,l)
);
},
{
closed = 1;
nodes = (
(391,700,l),
(515,642,l),
(576,541,l),
(591,541,l),
(581,700,l)
);
},
{
closed = 1;
nodes = (
(171,655,l),
(171,700,l),
(40,700,l),
(40,685,l),
(93,675,l),
(126,655,l)
);
},
{
closed = 1;
nodes = (
(93,25,l),
(40,15,l),
(40,0,l),
(306,0,l),
(306,15,l),
(243,25,l),
(202,45,l),
(126,45,l)
);
},
{
closed = 1;
nodes = (
(201,349,l),
(515,339,l),
(515,384,l),
(201,374,l)
);
},
{
closed = 1;
nodes = (
(485,308,l),
(500,255,l),
(515,255,l),
(515,466,l),
(500,466,l),
(485,413,l),
(460,382,l),
(460,341,l)
);
}
);
width = 613;
},
{
anchors = (
{
name = bottom;
pos = (297,0);
},
{
name = top;
pos = (297,700);
}
);
associatedMasterId = m01;
layerId = "4EF47A43-EA9F-416F-884D-AC541148DC09";
name = Bold;
shapes = (
{
closed = 1;
nodes = (
(97,0,l),
(247,0,l),
(247,700,l),
(97,700,l)
);
},
{
closed = 1;
nodes = (
(247,338,l),
(496,335,l),
(496,390,l),
(247,387,l)
);
},
{
closed = 1;
nodes = (
(462,304,l),
(474,240,l),
(496,240,l),
(496,485,l),
(474,485,l),
(462,421,l),
(417,389,l),
(417,337,l)
);
},
{
closed = 1;
nodes = (
(64,25,l),
(20,22,l),
(20,0,l),
(344,0,l),
(344,22,l),
(290,25,l),
(247,70,l),
(97,70,l)
);
},
{
closed = 1;
nodes = (
(247,610,l),
(300,675,l),
(324,678,l),
(324,700,l),
(20,700,l),
(20,678,l),
(64,675,l),
(97,630,l)
);
},
{
closed = 1;
nodes = (
(546,650,l),
(545,700,l),
(247,700,l),
(247,655,l)
);
},
{
closed = 1;
nodes = (
(376,700,l),
(376,680,l),
(499,625,l),
(569,478,l),
(594,478,l),
(562,700,l)
);
}
);
width = 593;
},
{
layerId = "2CB5E1B6-8A79-4562-81B9-46C99CEA2FC9";
shapes = (
{
closed = 1;
nodes = (
(127,637,ls),
(127,680,o),
(100,675,o),
(25,678,c),
(25,705,l),
(634,705,l),
(663,457,l),
(635,457,l),
(612,637,o),
(524,669,o),
(444,669,cs),
(270,669,l),
(270,366,l),
(431,366,ls),
(480,366,o),
(528,391,o),
(530,472,c),
(557,472,l),
(557,220,l),
(530,220,l),
(528,299,o),
(480,328,o),
(431,328,cs),
(270,328,l),
(270,88,ls),
(269,25,o),
(296,30,o),
(405,27,c),
(405,0,l),
(25,0,l),
(25,27,l),
(100,30,o),
(127,25,o),
(127,88,cs)
);
}
);
width = 703;
},
{
layerId = "1881FB1F-FF0F-4B67-AF41-4B555E01DE13";
shapes = (
{
closed = 1;
nodes = (
(125,642,ls),
(125,685,o),
(98,680,o),
(23,683,c),
(23,702,l),
(593,702,l),
(624,470,l),
(602,470,l),
(579,638,o),
(517,671,o),
(437,671,cs),
(229,671,l),
(229,363,l),
(429,363,ls),
(471,363,o),
(507,391,o),
(509,472,c),
(529,472,l),
(529,220,l),
(509,220,l),
(507,299,o),
(471,331,o),
(429,331,cs),
(229,331,l),
(229,67,ls),
(229,17,o),
(262,22,o),
(363,19,c),
(363,0,l),
(23,0,l),
(23,19,l),
(98,22,o),
(125,17,o),
(125,67,cs)
);
}
);
width = 654.875;
}
);
metricLeft = "=H";
unicode = 70;
}
{
glyphname = G;
kernLeft = O;
kernRight = G;
layers = (
{
associatedMasterId = m01;
background = {
shapes = (
{
closed = 1;
nodes = (
(482,283,l),
(482,259,l),
(516,259,ls),
(558,259,o),
(580,245,o),
(580,180,cs),
(580,144,ls),
(580,69,o),
(517,12,o),
(417,12,cs),
(289,12,o),
(184,96,o),
(184,335,cs),
(184,564,o),
(280,650,o),
(417,650,cs),
(523,650,o),
(625,580,o),
(646,429,c),
(670,429,l),
(670,651,l),
(646,651,l),
(644,622,o),
(634,593,o),
(626,577,c),
(545,667,o),
(457,674,o),
(406,674,cs),
(201,674,o),
(72,514,o),
(72,318,cs),
(72,126,o),
(213,-12,o),
(403,-12,cs),
(529,-12,o),
(573,42,o),
(655,42,cs),
(664,42,o),
(670,41,o),
(676,40,c),
(676,150,ls),
(676,224,o),
(683,259,o),
(744,259,cs),
(768,259,l),
(768,283,l)
);
}
);
};
layerId = "0BA68BEB-49D9-4C62-B420-16CC57DA0530";
name = "Jan 6 19, 17:08";
shapes = (
{
closed = 1;
nodes = (
(605,491,l),
(592,491,l),
(514,635,l),
(445,684,o),
(389,699,o),
(305,676,cs),
(186,644,o),
(136,502,o),
(136,342,cs),
(136,184,o),
(242,44,o),
(390,35,cs),
(463,31,o),
(488,32,o),
(537,51,c),
(537,244,l),
(612,244,l),
(612,52,l),
(497,-7,o),
(445,-12,o),
(352,-12,cs),
(186,-12,o),
(50,134,o),
(50,329,cs),
(50,529,o),
(164,704,o),
(366,713,cs),
(454,717,o),
(545,692,o),
(602,648,c)
);
},
{
closed = 1;
nodes = (
(643,264,l),
(703,273,l),
(703,289,l),
(451,289,l),
(451,274,l),
(504,264,l),
(537,244,l),
(612,244,l)
);
}
);
width = 723;
},
{
associatedMasterId = m01;
background = {
shapes = (
{
closed = 1;
nodes = (
(483,283,l),
(483,259,l),
(517,259,ls),
(559,259,o),
(581,245,o),
(581,180,cs),
(581,144,ls),
(581,69,o),
(518,12,o),
(418,12,cs),
(290,12,o),
(185,96,o),
(185,335,cs),
(185,564,o),
(281,650,o),
(418,650,cs),
(524,650,o),
(626,580,o),
(647,429,c),
(671,429,l),
(671,651,l),
(647,651,l),
(645,622,o),
(635,593,o),
(627,577,c),
(546,667,o),
(458,674,o),
(407,674,cs),
(202,674,o),
(73,514,o),
(73,318,cs),
(73,126,o),
(214,-12,o),
(404,-12,cs),
(530,-12,o),
(574,42,o),
(656,42,cs),
(665,42,o),
(671,41,o),
(677,40,c),
(677,150,ls),
(677,224,o),
(684,259,o),
(745,259,cs),
(769,259,l),
(769,283,l)
);
}
);
};
layerId = "C5E17D02-20DF-4E09-96B4-5E5EB6B1310F";
name = "Jan 9 19, 15:46";
shapes = (
{
closed = 1;
nodes = (
(597,480,l),
(583,480,l),
(557,612,o),
(461,721,o),
(296,676,cs),
(177,644,o),
(125,502,o),
(125,342,cs),
(125,184,o),
(236,41,o),
(381,32,cs),
(454,27,o),
(479,32,o),
(528,51,c),
(528,244,l),
(603,244,l),
(603,52,l),
(488,-7,o),
(436,-12,o),
(343,-12,cs),
(177,-12,o),
(41,134,o),
(41,329,cs),
(41,529,o),
(155,704,o),
(357,713,cs),
(445,717,o),
(536,692,o),
(593,648,c)
);
},
{
closed = 1;
nodes = (
(528,251,o),
(496,272,o),
(441,274,c),
(441,288,l),
(688,288,l),
(688,274,l),
(633,272,o),
(603,251,o),
(603,203,c),
(528,203,l)
);
}
);
width = 695;
},
{
anchors = (
{
name = bottom;
pos = (370,0);
},
{
name = top;
pos = (370,700);
}
);
associatedMasterId = m01;
layerId = "4EF47A43-EA9F-416F-884D-AC541148DC09";
metricLeft = "=O";
name = Bold;
shapes = (
{
closed = 1;
nodes = (
(189,661,l),
(446,713,l),
(642,654,l),
(641,435,l),
(617,435,l),
(539,612,l),
(344,658,l),
(225,582,l),
(204,353,l),
(274,159,l),
(394,65,l),
(514,89,l),
(574,190,l),
(574,283,l),
(437,291,l),
(437,313,l),
(740,313,l),
(740,291,l),
(696,288,l),
(663,243,l),
(664,243,l),
(664,0,l),
(628,0,l),
(587,118,l),
(556,82,l),
(477,-1,l),
(289,-14,l),
(79,139,l),
(30,423,l)
);
}
);
width = 740;
},
{
associatedMasterId = m01;
background = {
shapes = (
{
closed = 1;
nodes = (
(477,283,l),
(477,259,l),
(511,259,ls),
(553,259,o),
(575,245,o),
(575,180,cs),
(575,144,ls),
(575,69,o),
(512,12,o),
(412,12,cs),
(284,12,o),
(179,96,o),
(179,335,cs),
(179,564,o),
(275,650,o),
(412,650,cs),
(518,650,o),
(620,580,o),
(641,429,c),
(665,429,l),
(665,651,l),
(641,651,l),
(639,622,o),
(629,593,o),
(621,577,c),
(540,667,o),
(452,674,o),
(401,674,cs),
(196,674,o),
(67,514,o),
(67,318,cs),
(67,126,o),
(208,-12,o),
(398,-12,cs),
(524,-12,o),
(568,42,o),
(650,42,cs),
(659,42,o),
(665,41,o),
(671,40,c),
(671,150,ls),
(671,224,o),
(678,259,o),
(739,259,cs),
(763,259,l),
(763,283,l)
);
}
);
};
layerId = "873F55F9-99C1-4D7B-86FE-3D9144CFD806";
name = "Sep 8 20, 15:38";
shapes = (
{
closed = 1;
nodes = (
(35,529,o),
(139,712,o),
(371,712,cs),
(449,712,o),
(540,692,o),
(597,648,c),
(601,460,l),
(587,460,l),
(571,589,o),
(481,671,o),
(353,671,cs),
(188,671,o),
(125,520,o),
(125,382,cs),
(125,174,o),
(232,41,o),
(395,32,cs),
(503,26,o),
(587,79,o),
(587,188,c),
(585,274,l),
(411,284,l),
(411,298,l),
(626,298,l),
(632,-12,l),
(618,-12,l),
(610,21,o),
(600,42,o),
(576,42,cs),
(539,42,o),
(509,-12,o),
(376,-12,cs),
(180,-12,o),
(35,144,o),
(35,349,cs)
);
}
);
width = 672;
},
{
associatedMasterId = m01;
layerId = "6777A1BF-B571-4A22-A7D8-141B21420536";
name = "Sep 24 20, 22:56";
shapes = (
{
closed = 1;
nodes = (
(35,529,o),
(139,712,o),
(371,712,cs),
(459,712,o),
(572,672,o),
(617,648,c),
(621,460,l),
(607,460,l),
(561,605,o),
(486,688,o),
(358,688,cs),
(193,688,o),
(124,540,o),
(124,372,cs),
(124,154,o),
(253,23,o),
(384,23,cs),
(474,23,o),
(526,63,o),
(566,121,c),
(566,274,l),
(411,283,l),
(411,298,l),
(698,298,l),
(698,283,l),
(637,280,o),
(636,272,o),
(636,240,c),
(637,86,l),
(588,45,o),
(477,-11,o),
(367,-11,cs),
(180,-11,o),
(35,134,o),
(35,349,cs)
);
}
);
width = 672;
},
{
anchors = (
{
name = bottom;
pos = (378,0);
},
{
name = top;
pos = (392,713);
}
);
layerId = m01;
metricLeft = "=O";
metricRight = "=O-20";
shapes = (
{
closed = 1;
nodes = (
(470,-11,o),
(547,47,o),
(582,116,c),
(635,0,l),
(646,0,l),
(646,245,ls),
(646,285,o),
(647,288,o),
(708,288,c),
(708,303,l),
(421,303,l),
(421,288,l),
(573,277,l),
(573,165,l),
(553,107,o),
(502,32,o),
(393,32,cs),
(271,32,o),
(129,154,o),
(129,375,cs),
(129,540,o),
(214,687,o),
(379,687,cs),
(524,687,o),
(581,603,o),
(618,463,c),
(633,463,l),
(637,642,l),
(590,668,o),
(499,712,o),
(401,712,cs),
(159,712,o),
(45,529,o),
(45,349,cs),
(45,124,o),
(208,-11,o),
(367,-11,cs)
);
}
);
width = 733;
},
{
anchors = (
{
name = bottom;
pos = (370,0);
},
{
name = top;
pos = (370,700);
}
);
associatedMasterId = m01;
background = {
shapes = (
{
closed = 1;
nodes = (
(718,357,l),
(400,357,l),
(400,342,l),
(528,310,l),
(528,34,l),
(500,28,o),
(473,25,o),
(447,25,cs),
(355,25,o),
(281,57,o),
(225,121,cs),
(169,185,o),
(141,268,o),
(141,371,cs),
(141,468,o),
(164,548,o),
(211,611,cs),
(257,674,o),
(318,705,o),
(395,705,cs),
(438,705,o),
(483,694,o),
(531,671,c),
(590,544,l),
(606,544,l),
(601,707,l),
(575,715,ls),
(534,728,o),
(487,734,o),
(435,734,cs),
(325,734,o),
(235,699,o),
(164,630,cs),
(89,557,o),
(52,460,o),
(52,337,cs),
(52,224,o),
(86,136,o),
(154,73,cs),
(217,15,o),
(298,-14,o),
(397,-14,cs),
(452,-14,o),
(506,-5,o),
(560,14,cs),
(615,33,l),
(615,310,l),
(718,342,l)
);
}
);
};
layerId = "4CE94CEF-1661-406A-9039-7E280BC494DF";
name = Bold;
shapes = (
{
closed = 1;
nodes = (
(641,467,l),
(617,467,l),
(539,612,l),
(344,658,l),
(225,582,l),
(204,353,l),
(274,159,l),
(394,65,l),
(540,56,l),
(540,243,l),
(664,243,l),
(664,73,l),
(536,-4,l),
(289,-14,l),
(79,139,l),
(30,423,l),
(189,661,l),
(446,713,l),
(642,654,l)
);
},
{
closed = 1;
nodes = (
(511,288,l),
(467,291,l),
(467,313,l),
(740,313,l),
(740,291,l),
(696,288,l),
(663,243,l),
(540,243,l)
);
}
);
width = 740;
},
{
anchors = (
{
name = bottom;
pos = (398,0);
},
{
name = top;
pos = (418,705);
}
);
layerId = "2CB5E1B6-8A79-4562-81B9-46C99CEA2FC9";
shapes = (
{
closed = 1;
nodes = (
(489,-11,o),
(552,31,o),
(609,111,c),
(665,0,l),
(695,0,l),
(695,238,ls),
(695,281,o),
(696,284,o),
(757,284,c),
(757,311,l),
(436,311,l),
(436,284,l),
(575,273,l),
(575,142,l),
(559,103,o),
(505,50,o),
(435,50,cs),
(311,50,o),
(207,187,o),
(207,386,cs),
(207,571,o),
(287,685,o),
(433,685,cs),
(563,685,o),
(630,590,o),
(656,474,c),
(683,474,l),
(685,654,l),
(611,694,o),
(542,720,o),
(440,720,cs),
(185,720,o),
(50,550,o),
(50,344,cs),
(50,141,o),
(194,-11,o),
(385,-11,cs)
);
}
);
width = 787;
},
{
anchors = (
{
name = bottom;
pos = (398,0);
},
{
name = top;
pos = (398,705);
}
);
associatedMasterId = "2CB5E1B6-8A79-4562-81B9-46C99CEA2FC9";
layerId = "18DE53C8-3D5B-4461-91F7-3B224A84D925";
name = "2 feb 22, 12:04";
shapes = (
{
closed = 1;
nodes = (
(492,-12,o),
(558,31,o),
(615,111,c),
(673,0,l),
(703,0,l),
(703,238,ls),
(703,281,o),
(704,284,o),
(765,284,c),
(765,311,l),
(436,311,l),
(436,284,l),
(581,273,l),
(581,151,l),
(565,103,o),
(505,57,o),
(440,57,cs),
(311,57,o),
(207,187,o),
(207,386,cs),
(207,564,o),
(287,678,o),
(433,678,cs),
(569,678,o),
(636,583,o),
(662,467,c),
(689,467,l),
(691,647,l),
(617,687,o),
(548,713,o),
(440,713,cs),
(185,713,o),
(50,543,o),
(50,344,cs),
(50,143,o),
(194,-12,o),
(390,-12,cs)
);
}
);
width = 795;
},
{
anchors = (
{
name = bottom;
pos = (386,0);
},
{
name = top;
pos = (402,710);
}
);
layerId = "1881FB1F-FF0F-4B67-AF41-4B555E01DE13";
shapes = (
{
closed = 1;
nodes = (
(477,-11,o),
(549,41,o),
(592,114,c),
(646,0,l),
(664,0,l),
(664,242,ls),
(664,284,o),
(665,287,o),
(726,287,c),
(726,306,l),
(427,306,l),
(427,287,l),
(574,276,l),
(574,156,l),
(555,106,o),
(503,39,o),
(409,39,cs),
(286,39,o),
(158,166,o),
(158,379,cs),
(158,552,o),
(241,686,o),
(399,686,cs),
(539,686,o),
(599,598,o),
(632,467,c),
(652,467,l),
(655,647,l),
(598,678,o),
(515,715,o),
(416,715,cs),
(169,715,o),
(47,537,o),
(47,347,cs),
(47,130,o),
(203,-11,o),
(374,-11,cs)
);
}
);
width = 753.25;
}
);
metricLeft = O;
unicode = 71;
}
{
glyphname = H;
kernLeft = H;
kernRight = H;
layers = (
{
layerId = m01;
shapes = (
{
closed = 1;
nodes = (
(304,0,l),
(304,14,l),
(249,16,o),
(202,7,o),
(202,65,cs),
(202,356,l),
(597,356,l),
(597,65,ls),
(597,7,o),
(550,16,o),
(495,14,c),
(495,0,l),
(778,0,l),
(778,14,l),
(723,16,o),
(676,7,o),
(676,65,cs),
(676,640,ls),
(676,698,o),
(723,684,o),
(778,686,c),
(778,700,l),
(495,700,l),
(495,686,l),
(550,684,o),
(597,698,o),
(597,640,cs),
(597,386,l),
(202,386,l),
(202,640,ls),
(202,698,o),
(249,684,o),
(304,686,c),
(304,700,l),
(22,700,l),
(22,686,l),
(77,684,o),
(123,698,o),
(123,640,cs),
(123,65,ls),
(123,7,o),
(77,16,o),
(22,14,c),
(22,0,l)
);
}
);
width = 800;
},
{
anchors = (
{
name = bottom;
pos = (401,0);
},
{
name = center;
pos = (401,350);
},
{
name = top;
pos = (401,700);
},
{
name = topleft;
pos = (20,700);
}
);
associatedMasterId = m01;
layerId = "4EF47A43-EA9F-416F-884D-AC541148DC09";
name = Bold;
shapes = (
{
closed = 1;
nodes = (
(97,0,l),
(247,0,l),
(247,700,l),
(97,700,l)
);
},
{
closed = 1;
nodes = (
(555,0,l),
(705,0,l),
(705,700,l),
(555,700,l)
);
},
{
closed = 1;
nodes = (
(222,339,l),
(602,339,l),
(602,394,l),
(222,394,l)
);
},
{
closed = 1;
nodes = (
(64,25,l),
(20,22,l),
(20,0,l),
(324,0,l),
(324,22,l),
(280,25,l),
(247,70,l),
(97,70,l)
);
},
{
closed = 1;
nodes = (
(247,630,l),
(280,675,l),
(324,678,l),
(324,700,l),
(20,700,l),
(20,678,l),
(64,675,l),
(97,630,l)
);
},
{
closed = 1;
nodes = (
(522,25,l),
(478,22,l),
(478,0,l),
(782,0,l),
(782,22,l),
(738,25,l),
(705,70,l),
(555,70,l)
);
},
{
closed = 1;
nodes = (
(705,630,l),
(738,675,l),
(782,678,l),
(782,700,l),
(478,700,l),
(478,678,l),
(522,675,l),
(555,630,l)
);
}
);
width = 802;
},
{
layerId = "2CB5E1B6-8A79-4562-81B9-46C99CEA2FC9";
shapes = (
{
closed = 1;
nodes = (
(371,0,l),
(371,27,l),
(316,29,o),
(269,20,o),
(269,78,cs),
(269,344,l),
(618,344,l),
(618,78,ls),
(618,20,o),
(571,29,o),
(516,27,c),
(516,0,l),
(863,0,l),
(863,27,l),
(808,29,o),
(761,20,o),
(761,78,cs),
(761,632,ls),
(761,686,o),
(808,676,o),
(863,678,c),
(863,705,l),
(516,705,l),
(516,678,l),
(571,676,o),
(618,686,o),
(618,632,cs),
(618,386,l),
(269,386,l),
(269,632,ls),
(269,686,o),
(316,676,o),
(371,678,c),
(371,705,l),
(25,705,l),
(25,678,l),
(80,676,o),
(126,686,o),
(126,632,cs),
(126,78,ls),
(126,20,o),
(80,29,o),
(25,27,c),
(25,0,l)
);
}
);
width = 888;
},
{
layerId = "1881FB1F-FF0F-4B67-AF41-4B555E01DE13";
shapes = (
{
closed = 1;
nodes = (
(329,0,l),
(329,19,l),
(274,21,o),
(227,12,o),
(227,70,cs),
(227,352,l),
(605,352,l),
(605,70,ls),
(605,12,o),
(558,21,o),
(503,19,c),
(503,0,l),
(810,0,l),
(810,19,l),
(755,21,o),
(708,12,o),
(708,70,cs),
(708,637,ls),
(708,694,o),
(755,681,o),
(810,683,c),
(810,702,l),
(503,702,l),
(503,683,l),
(558,681,o),
(605,694,o),
(605,637,cs),
(605,386,l),
(227,386,l),
(227,637,ls),
(227,694,o),
(274,681,o),
(329,683,c),
(329,702,l),
(23,702,l),
(23,683,l),
(78,681,o),
(124,694,o),
(124,637,cs),
(124,70,ls),
(124,12,o),
(78,21,o),
(23,19,c),
(23,0,l)
);
}
);
width = 833;
}
);
unicode = 72;
}
{
glyphname = I;
kernLeft = H;
kernRight = H;
layers = (
{
anchors = (
{
name = bottom;
pos = (177,0);
},
{
name = ogonek;
pos = (203,0);
},
{
name = top;
pos = (177,700);
},
{
name = topleft;
pos = (30,700);
}
);
layerId = m01;
metricLeft = "=H+10";
metricRight = "=H+10";
shapes = (
{
closed = 1;
nodes = (
(213,693,o),
(260,684,o),
(315,686,c),
(315,700,l),
(32,700,l),
(32,686,l),
(87,684,o),
(134,693,o),
(134,645,cs),
(134,58,ls),
(134,10,o),
(87,16,o),
(32,14,c),
(32,0,l),
(315,0,l),
(315,14,l),
(260,16,o),
(213,10,o),
(213,58,cs),
(213,645,ls)
);
}
);
width = 347;
},
{
anchors = (
{
name = bottom;
pos = (178,0);
},
{
name = ogonek;
pos = (321,10);
},
{
name = top;
pos = (178,700);
},
{
name = topleft;
pos = (19,700);
}
);
associatedMasterId = m01;
layerId = "4EF47A43-EA9F-416F-884D-AC541148DC09";
metricLeft = "=H";
metricRight = "=H";
name = Bold;
shapes = (
{
closed = 1;
nodes = (
(110,700,l),
(110,0,l),
(260,0,l),
(260,700,l)
);
},
{
closed = 1;
nodes = (
(77,25,l),
(20,22,l),
(20,0,l),
(350,0,l),
(350,22,l),
(293,25,l),
(260,70,l),
(110,70,l)
);
},
{
closed = 1;
nodes = (
(260,630,l),
(293,675,l),
(350,678,l),
(350,700,l),
(20,700,l),
(20,678,l),
(77,675,l),
(110,630,l)
);
}
);
width = 370;
},
{
anchors = (
{
name = bottom;
pos = (211,0);
},
{
name = ogonek;
pos = (240,1);
},
{
name = top;
pos = (211,705);
},
{
name = topleft;
pos = (26,705);
}
);
layerId = "2CB5E1B6-8A79-4562-81B9-46C99CEA2FC9";
shapes = (
{
closed = 1;
nodes = (
(279,685,o),
(317,678,o),
(365,678,cs),
(370,678,o),
(376,678,o),
(381,678,c),
(381,705,l),
(35,705,l),
(35,678,l),
(51,677,o),
(65,678,o),
(79,678,cs),
(112,678,o),
(136,674,o),
(136,632,cs),
(136,78,ls),
(136,20,o),
(90,29,o),
(35,27,c),
(35,0,l),
(381,0,l),
(381,27,l),
(326,29,o),
(279,20,o),
(279,78,cs),
(279,632,ls)
);
}
);
width = 416;
},
{
anchors = (
{
name = bottom;
pos = (190,0);
},
{
name = ogonek;
pos = (217,0);
},
{
name = top;
pos = (190,702);
},
{
name = topleft;
pos = (29,702);
}
);
layerId = "1881FB1F-FF0F-4B67-AF41-4B555E01DE13";
shapes = (
{
closed = 1;
nodes = (
(238,692,o),
(285,681,o),
(340,683,c),
(340,702,l),
(33,702,l),
(33,683,l),
(88,681,o),
(135,692,o),
(135,640,cs),
(135,66,ls),
(135,14,o),
(88,21,o),
(33,19,c),
(33,0,l),
(340,0,l),
(340,19,l),
(285,21,o),
(238,14,o),
(238,66,cs),
(238,640,ls)
);
}
);
width = 372.875;
}
);
metricLeft = "=H+10";
unicode = 73;
}
{
glyphname = J;
layers = (
{
layerId = m01;
shapes = (
{
closed = 1;
nodes = (
(24,-146,l),
(97,-136,o),
(224,-38,o),
(224,169,cs),
(224,645,ls),
(224,693,o),
(271,684,o),
(326,686,c),
(326,700,l),
(45,700,l),
(45,686,l),
(100,684,o),
(147,693,o),
(147,645,cs),
(147,92,ls),
(147,14,o),
(128,-111,o),
(20,-131,c)
);
}
);
width = 366;
},
{
anchors = (
{
name = bottom;
pos = (184,0);
},
{
name = top;
pos = (184,700);
}
);
associatedMasterId = m01;
layerId = "4EF47A43-EA9F-416F-884D-AC541148DC09";
name = Bold;
shapes = (
{
closed = 1;
nodes = (
(95,-56,l),
(-57,-163,l),
(-57,-190,l),
(78,-177,l),
(259,143,l),
(259,645,l),
(109,645,l),
(109,90,l)
);
},
{
closed = 1;
nodes = (
(292,675,l),
(349,678,l),
(349,700,l),
(19,700,l),
(19,678,l),
(76,675,l),
(109,630,l),
(259,630,l)
);
},
{
closed = 1;
nodes = (
(95,-56,l),
(-57,-163,l),
(-57,-190,l),
(78,-177,l),
(259,143,l),
(259,645,l),
(109,645,l),
(109,90,l)
);
},
{
closed = 1;
nodes = (
(292,675,l),
(349,678,l),
(349,700,l),
(19,700,l),
(19,678,l),
(76,675,l),
(109,630,l),
(259,630,l)
);
}
);
width = 368;
},
{
anchors = (
{
name = bottom;
pos = (184,0);
},
{
name = top;
pos = (184,700);
}
);
associatedMasterId = m01;
background = {
shapes = (
{
closed = 1;
nodes = (
(248,720,l),
(-62,720,l),
(-62,705,l),
(59,673,l),
(59,-36,ls),
(59,-54,o),
(53,-71,o),
(41,-87,c),
(32,-98,o),
(23,-106,o),
(14,-110,c),
(-59,-80,ls),
(-77,-73,o),
(-92,-69,o),
(-104,-69,cs),
(-125,-69,o),
(-135,-79,o),
(-135,-99,cs),
(-135,-129,o),
(-107,-144,o),
(-51,-144,cs),
(-2,-144,o),
(41,-130,o),
(78,-103,cs),
(123,-70,o),
(146,-24,o),
(146,35,cs),
(146,672,l),
(248,705,l)
);
}
);
};
layerId = "BACEC988-1472-4B32-A48E-D67C19AEEDF0";
name = Bold;
shapes = (
{
closed = 1;
nodes = (
(112,-66,l),
(-40,-61,l),
(-40,-190,l),
(95,-177,l),
(276,143,l),
(276,645,l),
(126,645,l),
(126,90,l)
);
},
{
closed = 1;
nodes = (
(309,675,l),
(353,678,l),
(353,700,l),
(18,700,l),
(18,678,l),
(93,675,l),
(126,630,l),
(276,630,l)
);
}
);
width = 368;
},
{
layerId = "2CB5E1B6-8A79-4562-81B9-46C99CEA2FC9";
shapes = (
{
closed = 1;
nodes = (
(12,-165,l),
(151,-150,o),
(307,-38,o),
(307,169,cs),
(307,637,ls),
(307,685,o),
(354,676,o),
(409,678,c),
(409,705,l),
(62,705,l),
(62,678,l),
(117,676,o),
(164,685,o),
(164,637,cs),
(164,92,ls),
(164,14,o),
(144,-108,o),
(6,-135,c)
);
}
);
width = 439;
},
{
layerId = "1881FB1F-FF0F-4B67-AF41-4B555E01DE13";
shapes = (
{
closed = 1;
nodes = (
(20,-153,l),
(117,-141,o),
(255,-38,o),
(255,169,cs),
(255,642,ls),
(255,690,o),
(302,681,o),
(357,683,c),
(357,702,l),
(51,702,l),
(51,683,l),
(106,681,o),
(153,690,o),
(153,642,cs),
(153,92,ls),
(153,14,o),
(134,-110,o),
(15,-133,c)
);
}
);
width = 393.375;
}
);
unicode = 74;
}
{
glyphname = K;
kernLeft = H;
kernRight = K;
layers = (
{
associatedMasterId = m01;
background = {
shapes = (
{
closed = 1;
nodes = (
(238,325,l),
(238,497,ls),
(238,640,o),
(241,640,o),
(340,640,c),
(340,662,l),
(47,662,l),
(47,640,l),
(140,640,o),
(142,636,o),
(142,497,cs),
(142,172,ls),
(142,44,o),
(143,22,o),
(59,22,cs),
(38,22,l),
(38,0,l),
(336,0,l),
(336,22,l),
(238,22,o),
(238,36,o),
(238,172,cs),
(238,293,l),
(286,335,l),
(475,144,ls),
(499,120,o),
(543,75,o),
(543,55,cs),
(543,22,o),
(499,22,o),
(447,22,c),
(447,0,l),
(791,0,l),
(791,22,l),
(725,22,o),
(692,55,o),
(650,97,cs),
(354,396,l),
(528,556,ls),
(621,642,o),
(664,639,o),
(690,640,c),
(690,662,l),
(441,662,l),
(441,640,l),
(462,639,o),
(511,638,o),
(511,597,cs),
(511,570,o),
(474,537,o),
(445,511,cs)
);
}
);
};
layerId = "1DD13091-D713-4FF0-918F-10A5DAFA0A07";
name = "Jan 6 19, 18:22";
shapes = (
{
closed = 1;
nodes = (
(126,0,l),
(201,0,l),
(201,700,l),
(126,700,l)
);
},
{
closed = 1;
nodes = (
(214,368,l),
(238,341,l),
(586,655,l),
(546,689,l)
);
},
{
closed = 1;
nodes = (
(578,0,l),
(716,0,l),
(716,16,l),
(656,25,l),
(602,60,l),
(578,60,l)
);
},
{
closed = 1;
nodes = (
(586,655,l),
(617,675,l),
(677,684,l),
(677,700,l),
(425,700,l),
(425,685,l),
(478,675,l),
(478,621,l)
);
},
{
closed = 1;
nodes = (
(245,398,l),
(214,368,l),
(501,45,l),
(575,0,l),
(665,0,l)
);
},
{
closed = 1;
nodes = (
(126,37,o),
(94,16,o),
(39,14,c),
(39,0,l),
(286,0,l),
(286,14,l),
(231,16,o),
(201,37,o),
(201,85,c),
(126,85,l)
);
},
{
closed = 1;
nodes = (
(201,615,l),
(201,663,o),
(231,684,o),
(286,686,c),
(286,700,l),
(39,700,l),
(39,686,l),
(94,684,o),
(126,663,o),
(126,615,c)
);
}
);
width = 726;
},
{
associatedMasterId = m01;
background = {
shapes = (
{
closed = 1;
nodes = (
(238,325,l),
(238,497,ls),
(238,640,o),
(241,640,o),
(340,640,c),
(340,662,l),
(47,662,l),
(47,640,l),
(140,640,o),
(142,636,o),
(142,497,cs),
(142,172,ls),
(142,44,o),
(143,22,o),
(59,22,cs),
(38,22,l),
(38,0,l),
(336,0,l),
(336,22,l),
(238,22,o),
(238,36,o),
(238,172,cs),
(238,293,l),
(286,335,l),
(475,144,ls),
(499,120,o),
(543,75,o),
(543,55,cs),
(543,22,o),
(499,22,o),
(447,22,c),
(447,0,l),
(791,0,l),
(791,22,l),
(725,22,o),
(692,55,o),
(650,97,cs),
(354,396,l),
(528,556,ls),
(621,642,o),
(664,639,o),
(690,640,c),
(690,662,l),
(441,662,l),
(441,640,l),
(462,639,o),
(511,638,o),
(511,597,cs),
(511,570,o),
(474,537,o),
(445,511,cs)
);
}
);
};
layerId = "3FE95B5A-437B-4BBE-8073-8B0213E73463";
name = "Jan 6 19, 18:24";
shapes = (
{
closed = 1;
nodes = (
(126,0,l),
(201,0,l),
(201,700,l),
(126,700,l)
);
},
{
closed = 1;
nodes = (
(177,314,l),
(201,287,l),
(586,655,l),
(546,689,l)
);
},
{
closed = 1;
nodes = (
(586,655,l),
(617,675,l),
(677,684,l),
(677,700,l),
(425,700,l),
(425,685,l),
(478,675,l),
(478,621,l)
);
},
{
closed = 1;
nodes = (
(126,37,o),
(94,16,o),
(39,14,c),
(39,0,l),
(286,0,l),
(286,14,l),
(231,16,o),
(201,37,o),
(201,85,c),
(126,85,l)
);
},
{
closed = 1;
nodes = (
(201,615,l),
(201,663,o),
(231,684,o),
(286,686,c),
(286,700,l),
(39,700,l),
(39,686,l),
(94,684,o),
(126,663,o),
(126,615,c)
);
},
{
closed = 1;
nodes = (
(427,251,o),
(375,341,o),
(358,341,cs),
(309,341,o),
(246,351,o),
(233,371,c),
(202,338,l),
(207,332,o),
(204,358,o),
(286,341,cs),
(375,323,o),
(393,131,o),
(472,41,cs),
(509,0,o),
(561,0,o),
(674,0,c),
(674,16,l),
(625,17,o),
(571,32,o),
(517,114,cs)
);
}
);
width = 726;
},
{
associatedMasterId = m01;
background = {
shapes = (
{
closed = 1;
nodes = (
(238,325,l),
(238,497,ls),
(238,640,o),
(241,640,o),
(340,640,c),
(340,662,l),
(47,662,l),
(47,640,l),
(140,640,o),
(142,636,o),
(142,497,cs),
(142,172,ls),
(142,44,o),
(143,22,o),
(59,22,cs),
(38,22,l),
(38,0,l),
(336,0,l),
(336,22,l),
(238,22,o),
(238,36,o),
(238,172,cs),
(238,293,l),
(286,335,l),
(475,144,ls),
(499,120,o),
(543,75,o),
(543,55,cs),
(543,22,o),
(499,22,o),
(447,22,c),
(447,0,l),
(791,0,l),
(791,22,l),
(725,22,o),
(692,55,o),
(650,97,cs),
(354,396,l),
(528,556,ls),
(621,642,o),
(664,639,o),
(690,640,c),
(690,662,l),
(441,662,l),
(441,640,l),
(462,639,o),
(511,638,o),
(511,597,cs),
(511,570,o),
(474,537,o),
(445,511,cs)
);
}
);
};
layerId = "8A4B31F0-060E-4F30-94A6-AF9A827A4E84";
name = "Jan 6 19, 18:27";
shapes = (
{
closed = 1;
nodes = (
(126,0,l),
(201,0,l),
(201,700,l),
(126,700,l)
);
},
{
closed = 1;
nodes = (
(173,304,l),
(201,287,l),
(586,655,l),
(586,689,l)
);
},
{
closed = 1;
nodes = (
(126,37,o),
(94,16,o),
(39,14,c),
(39,0,l),
(286,0,l),
(286,14,l),
(231,16,o),
(201,37,o),
(201,85,c),
(126,85,l)
);
},
{
closed = 1;
nodes = (
(201,615,l),
(201,663,o),
(231,684,o),
(286,686,c),
(286,700,l),
(39,700,l),
(39,686,l),
(94,684,o),
(126,663,o),
(126,615,c)
);
},
{
closed = 1;
nodes = (
(447,251,o),
(403,390,o),
(338,390,cs),
(290,390,o),
(278,377,o),
(234,357,c),
(249,338,l),
(254,332,o),
(223,371,o),
(306,371,cs),
(395,371,o),
(414,132,o),
(492,41,cs),
(528,-1,o),
(581,0,o),
(694,0,c),
(694,16,l),
(645,17,o),
(591,32,o),
(537,114,cs)
);
},
{
closed = 1;
nodes = (
(498,571,l),
(530,594,o),
(609,685,o),
(680,686,c),
(680,700,l),
(463,700,l),
(463,686,l),
(529,684,o),
(538,640,o),
(478,589,c)
);
}
);
width = 736;
},
{
associatedMasterId = m01;
background = {
shapes = (
{
closed = 1;
nodes = (
(238,325,l),
(238,497,ls),
(238,640,o),
(241,640,o),
(340,640,c),
(340,662,l),
(47,662,l),
(47,640,l),
(140,640,o),
(142,636,o),
(142,497,cs),
(142,172,ls),
(142,44,o),
(143,22,o),
(59,22,cs),
(38,22,l),
(38,0,l),
(336,0,l),
(336,22,l),
(238,22,o),
(238,36,o),
(238,172,cs),
(238,293,l),
(286,335,l),
(475,144,ls),
(499,120,o),
(543,75,o),
(543,55,cs),
(543,22,o),
(499,22,o),
(447,22,c),
(447,0,l),
(791,0,l),
(791,22,l),
(725,22,o),
(692,55,o),
(650,97,cs),
(354,396,l),
(528,556,ls),
(621,642,o),
(664,639,o),
(690,640,c),
(690,662,l),
(441,662,l),
(441,640,l),
(462,639,o),
(511,638,o),
(511,597,cs),
(511,570,o),
(474,537,o),
(445,511,cs)
);
}
);
};
layerId = "E18E224A-259A-4715-BF39-965F95C4DA45";
name = "Jan 9 19, 15:23";
shapes = (
{
closed = 1;
nodes = (
(126,0,l),
(201,0,l),
(201,700,l),
(126,700,l)
);
},
{
closed = 1;
nodes = (
(178,304,l),
(201,287,l),
(579,655,l),
(572,689,l)
);
},
{
closed = 1;
nodes = (
(126,37,o),
(94,16,o),
(39,14,c),
(39,0,l),
(286,0,l),
(286,14,l),
(231,16,o),
(201,37,o),
(201,85,c),
(126,85,l)
);
},
{
closed = 1;
nodes = (
(201,615,l),
(201,663,o),
(231,684,o),
(286,686,c),
(286,700,l),
(39,700,l),
(39,686,l),
(94,684,o),
(126,663,o),
(126,615,c)
);
},
{
closed = 1;
nodes = (
(491,571,l),
(523,594,o),
(602,685,o),
(673,686,c),
(673,700,l),
(449,700,l),
(449,686,l),
(525,684,o),
(522,640,o),
(469,589,c)
);
},
{
closed = 1;
nodes = (
(383,338,o),
(368,338,cs),
(325,338,o),
(307,369,o),
(295,387,c),
(273,378,l),
(325,317,o),
(419,124,o),
(496,36,cs),
(528,0,o),
(574,0,o),
(674,0,c),
(674,14,l),
(631,15,o),
(583,28,o),
(535,101,cs),
(456,222,o)
);
}
);
width = 736;
},
{
associatedMasterId = m01;
background = {
shapes = (
{
closed = 1;
nodes = (
(238,325,l),
(238,497,ls),
(238,640,o),
(241,640,o),
(340,640,c),
(340,662,l),
(47,662,l),
(47,640,l),
(140,640,o),
(142,636,o),
(142,497,cs),
(142,172,ls),
(142,44,o),
(143,22,o),
(59,22,cs),
(38,22,l),
(38,0,l),
(336,0,l),
(336,22,l),
(238,22,o),
(238,36,o),
(238,172,cs),
(238,293,l),
(286,335,l),
(475,144,ls),
(499,120,o),
(543,75,o),
(543,55,cs),
(543,22,o),
(499,22,o),
(447,22,c),
(447,0,l),
(791,0,l),
(791,22,l),
(725,22,o),
(692,55,o),
(650,97,cs),
(354,396,l),
(528,556,ls),
(621,642,o),
(664,639,o),
(690,640,c),
(690,662,l),
(441,662,l),
(441,640,l),
(462,639,o),
(511,638,o),
(511,597,cs),
(511,570,o),
(474,537,o),
(445,511,cs)
);
}
);
};
layerId = "CEF3D607-8617-4AE9-BA35-B1CBAC1EF92F";
name = "Jan 9 19, 15:24";
shapes = (
{
closed = 1;
nodes = (
(126,0,l),
(201,0,l),
(201,700,l),
(126,700,l)
);
},
{
closed = 1;
nodes = (
(178,304,l),
(201,287,l),
(579,655,l),
(572,689,l)
);
},
{
closed = 1;
nodes = (
(126,37,o),
(94,16,o),
(39,14,c),
(39,0,l),
(286,0,l),
(286,14,l),
(231,16,o),
(201,37,o),
(201,85,c),
(126,85,l)
);
},
{
closed = 1;
nodes = (
(201,615,l),
(201,663,o),
(231,684,o),
(286,686,c),
(286,700,l),
(39,700,l),
(39,686,l),
(94,684,o),
(126,663,o),
(126,615,c)
);
},
{
closed = 1;
nodes = (
(491,571,l),
(523,594,o),
(602,685,o),
(673,686,c),
(673,700,l),
(449,700,l),
(449,686,l),
(525,684,o),
(522,640,o),
(469,589,c)
);
},
{
closed = 1;
nodes = (
(383,338,o),
(368,338,cs),
(325,338,o),
(307,369,o),
(295,387,c),
(273,378,l),
(325,317,o),
(419,124,o),
(496,36,cs),
(528,0,o),
(574,0,o),
(674,0,c),
(674,14,l),
(631,15,o),
(583,28,o),
(535,101,cs),
(456,222,o)
);
}
);
width = 736;
},
{
anchors = (
{
name = bottom;
pos = (389,0);
},
{
name = top;
pos = (349,700);
}
);
layerId = m01;
metricLeft = "=H";
shapes = (
{
closed = 1;
nodes = (
(280,388,l),
(381,257,o),
(470,133,o),
(569,0,c),
(731,0,l),
(731,14,l),
(699,15,ls),
(662,16,o),
(644,25,o),
(625,47,cs),
(583,94,o),
(404,348,o),
(337,436,c)
);
},
{
closed = 1;
nodes = (
(203,645,ls),
(203,693,o),
(250,684,o),
(305,686,c),
(305,700,l),
(22,700,l),
(22,686,l),
(77,684,o),
(124,693,o),
(124,645,cs),
(124,60,ls),
(124,12,o),
(77,16,o),
(22,14,c),
(22,0,l),
(305,0,l),
(305,14,l),
(250,16,o),
(203,12,o),
(203,60,cs)
);
},
{
closed = 1;
nodes = (
(558,637,ls),
(588,666,o),
(606,685,o),
(684,686,c),
(684,700,l),
(448,700,l),
(448,686,l),
(489,685,o),
(520,690,o),
(520,660,cs),
(520,642,o),
(506,624,o),
(456,576,cs),
(191,324,l),
(197,288,l)
);
}
);
width = 695;
},
{
anchors = (
{
name = bottom;
pos = (365,0);
},
{
name = top;
pos = (365,700);
}
);
associatedMasterId = m01;
layerId = "4EF47A43-EA9F-416F-884D-AC541148DC09";
name = Bold;
shapes = (
{
closed = 1;
nodes = (
(98,0,l),
(248,0,l),
(248,700,l),
(98,700,l)
);
},
{
closed = 1;
nodes = (
(64,25,l),
(8,22,l),
(8,0,l),
(338,0,l),
(338,22,l),
(281,25,l),
(248,70,l),
(98,70,l)
);
},
{
closed = 1;
nodes = (
(248,630,l),
(281,675,l),
(338,678,l),
(338,700,l),
(8,700,l),
(8,678,l),
(64,675,l),
(97,630,l)
);
},
{
closed = 1;
nodes = (
(277,349,l),
(535,0,l),
(770,0,l),
(770,22,l),
(686,31,l),
(635,81,l),
(377,428,l)
);
},
{
closed = 1;
nodes = (
(192,293,l),
(220,257,l),
(621,648,l),
(573,689,l)
);
},
{
closed = 1;
nodes = (
(614,642,l),
(662,675,l),
(722,678,l),
(722,700,l),
(409,700,l),
(409,678,l),
(483,675,l),
(483,566,l)
);
}
);
width = 730;
},
{
anchors = (
{
name = bottom;
pos = (346,0);
},
{
name = top;
pos = (346,700);
}
);
associatedMasterId = m01;
layerId = "E2B67FFA-B2F8-421D-B943-40B1EE7EE706";
name = "Sep 7 21, 15:17";
shapes = (
{
closed = 1;
nodes = (
(302,0,l),
(302,14,l),
(247,16,o),
(200,12,o),
(200,60,cs),
(200,294,l),
(555,637,ls),
(585,666,o),
(603,685,o),
(681,686,c),
(681,700,l),
(451,700,l),
(451,686,l),
(492,685,o),
(523,690,o),
(523,660,cs),
(523,642,o),
(509,624,o),
(459,576,cs),
(200,328,l),
(200,645,ls),
(200,693,o),
(247,684,o),
(302,686,c),
(302,700,l),
(23,700,l),
(23,686,l),
(78,684,o),
(125,693,o),
(125,645,cs),
(125,60,ls),
(125,12,o),
(78,16,o),
(23,14,c),
(23,0,l)
);
},
{
closed = 1;
nodes = (
(595,35,o),
(409,333,o),
(337,428,c),
(282,377,l),
(380,250,o),
(506,0,o),
(648,0,cs),
(703,0,l),
(703,13,l),
(658,22,ls)
);
},
{
closed = 0;
nodes = (
(566,0,l),
(728,0,l),
(728,14,l),
(696,15,ls),
(659,16,o),
(642,26,o),
(622,47,cs)
);
}
);
width = 692;
},
{
anchors = (
{
name = bottom;
pos = (365,0);
},
{
name = top;
pos = (365,700);
}
);
associatedMasterId = m01;
background = {
shapes = (
{
closed = 1;
nodes = (
(714,15,l),
(600,48,l),
(344,410,l),
(572,672,l),
(674,705,l),
(674,720,l),
(406,720,l),
(406,705,l),
(507,672,l),
(277,371,l),
(382,218,l),
(486,48,l),
(391,15,l),
(391,0,l),
(714,0,l)
);
},
{
closed = 1;
nodes = (
(316,15,l),
(224,48,l),
(224,672,l),
(316,705,l),
(316,720,l),
(35,720,l),
(35,705,l),
(137,672,l),
(137,48,l),
(35,15,l),
(35,0,l),
(316,0,l)
);
}
);
};
layerId = "2A3D7468-C107-4E5A-B6E3-A223AC3ECC14";
name = Bold;
shapes = (
{
closed = 1;
nodes = (
(98,0,l),
(248,0,l),
(248,700,l),
(98,700,l)
);
},
{
closed = 1;
nodes = (
(64,25,l),
(20,22,l),
(20,0,l),
(325,0,l),
(325,22,l),
(281,25,l),
(248,70,l),
(98,70,l)
);
},
{
closed = 1;
nodes = (
(248,630,l),
(281,675,l),
(325,678,l),
(325,700,l),
(20,700,l),
(20,678,l),
(64,675,l),
(97,630,l)
);
},
{
closed = 1;
nodes = (
(261,370,l),
(453,37,l),
(572,0,l),
(740,0,l),
(740,22,l),
(696,25,l),
(645,70,l),
(396,370,l)
);
},
{
closed = 1;
nodes = (
(261,370,l),
(289,334,l),
(621,648,l),
(573,689,l)
);
},
{
closed = 1;
nodes = (
(614,642,l),
(662,675,l),
(706,678,l),
(706,700,l),
(409,700,l),
(409,678,l),
(453,675,l),
(453,566,l)
);
}
);
width = 730;
},
{
anchors = (
{
name = bottom;
pos = (458,0);
},
{
name = top;
pos = (378,705);
}
);
layerId = "2CB5E1B6-8A79-4562-81B9-46C99CEA2FC9";
shapes = (
{
closed = 1;
nodes = (
(307,358,l),
(393,239,o),
(480,119,o),
(566,0,c),
(788,0,l),
(788,27,l),
(756,29,ls),
(739,30,o),
(697,35,o),
(662,82,cs),
(573,203,o),
(483,325,o),
(394,446,c)
);
},
{
closed = 1;
nodes = (
(270,637,ls),
(270,685,o),
(317,676,o),
(372,678,c),
(372,705,l),
(25,705,l),
(25,678,l),
(80,676,o),
(127,685,o),
(127,637,cs),
(127,73,ls),
(127,25,o),
(80,29,o),
(25,27,c),
(25,0,l),
(372,0,l),
(372,27,l),
(317,29,o),
(270,25,o),
(270,73,cs)
);
},
{
closed = 1;
nodes = (
(625,629,ls),
(655,658,o),
(673,677,o),
(751,678,c),
(751,705,l),
(465,705,l),
(465,678,l),
(536,677,o),
(571,682,o),
(571,652,cs),
(571,634,o),
(554,622,o),
(503,574,cs),
(250,334,l),
(264,288,l)
);
}
);
width = 758;
},
{
anchors = (
{
name = bottom;
pos = (415,0);
},
{
name = top;
pos = (360,702);
}
);
layerId = "1881FB1F-FF0F-4B67-AF41-4B555E01DE13";
shapes = (
{
closed = 1;
nodes = (
(290,377,l),
(386,250,o),
(474,128,o),
(568,0,c),
(752,0,l),
(752,19,l),
(720,20,ls),
(691,21,o),
(664,29,o),
(639,60,cs),
(579,135,o),
(434,339,o),
(358,440,c)
);
},
{
closed = 1;
nodes = (
(228,642,ls),
(228,690,o),
(275,681,o),
(330,683,c),
(330,702,l),
(23,702,l),
(23,683,l),
(78,681,o),
(125,690,o),
(125,642,cs),
(125,65,ls),
(125,17,o),
(78,21,o),
(23,19,c),
(23,0,l),
(330,0,l),
(330,19,l),
(275,21,o),
(228,17,o),
(228,65,cs)
);
},
{
closed = 1;
nodes = (
(583,634,ls),
(613,663,o),
(631,682,o),
(709,683,c),
(709,702,l),
(454,702,l),
(454,683,l),
(507,682,o),
(539,687,o),
(539,657,cs),
(539,639,o),
(524,623,o),
(474,575,cs),
(213,328,l),
(222,288,l)
);
}
);
width = 718.625;
}
);
metricLeft = H;
unicode = 75;
}
{
glyphname = L;
kernLeft = H;
kernRight = L;
layers = (
{
anchors = (
{
name = bottom;
pos = (322,0);
},
{
name = center;
pos = (322,350);
},
{
name = top;
pos = (165,713);
},
{
name = topright;
pos = (629,700);
}
);
layerId = m01;
shapes = (
{
closed = 1;
nodes = (
(602,0,l),
(628,222,l),
(609,222,l),
(589,108,o),
(555,25,o),
(463,25,cs),
(203,25,l),
(203,645,ls),
(203,693,o),
(250,684,o),
(305,686,c),
(305,700,l),
(22,700,l),
(22,686,l),
(77,684,o),
(124,693,o),
(124,645,cs),
(124,65,ls),
(124,17,o),
(107,16,o),
(22,14,c),
(22,0,l)
);
}
);
width = 643;
},
{
associatedMasterId = m01;
background = {
shapes = (
{
closed = 1;
nodes = (
(605,195,l),
(583,195,l),
(537,44,o),
(502,22,o),
(387,22,cs),
(337,22,ls),
(238,22,o),
(238,36,o),
(238,151,cs),
(238,497,ls),
(238,632,o),
(240,640,o),
(327,640,cs),
(356,640,l),
(356,662,l),
(38,662,l),
(38,640,l),
(53,640,ls),
(140,640,o),
(142,631,o),
(142,497,cs),
(142,172,ls),
(142,44,o),
(142,22,o),
(58,22,cs),
(38,22,l),
(38,0,l),
(601,0,l)
);
}
);
};
layerId = "BC9B1A77-96E2-4C3E-9531-E0DCAEC4771E";
name = "Jan 6 19, 17:09";
shapes = (
{
closed = 1;
nodes = (
(126,0,l),
(202,0,l),
(202,700,l),
(126,700,l)
);
},
{
closed = 1;
nodes = (
(591,0,l),
(591,40,l),
(202,25,l),
(202,0,l)
);
},
{
closed = 1;
nodes = (
(601,149,l),
(586,149,l),
(525,58,l),
(401,0,l),
(591,0,l)
);
},
{
closed = 1;
nodes = (
(93,25,l),
(40,15,l),
(40,0,l),
(162,0,l),
(161,45,l),
(126,45,l)
);
},
{
closed = 1;
nodes = (
(202,655,l),
(233,675,l),
(286,685,l),
(286,700,l),
(40,700,l),
(40,685,l),
(93,675,l),
(126,655,l)
);
}
);
width = 601;
},
{
anchors = (
{
name = bottom;
pos = (312,0);
},
{
name = center;
pos = (312,350);
},
{
name = top;
pos = (190,700);
},
{
name = topright;
pos = (590,700);
}
);
associatedMasterId = m01;
layerId = "4EF47A43-EA9F-416F-884D-AC541148DC09";
name = Bold;
shapes = (
{
closed = 1;
nodes = (
(110,0,l),
(260,0,l),
(260,700,l),
(110,700,l)
);
},
{
closed = 1;
nodes = (
(77,25,l),
(20,22,l),
(20,0,l),
(337,0,l),
(337,22,l),
(313,25,l),
(260,90,l),
(110,70,l)
);
},
{
closed = 1;
nodes = (
(260,630,l),
(293,675,l),
(350,678,l),
(350,700,l),
(20,700,l),
(20,678,l),
(77,675,l),
(110,630,l)
);
},
{
closed = 1;
nodes = (
(260,0,l),
(559,0,l),
(559,60,l),
(260,45,l)
);
},
{
closed = 1;
nodes = (
(604,222,l),
(579,222,l),
(509,85,l),
(386,20,l),
(386,0,l),
(572,0,l)
);
}
);
width = 610;
},
{
anchors = (
{
name = bottom;
pos = (352,0);
},
{
name = center;
pos = (342,353);
},
{
name = top;
pos = (201,705);
},
{
name = topright;
pos = (662,705);
}
);
layerId = "2CB5E1B6-8A79-4562-81B9-46C99CEA2FC9";
shapes = (
{
closed = 1;
nodes = (
(635,0,l),
(667,247,l),
(637,247,l),
(604,67,o),
(530,36,o),
(455,36,cs),
(271,36,l),
(271,617,ls),
(270,680,o),
(297,675,o),
(402,678,c),
(402,705,l),
(25,705,l),
(25,678,l),
(100,675,o),
(128,680,o),
(128,617,cs),
(128,68,ls),
(128,25,o),
(100,30,o),
(25,27,c),
(25,0,l)
);
}
);
width = 682;
},
{
anchors = (
{
name = bottom;
pos = (333,0);
},
{
name = center;
pos = (330,351);
},
{
name = top;
pos = (179,710);
},
{
name = topright;
pos = (641,702);
}
);
layerId = "1881FB1F-FF0F-4B67-AF41-4B555E01DE13";
shapes = (
{
closed = 1;
nodes = (
(614,0,l),
(643,231,l),
(620,231,l),
(595,93,o),
(546,29,o),
(460,29,cs),
(229,29,l),
(229,635,ls),
(228,688,o),
(268,681,o),
(341,683,c),
(341,702,l),
(23,702,l),
(23,683,l),
(86,681,o),
(126,688,o),
(126,635,cs),
(126,66,ls),
(126,20,o),
(104,21,o),
(23,19,c),
(23,0,l)
);
}
);
width = 657.625;
}
);
metricLeft = H;
unicode = 76;
}
{
glyphname = M;
kernLeft = H;
kernRight = H;
layers = (
{
layerId = m01;
metricLeft = "=H";
metricRight = "=H";
shapes = (
{
closed = 1;
nodes = (
(96,683,o),
(123,688,o),
(123,645,cs),
(124,54,ls),
(124,12,o),
(76,16,o),
(22,14,c),
(22,0,l),
(257,0,l),
(257,14,l),
(202,16,o),
(162,12,o),
(162,54,cs),
(162,559,l),
(156,625,l),
(427,0,l),
(456,0,l),
(709,625,l),
(705,559,l),
(705,54,ls),
(705,8,o),
(653,16,o),
(598,14,c),
(598,0,l),
(879,0,l),
(879,14,l),
(822,16,o),
(777,8,o),
(777,54,cs),
(777,645,ls),
(777,688,o),
(805,683,o),
(879,686,c),
(879,700,l),
(707,700,l),
(461,99,l),
(198,700,l),
(22,700,l),
(22,686,l)
);
}
);
width = 901;
},
{
anchors = (
{
name = bottom;
pos = (449,0);
},
{
name = top;
pos = (449,700);
}
);
associatedMasterId = m01;
layerId = "4EF47A43-EA9F-416F-884D-AC541148DC09";
metricLeft = "=H";
metricRight = "=H";
name = Bold;
shapes = (
{
closed = 1;
nodes = (
(648,0,l),
(798,0,l),
(798,700,l),
(648,700,l)
);
},
{
closed = 1;
nodes = (
(113,700,l),
(376,0,l),
(425,0,l),
(702,700,l),
(638,700,l),
(452,242,l),
(277,700,l)
);
},
{
closed = 1;
nodes = (
(101,0,l),
(166,0,l),
(164,655,l),
(99,655,l)
);
},
{
closed = 0;
nodes = (
(111,0,l)
);
},
{
closed = 1;
nodes = (
(70,25,l),
(20,22,l),
(20,0,l),
(252,0,l),
(252,22,l),
(197,25,l),
(166,90,l),
(101,90,l)
);
},
{
closed = 1;
nodes = (
(615,25,l),
(558,22,l),
(558,0,l),
(888,0,l),
(888,22,l),
(831,25,l),
(798,70,l),
(648,70,l)
);
},
{
closed = 1;
nodes = (
(798,630,l),
(831,675,l),
(888,678,l),
(888,700,l),
(745,700,l),
(745,630,l)
);
},
{
closed = 1;
nodes = (
(162,700,l),
(20,700,l),
(20,678,l),
(66,675,l),
(99,630,l),
(162,630,l)
);
}
);
width = 908;
},
{
layerId = "2CB5E1B6-8A79-4562-81B9-46C99CEA2FC9";
shapes = (
{
closed = 1;
nodes = (
(40,677,o),
(54,677,o),
(66,677,cs),
(101,677,o),
(126,675,o),
(126,632,cs),
(126,78,ls),
(126,24,o),
(80,29,o),
(25,27,c),
(25,0,l),
(278,0,l),
(278,27,l),
(223,29,o),
(176,24,o),
(176,78,cs),
(176,578,l),
(173,624,l),
(455,-2,l),
(485,-2,l),
(722,624,l),
(718,578,l),
(718,78,ls),
(718,24,o),
(671,29,o),
(616,27,c),
(616,0,l),
(961,0,l),
(961,27,l),
(906,29,o),
(860,24,o),
(860,78,cs),
(860,632,ls),
(860,681,o),
(892,677,o),
(935,677,cs),
(944,677,o),
(952,677,o),
(961,678,c),
(961,705,l),
(705,705,l),
(506,203,l),
(283,705,l),
(25,705,l),
(25,678,l)
);
}
);
width = 986;
},
{
layerId = "1881FB1F-FF0F-4B67-AF41-4B555E01DE13";
shapes = (
{
closed = 1;
nodes = (
(90,680,o),
(124,689,o),
(124,640,cs),
(125,63,ls),
(125,17,o),
(78,21,o),
(23,19,c),
(23,0,l),
(265,0,l),
(265,19,l),
(210,21,o),
(167,17,o),
(167,63,cs),
(167,566,l),
(162,625,l),
(438,-1,l),
(467,-1,l),
(714,625,l),
(710,566,l),
(710,63,ls),
(710,14,o),
(660,21,o),
(605,19,c),
(605,0,l),
(910,0,l),
(910,19,l),
(854,21,o),
(808,14,o),
(808,63,cs),
(808,640,ls),
(808,689,o),
(843,680,o),
(910,683,c),
(910,702,l),
(706,702,l),
(478,138,l),
(230,702,l),
(23,702,l),
(23,683,l)
);
}
);
width = 932.875;
}
);
metricLeft = "=H";
metricRight = "=H";
unicode = 77;
}
{
glyphname = N;
kernLeft = H;
kernRight = N;
layers = (
{
anchors = (
{
name = bottom;
pos = (373,0);
},
{
name = top;
pos = (382,700);
}
);
associatedMasterId = m01;
guides = (
{
angle = 124.7164;
pos = (511,350);
}
);
layerId = "4EF47A43-EA9F-416F-884D-AC541148DC09";
metricLeft = "=H";
metricRight = "=H";
name = Bold;
shapes = (
{
closed = 1;
nodes = (
(593,134,l),
(613,0,l),
(658,0,l),
(658,699,l),
(593,699,l)
);
},
{
closed = 1;
nodes = (
(110,0,l),
(175,0,l),
(174,655,l),
(109,655,l)
);
},
{
closed = 1;
nodes = (
(78,700,l),
(583,0,l),
(648,0,l),
(648,180,l),
(268,700,l)
);
},
{
closed = 0;
nodes = (
(110,0,l)
);
},
{
closed = 1;
nodes = (
(77,25,l),
(20,22,l),
(20,0,l),
(265,0,l),
(265,22,l),
(206,25,l),
(175,90,l),
(110,90,l)
);
},
{
closed = 1;
nodes = (
(657,610,l),
(688,675,l),
(747,678,l),
(747,700,l),
(503,700,l),
(503,678,l),
(560,675,l),
(593,610,l)
);
},
{
closed = 1;
nodes = (
(162,700,l),
(20,700,l),
(20,678,l),
(76,675,l),
(109,630,l),
(172,630,l)
);
}
);
width = 767;
},
{
anchors = (
{
name = bottom;
pos = (397,0);
},
{
name = top;
pos = (397,700);
}
);
associatedMasterId = m01;
layerId = "9A410641-3239-4371-B1CD-89E37E7DD894";
metricLeft = "=H";
metricRight = "=H";
name = "Sep 7 21, 15:53";
shapes = (
{
closed = 1;
nodes = (
(265,0,l),
(265,14,l),
(210,16,o),
(170,17,o),
(170,65,cs),
(170,601,l),
(628,0,l),
(666,0,l),
(666,635,ls),
(666,683,o),
(683,684,o),
(768,686,c),
(768,700,l),
(527,700,l),
(527,686,l),
(612,684,o),
(629,683,o),
(629,635,cs),
(629,122,l),
(188,700,l),
(31,700,l),
(31,686,l),
(102,684,o),
(132,694,o),
(132,635,cs),
(132,65,ls),
(132,17,o),
(75,16,o),
(30,14,c),
(30,0,l)
);
}
);
width = 795;
},
{
anchors = (
{
name = bottom;
pos = (388,0);
},
{
name = top;
pos = (388,700);
}
);
layerId = m01;
metricLeft = "=H";
metricRight = "=H-10";
shapes = (
{
closed = 1;
nodes = (
(171,591,l),
(619,0,l),
(657,0,l),
(657,635,ls),
(657,683,o),
(674,684,o),
(759,686,c),
(759,700,l),
(518,700,l),
(518,686,l),
(603,684,o),
(620,683,o),
(620,635,cs),
(620,119,l),
(179,700,l),
(22,700,l),
(22,686,l),
(91,684,o),
(97,684,o),
(133,637,c),
(133,54,ls),
(133,12,o),
(85,16,o),
(31,14,c),
(31,0,l),
(266,0,l),
(266,14,l),
(211,16,o),
(171,12,o),
(171,54,cs)
);
}
);
width = 771;
},
{
anchors = (
{
name = bottom;
pos = (408,0);
},
{
name = top;
pos = (408,705);
}
);
layerId = "2CB5E1B6-8A79-4562-81B9-46C99CEA2FC9";
shapes = (
{
closed = 1;
nodes = (
(186,559,l),
(627,0,l),
(692,0,l),
(692,625,l),
(692,675,o),
(732,678,o),
(796,678,c),
(796,705,l),
(540,705,l),
(540,678,l),
(625,676,o),
(642,675,o),
(642,625,c),
(642,206,l),
(244,705,l),
(25,705,l),
(25,678,l),
(94,676,o),
(100,676,o),
(136,633,c),
(136,78,ls),
(136,30,o),
(88,29,o),
(25,27,c),
(25,0,l),
(288,0,l),
(288,27,l),
(213,29,o),
(186,30,o),
(186,78,cs)
);
}
);
width = 816;
},
{
anchors = (
{
name = bottom;
pos = (396,0);
},
{
name = top;
pos = (396,702);
}
);
layerId = "1881FB1F-FF0F-4B67-AF41-4B555E01DE13";
shapes = (
{
closed = 1;
nodes = (
(177,579,l),
(622,0,l),
(670,0,l),
(670,631,ls),
(670,680,o),
(696,682,o),
(773,683,c),
(773,702,l),
(526,702,l),
(526,683,l),
(611,681,o),
(628,680,o),
(628,631,cs),
(628,152,l),
(203,702,l),
(23,702,l),
(23,683,l),
(92,681,o),
(98,681,o),
(134,636,c),
(134,63,ls),
(134,19,o),
(86,21,o),
(29,19,c),
(29,0,l),
(274,0,l),
(274,19,l),
(212,21,o),
(177,19,o),
(177,63,cs)
);
}
);
width = 787.875;
}
);
metricLeft = "=H";
unicode = 78;
}
{
glyphname = O;
kernLeft = O;
kernRight = O;
layers = (
{
anchors = (
{
name = bottom;
pos = (386,0);
},
{
name = center;
pos = (386,350);
},
{
name = ogonek;
pos = (695,10);
},
{
name = top;
pos = (386,700);
},
{
name = topleft;
pos = (20,700);
},
{
name = topright;
pos = (752,700);
}
);
layerId = m01;
shapes = (
{
closed = 1;
nodes = (
(592,-11,o),
(727,162,o),
(727,351,cs),
(727,550,o),
(592,713,o),
(387,713,cs),
(182,713,o),
(45,550,o),
(45,351,cs),
(45,162,o),
(182,-11,o),
(387,-11,cs)
);
},
{
closed = 1;
nodes = (
(549,683,o),
(636,541,o),
(636,351,cs),
(636,182,o),
(549,22,o),
(387,22,cs),
(225,22,o),
(136,182,o),
(136,351,cs),
(136,541,o),
(225,683,o),
(387,683,cs)
);
}
);
width = 772;
},
{
anchors = (
{
name = bottom;
pos = (376,0);
},
{
name = center;
pos = (376,350);
},
{
name = ogonek;
pos = (673,10);
},
{
name = top;
pos = (376,700);
},
{
name = topleft;
pos = (25,700);
},
{
name = topright;
pos = (727,700);
}
);
associatedMasterId = m01;
background = {
shapes = (
{
closed = 1;
nodes = (
(59,116,o),
(218,-12,o),
(419,-12,cs),
(639,-12,o),
(780,130,o),
(780,332,cs),
(780,569,o),
(596,674,o),
(416,674,cs),
(236,674,o),
(59,561,o),
(59,336,cs)
);
},
{
closed = 1;
nodes = (
(171,471,o),
(213,650,o),
(419,650,cs),
(648,650,o),
(668,427,o),
(668,331,cs),
(668,219,o),
(640,12,o),
(423,12,cs),
(249,12,o),
(171,126,o),
(171,332,cs)
);
}
);
};
layerId = "B0A611D5-1FD6-4E2B-A936-26E13A8AB6E0";
name = "Jan 27 20, 23:30";
shapes = (
{
closed = 1;
nodes = (
(172,-13,o),
(35,143,o),
(35,351,cs),
(35,564,o),
(165,713,o),
(373,713,cs),
(581,713,o),
(717,562,o),
(717,351,cs),
(717,139,o),
(585,-13,o),
(379,-13,cs)
);
},
{
closed = 1;
nodes = (
(162,659,o),
(92,484,o),
(116,306,cs),
(140,140,o),
(271,7,o),
(430,22,cs),
(588,36,o),
(664,229,o),
(635,409,cs),
(611,567,o),
(473,705,o),
(316,683,cs)
);
}
);
width = 752;
},
{
anchors = (
{
name = bottom;
pos = (376,0);
},
{
name = center;
pos = (376,350);
},
{
name = ogonek;
pos = (673,10);
},
{
name = top;
pos = (376,700);
},
{
name = topleft;
pos = (25,700);
},
{
name = topright;
pos = (727,700);
}
);
associatedMasterId = m01;
background = {
shapes = (
{
closed = 1;
nodes = (
(59,116,o),
(218,-12,o),
(419,-12,cs),
(639,-12,o),
(780,130,o),
(780,332,cs),
(780,569,o),
(596,674,o),
(416,674,cs),
(236,674,o),
(59,561,o),
(59,336,cs)
);
},
{
closed = 1;
nodes = (
(171,471,o),
(213,650,o),
(419,650,cs),
(648,650,o),
(668,427,o),
(668,331,cs),
(668,219,o),
(640,12,o),
(423,12,cs),
(249,12,o),
(171,126,o),
(171,332,cs)
);
}
);
};
layerId = "1E84219F-FF81-4A8C-A9EF-087E2EBDAC46";
name = "Mar 9 20, 17:22";
shapes = (
{
closed = 1;
nodes = (
(172,-13,o),
(35,137,o),
(35,342,cs),
(35,561,o),
(165,713,o),
(373,713,cs),
(581,713,o),
(718,561,o),
(718,365,cs),
(718,137,o),
(585,-13,o),
(379,-13,cs)
);
},
{
closed = 1;
nodes = (
(175,681,o),
(119,484,o),
(119,365,cs),
(119,151,o),
(250,24,o),
(396,24,cs),
(568,24,o),
(633,207,o),
(633,342,cs),
(633,567,o),
(504,681,o),
(373,681,cs)
);
}
);
width = 752;
},
{
anchors = (
{
name = bottom;
pos = (376,0);
},
{
name = center;
pos = (376,350);
},
{
name = ogonek;
pos = (673,10);
},
{
name = top;
pos = (376,700);
},
{
name = topleft;
pos = (25,700);
},
{
name = topright;
pos = (727,700);
}
);
associatedMasterId = m01;
background = {
shapes = (
{
closed = 1;
nodes = (
(59,116,o),
(218,-12,o),
(419,-12,cs),
(639,-12,o),
(780,130,o),
(780,332,cs),
(780,569,o),
(596,674,o),
(416,674,cs),
(236,674,o),
(59,561,o),
(59,336,cs)
);
},
{
closed = 1;
nodes = (
(171,471,o),
(213,650,o),
(419,650,cs),
(648,650,o),
(668,427,o),
(668,331,cs),
(668,219,o),
(640,12,o),
(423,12,cs),
(249,12,o),
(171,126,o),
(171,332,cs)
);
}
);
};
layerId = "220342B9-9CF3-471E-A427-7EC6BD3E8A11";
name = "Mar 9 20, 17:34";
shapes = (
{
closed = 1;
nodes = (
(172,-13,o),
(35,137,o),
(35,342,cs),
(35,561,o),
(165,713,o),
(373,713,cs),
(581,713,o),
(718,561,o),
(718,365,cs),
(718,137,o),
(585,-13,o),
(379,-13,cs)
);
},
{
closed = 1;
nodes = (
(105,501,o),
(131,306,cs),
(152,150,o),
(258,30,o),
(396,25,cs),
(585,25,o),
(654,215,o),
(623,409,cs),
(599,560,o),
(489,679,o),
(355,679,cs),
(183,679,o)
);
}
);
width = 752;
},
{
anchors = (
{
name = bottom;
pos = (404,0);
},
{
name = center;
pos = (404,350);
},
{
name = ogonek;
pos = (727,10);
},
{
name = top;
pos = (393,700);
},
{
name = topleft;
pos = (20,700);
},
{
name = topright;
pos = (788,700);
}
);
associatedMasterId = m01;
layerId = "4EF47A43-EA9F-416F-884D-AC541148DC09";
name = Bold;
shapes = (
{
closed = 1;
nodes = (
(354,-13,l),
(107,104,l),
(30,409,l),
(181,657,l),
(448,713,l),
(694,590,l),
(778,312,l),
(622,38,l)
);
},
{
closed = 1;
nodes = (
(206,580,l),
(210,303,l),
(323,69,l),
(478,50,l),
(602,129,l),
(592,397,l),
(473,637,l),
(334,657,l)
);
}
);
width = 808;
},
{
anchors = (
{
name = bottom;
pos = (422,0);
},
{
name = center;
pos = (422,353);
},
{
name = ogonek;
pos = (760,10);
},
{
name = top;
pos = (422,705);
},
{
name = topleft;
pos = (20,705);
},
{
name = topright;
pos = (824,705);
}
);
layerId = "2CB5E1B6-8A79-4562-81B9-46C99CEA2FC9";
shapes = (
{
closed = 1;
nodes = (
(620,-11,o),
(794,150,o),
(794,354,cs),
(794,568,o),
(622,720,o),
(422,720,cs),
(205,720,o),
(50,565,o),
(50,354,cs),
(50,154,o),
(200,-11,o),
(422,-11,cs)
);
},
{
closed = 1;
nodes = (
(550,681,o),
(634,552,o),
(634,354,cs),
(634,180,o),
(550,31,o),
(422,31,cs),
(294,31,o),
(210,180,o),
(210,354,cs),
(210,552,o),
(294,681,o),
(422,681,cs)
);
}
);
width = 844;
},
{
associatedMasterId = "2CB5E1B6-8A79-4562-81B9-46C99CEA2FC9";
layerId = "222BE246-9F62-48F5-A8E3-05F5561B9FD1";
name = "29 dic 21, 12:24";
shapes = (
{
closed = 1;
nodes = (
(198,-13,o),
(48,154,o),
(48,354,cs),
(48,565,o),
(203,720,o),
(411,720,cs),
(620,720,o),
(782,568,o),
(782,362,cs),
(782,150,o),
(618,-13,o),
(417,-13,cs)
);
},
{
closed = 1;
nodes = (
(281,682,o),
(205,567,o),
(205,379,cs),
(205,161,o),
(303,28,o),
(432,28,cs),
(554,28,o),
(625,154,o),
(625,355,cs),
(625,556,o),
(530,682,o),
(408,682,cs)
);
}
);
width = 830;
},
{
anchors = (
{
name = bottom;
pos = (382,0);
},
{
name = center;
pos = (382,350);
},
{
name = ogonek;
pos = (679,10);
},
{
name = top;
pos = (380,700);
},
{
name = topleft;
pos = (31,700);
},
{
name = topright;
pos = (733,700);
}
);
associatedMasterId = m01;
layerId = "4787FE4F-3785-4DF7-A9E0-7BCD840B8391";
name = "29 dic 21, 12:26";
shapes = (
{
closed = 1;
nodes = (
(168,-11,o),
(45,164,o),
(45,350,cs),
(45,548,o),
(173,713,o),
(381,713,cs),
(590,713,o),
(725,551,o),
(725,358,cs),
(725,160,o),
(588,-11,o),
(387,-11,cs)
);
},
{
closed = 1;
nodes = (
(211,681,o),
(136,536,o),
(136,375,cs),
(136,195,o),
(233,24,o),
(402,24,cs),
(565,24,o),
(636,188,o),
(636,341,cs),
(636,525,o),
(531,681,o),
(371,681,cs)
);
}
);
width = 770;
},
{
anchors = (
{
name = bottom;
pos = (400,0);
},
{
name = center;
pos = (400,351);
},
{
name = ogonek;
pos = (719,10);
},
{
name = top;
pos = (400,702);
},
{
name = topleft;
pos = (20,702);
},
{
name = topright;
pos = (779,702);
}
);
layerId = "1881FB1F-FF0F-4B67-AF41-4B555E01DE13";
shapes = (
{
closed = 1;
nodes = (
(603,-11,o),
(752,158,o),
(752,352,cs),
(752,557,o),
(603,716,o),
(400,716,cs),
(191,716,o),
(47,556,o),
(47,352,cs),
(47,159,o),
(189,-11,o),
(400,-11,cs)
);
},
{
closed = 1;
nodes = (
(549,682,o),
(635,545,o),
(635,352,cs),
(635,181,o),
(549,25,o),
(400,25,cs),
(251,25,o),
(164,181,o),
(164,352,cs),
(164,545,o),
(251,682,o),
(400,682,cs)
);
}
);
width = 799;
}
);
unicode = 79;
}
{
glyphname = P;
kernLeft = H;
kernRight = P;
layers = (
{
layerId = m01;
metricLeft = "=H";
shapes = (
{
closed = 1;
nodes = (
(91,683,o),
(124,690,o),
(124,645,cs),
(124,56,ls),
(124,6,o),
(74,16,o),
(22,14,c),
(22,0,l),
(328,0,l),
(328,14,l),
(244,14,o),
(203,7,o),
(203,56,cs),
(203,293,l),
(272,293,ls),
(451,293,o),
(553,382,o),
(553,507,cs),
(553,621,o),
(475,700,o),
(293,700,cs),
(22,700,l),
(22,686,l)
);
},
{
closed = 1;
nodes = (
(203,675,l),
(260,675,ls),
(403,675,o),
(471,605,o),
(471,506,cs),
(471,401,o),
(398,319,o),
(265,319,cs),
(203,319,l)
);
}
);
width = 593;
},
{
associatedMasterId = m01;
layerId = "B28FEB7A-5FDE-48C0-AD56-7A73E1AA4CA1";
name = "Sep 30 18, 18:19";
shapes = (
{
closed = 1;
nodes = (
(126,0,l),
(201,0,l),
(201,700,l),
(126,700,l)
);
},
{
closed = 1;
nodes = (
(147,306,l),
(290,291,l),
(454,291,o),
(551,372,o),
(551,521,cs),
(551,616,o),
(460,700,o),
(331,700,c),
(148,700,l)
);
},
{
closed = 1;
nodes = (
(168,656,l),
(168,700,l),
(55,700,l),
(55,678,l),
(93,675,l),
(126,656,l)
);
},
{
closed = 1;
nodes = (
(249,665,o),
(292,672,o),
(317,671,cs),
(402,669,o),
(483,597,o),
(483,476,cs),
(483,386,o),
(423,325,o),
(359,324,cs),
(278,323,o),
(247,341,o),
(201,361,c),
(202,633,l),
(225,661,l)
);
},
{
closed = 1;
nodes = (
(93,25,l),
(40,15,l),
(40,0,l),
(285,0,l),
(285,15,l),
(232,25,l),
(201,45,l),
(126,45,l)
);
}
);
width = 600;
},
{
anchors = (
{
name = bottom;
pos = (328,0);
},
{
name = top;
pos = (328,700);
}
);
associatedMasterId = m01;
layerId = "4EF47A43-EA9F-416F-884D-AC541148DC09";
metricLeft = "=H";
name = Bold;
shapes = (
{
closed = 1;
nodes = (
(110,0,l),
(260,0,l),
(260,700,l),
(110,700,l)
);
},
{
closed = 1;
nodes = (
(415,283,l),
(549,334,l),
(621,474,l),
(569,632,l),
(463,700,l),
(206,700,l),
(205,296,l)
);
},
{
closed = 1;
nodes = (
(260,635,l),
(291,665,l),
(385,649,l),
(449,543,l),
(470,424,l),
(427,341,l),
(355,326,l),
(260,379,l)
);
},
{
closed = 1;
nodes = (
(76,25,l),
(20,22,l),
(20,0,l),
(360,0,l),
(360,22,l),
(303,25,l),
(260,70,l),
(109,70,l)
);
},
{
closed = 1;
nodes = (
(163,700,l),
(20,700,l),
(20,678,l),
(77,675,l),
(110,630,l),
(163,630,l)
);
}
);
width = 643;
},
{
layerId = "2CB5E1B6-8A79-4562-81B9-46C99CEA2FC9";
shapes = (
{
closed = 1;
nodes = (
(118,678,o),
(122,680,o),
(122,627,cs),
(122,68,ls),
(122,20,o),
(80,29,o),
(20,27,c),
(20,0,l),
(400,0,l),
(400,27,l),
(299,29,o),
(265,20,o),
(265,71,cs),
(265,293,l),
(335,293,ls),
(529,293,o),
(633,392,o),
(633,518,cs),
(633,644,o),
(527,705,o),
(376,705,cs),
(20,705,l),
(20,678,l)
);
},
{
closed = 1;
nodes = (
(265,671,l),
(323,671,ls),
(442,671,o),
(504,613,o),
(504,508,cs),
(504,398,o),
(436,335,o),
(333,335,cs),
(265,335,l)
);
}
);
width = 673;
},
{
layerId = "1881FB1F-FF0F-4B67-AF41-4B555E01DE13";
shapes = (
{
closed = 1;
nodes = (
(98,681,o),
(120,686,o),
(120,638,cs),
(120,61,ls),
(120,11,o),
(73,21,o),
(18,19,c),
(18,0,l),
(352,0,l),
(352,19,l),
(262,20,o),
(223,12,o),
(223,62,cs),
(223,293,l),
(293,293,ls),
(477,293,o),
(580,386,o),
(580,511,cs),
(580,630,o),
(492,702,o),
(321,702,cs),
(18,702,l),
(18,683,l)
);
},
{
closed = 1;
nodes = (
(223,674,l),
(281,674,ls),
(415,674,o),
(480,608,o),
(480,507,cs),
(480,400,o),
(409,325,o),
(288,325,cs),
(223,325,l)
);
}
);
width = 620;
}
);
metricLeft = "=H-5";
unicode = 80;
}
{
glyphname = Q;
kernLeft = O;
layers = (
{
layerId = m01;
metricRight = "=O-25";
shapes = (
{
closed = 1;
nodes = (
(771,-106,l),
(658,-108,o),
(558,-92,o),
(449,13,c),
(366,-6,l),
(461,-96,o),
(547,-129,o),
(771,-119,c)
);
},
{
ref = O;
}
);
width = 791;
},
{
associatedMasterId = m01;
layerId = "F553F71B-6984-4CCA-A0CE-F64A53C2134A";
name = "Oct 3 18, 19:28";
shapes = (
{
closed = 1;
nodes = (
(169,-13,o),
(39,139,o),
(39,351,cs),
(39,565,o),
(172,713,o),
(382,713,cs),
(589,713,o),
(726,569,o),
(726,351,cs),
(726,137,o),
(589,-13,o),
(382,-13,cs)
);
},
{
closed = 1;
nodes = (
(180,656,o),
(99,495,o),
(125,321,cs),
(150,151,o),
(280,13,o),
(435,35,cs),
(590,55,o),
(666,226,o),
(638,403,cs),
(611,574,o),
(477,701,o),
(326,678,cs)
);
},
{
closed = 1;
nodes = (
(531,-56,o),
(645,-110,o),
(691,-89,cs),
(718,-77,o),
(741,-46,o),
(757,-8,c),
(810,-111,l),
(791,-130,o),
(776,-141,o),
(754,-152,cs),
(664,-197,o),
(535,-103,o),
(410,4,c),
(467,-8,l)
);
}
);
width = 600;
},
{
associatedMasterId = m01;
background = {
shapes = (
{
closed = 1;
nodes = (
(536,7,l),
(737,70,o),
(768,247,o),
(768,332,cs),
(768,569,o),
(583,674,o),
(403,674,cs),
(224,674,o),
(47,561,o),
(47,334,cs),
(47,125,o),
(196,-12,o),
(408,-12,cs),
(421,-12,o),
(433,-11,o),
(443,-11,c),
(453,-10,o),
(461,-9,o),
(465,-8,c),
(274,-111,ls),
(252,-123,o),
(243,-126,o),
(243,-141,cs),
(243,-144,o),
(244,-157,o),
(260,-157,cs),
(271,-157,o),
(287,-144,o),
(301,-132,cs),
(323,-113,o),
(345,-95,o),
(393,-95,cs),
(469,-95,o),
(544,-143,o),
(587,-170,cs),
(656,-214,o),
(706,-243,o),
(784,-243,cs),
(875,-243,o),
(949,-194,o),
(963,-92,c),
(943,-92,l),
(930,-144,o),
(888,-159,o),
(838,-159,cs),
(775,-159,o),
(701,-133,o),
(695,-131,cs),
(638,-111,ls),
(593,-95,o),
(510,-72,o),
(417,-72,cs),
(407,-72,o),
(398,-72,o),
(389,-73,c)
);
},
{
closed = 1;
nodes = (
(159,471,o),
(200,650,o),
(406,650,cs),
(635,650,o),
(656,427,o),
(656,331,cs),
(656,219,o),
(628,12,o),
(410,12,cs),
(236,12,o),
(159,126,o),
(159,332,cs)
);
}
);
};
layerId = "165670EE-E260-4A64-9467-CC9476DEB91C";
name = "Jan 9 19, 16:12";
shapes = (
{
closed = 1;
nodes = (
(165,-13,o),
(35,139,o),
(35,351,cs),
(35,565,o),
(168,713,o),
(378,713,cs),
(585,713,o),
(722,569,o),
(722,351,cs),
(722,137,o),
(585,-13,o),
(378,-13,cs)
);
},
{
closed = 1;
nodes = (
(176,656,o),
(88,495,o),
(114,321,cs),
(139,151,o),
(276,13,o),
(431,35,cs),
(586,55,o),
(668,226,o),
(640,403,cs),
(613,574,o),
(473,701,o),
(322,678,cs)
);
},
{
closed = 1;
nodes = (
(684,-110,l),
(638,-110,o),
(549,-131,o),
(464,-44,cs),
(380,41,o),
(332,95,o),
(278,95,cs),
(274,95,o),
(278,103,o),
(274,104,c),
(352,112,o),
(427,76,o),
(488,8,cs),
(546,-56,o),
(641,-95,o),
(684,-96,c)
);
}
);
width = 762;
},
{
anchors = (
{
name = bottom;
pos = (400,0);
},
{
name = top;
pos = (400,700);
}
);
associatedMasterId = m01;
layerId = "4EF47A43-EA9F-416F-884D-AC541148DC09";
metricRight = "=O-65";
name = Bold;
shapes = (
{
closed = 1;
nodes = (
(778,312,l),
(694,590,l),
(448,713,l),
(181,657,l),
(30,409,l),
(107,104,l),
(354,-13,l),
(622,38,l)
);
},
{
closed = 1;
nodes = (
(454,648,l),
(588,397,l),
(587,103,l),
(483,45,l),
(340,59,l),
(214,303,l),
(217,601,l),
(332,658,l)
);
},
{
closed = 1;
nodes = (
(377,36,l),
(570,-138,l),
(644,-176,l),
(835,-176,l),
(835,-154,l),
(771,-146,l),
(700,-106,l),
(580,-6,l)
);
}
);
width = 800;
},
{
layerId = "2CB5E1B6-8A79-4562-81B9-46C99CEA2FC9";
shapes = (
{
closed = 1;
nodes = (
(771,-109,l),
(607,-111,o),
(527,-61,o),
(489,13,c),
(347,4,l),
(407,-80,o),
(493,-138,o),
(717,-138,cs),
(734,-138,o),
(752,-138,o),
(771,-137,c)
);
},
{
ref = O;
}
);
width = 830;
},
{
layerId = "1881FB1F-FF0F-4B67-AF41-4B555E01DE13";
shapes = (
{
closed = 1;
nodes = (
(771,-107,l),
(639,-109,o),
(546,-80,o),
(464,13,c),
(359,-2,l),
(443,-92,o),
(532,-136,o),
(771,-126,c)
);
},
{
alignment = -1;
ref = O;
}
);
width = 805.625;
}
);
metricLeft = "=O";
unicode = 81;
}
{
glyphname = R;
kernLeft = H;
kernRight = R;
layers = (
{
associatedMasterId = m01;
guides = (
{
angle = 164.3205;
pos = (425,316);
}
);
layerId = "2CE008D2-1EF4-48E6-BE5C-34B8A8ADAFCC";
name = "Sep 12 18, 19:17";
shapes = (
{
closed = 1;
nodes = (
(128,0,l),
(202,0,l),
(202,700,l),
(128,700,l)
);
},
{
closed = 1;
nodes = (
(168,645,l),
(168,700,l),
(67,700,l),
(67,678,l),
(95,675,l),
(128,645,l)
);
},
{
closed = 1;
nodes = (
(94,25,l),
(50,22,l),
(50,0,l),
(279,0,l),
(279,22,l),
(235,25,l),
(202,70,l),
(127,70,l)
);
},
{
closed = 1;
nodes = (
(301,333,l),
(468,38,l),
(512,0,l),
(643,0,l),
(643,22,l),
(599,25,l),
(548,70,l),
(398,306,l)
);
},
{
closed = 1;
nodes = (
(166,640,l),
(255,664,l),
(394,664,o),
(449,601,o),
(449,489,cs),
(449,394,o),
(436,337,o),
(203,337,c),
(168,297,l),
(447,297,o),
(512,362,o),
(512,519,cs),
(512,630,o),
(423,700,o),
(278,700,cs),
(166,700,l)
);
}
);
width = 600;
},
{
associatedMasterId = m01;
guides = (
{
angle = 164.3205;
pos = (425,316);
}
);
layerId = "E84571BE-CFE1-4E07-8F58-B9114A089DCB";
name = "Light Sep 12 18, 19:17";
shapes = (
{
closed = 1;
nodes = (
(128,0,l),
(202,0,l),
(202,700,l),
(128,700,l)
);
},
{
closed = 1;
nodes = (
(168,645,l),
(168,700,l),
(67,700,l),
(67,678,l),
(95,675,l),
(128,645,l)
);
},
{
closed = 1;
nodes = (
(94,25,l),
(50,22,l),
(50,0,l),
(279,0,l),
(279,22,l),
(235,25,l),
(202,70,l),
(127,70,l)
);
},
{
closed = 1;
nodes = (
(301,333,l),
(468,38,l),
(512,0,l),
(643,0,l),
(643,22,l),
(599,25,l),
(548,70,l),
(398,306,l)
);
},
{
closed = 1;
nodes = (
(166,640,l),
(255,664,l),
(394,664,o),
(449,601,o),
(449,489,cs),
(449,394,o),
(436,337,o),
(203,337,c),
(168,297,l),
(447,297,o),
(512,362,o),
(512,519,cs),
(512,630,o),
(423,700,o),
(278,700,cs),
(166,700,l)
);
}
);
width = 600;
},
{
anchors = (
{
name = bottom;
pos = (319,0);
},
{
name = top;
pos = (299,700);
}
);
layerId = m01;
metricLeft = "=H";
shapes = (
{
closed = 1;
nodes = (
(537,35,o),
(431,266,o),
(389,351,c),
(306,343,l),
(404,166,o),
(447,0,o),
(609,0,cs),
(655,0,l),
(655,14,l),
(610,22,ls)
);
},
{
closed = 1;
nodes = (
(120,686,o),
(124,688,o),
(124,635,cs),
(124,55,ls),
(124,7,o),
(82,16,o),
(22,14,c),
(22,0,l),
(298,0,l),
(298,14,l),
(243,16,o),
(203,7,o),
(203,55,cs),
(203,333,l),
(273,333,ls),
(460,333,o),
(545,422,o),
(545,535,cs),
(545,644,o),
(451,700,o),
(317,700,cs),
(22,700,l),
(22,686,l)
);
},
{
closed = 1;
nodes = (
(203,676,l),
(261,676,ls),
(413,676,o),
(465,607,o),
(465,527,cs),
(465,422,o),
(377,358,o),
(291,358,cs),
(203,358,l)
);
}
);
width = 640;
},
{
associatedMasterId = m01;
guides = (
{
angle = 164.3205;
pos = (425,316);
}
);
layerId = "ED68A759-6695-4A38-9234-8DA21E77F617";
name = "Sep 12 18, 19:21";
shapes = (
{
closed = 1;
nodes = (
(128,0,l),
(202,0,l),
(202,700,l),
(128,700,l)
);
},
{
closed = 1;
nodes = (
(147,316,l),
(327,303,l),
(488,303,o),
(541,413,o),
(541,504,cs),
(541,606,o),
(441,700,o),
(323,700,c),
(148,700,l)
);
},
{
closed = 1;
nodes = (
(168,645,l),
(168,700,l),
(67,700,l),
(67,678,l),
(95,675,l),
(128,645,l)
);
},
{
closed = 1;
nodes = (
(246,668,o),
(281,675,o),
(305,676,cs),
(386,679,o),
(480,590,o),
(480,454,cs),
(480,369,o),
(399,338,o),
(337,338,cs),
(277,338,o),
(247,346,o),
(202,367,c),
(202,635,l),
(222,662,l)
);
},
{
closed = 1;
nodes = (
(94,25,l),
(50,22,l),
(50,0,l),
(279,0,l),
(279,22,l),
(235,25,l),
(202,70,l),
(127,70,l)
);
},
{
closed = 1;
nodes = (
(325,318,l),
(485,38,l),
(529,0,l),
(643,0,l),
(643,22,l),
(599,25,l),
(548,70,l),
(394,299,l)
);
}
);
width = 600;
},
{
associatedMasterId = m01;
guides = (
{
angle = 164.3205;
pos = (425,216);
}
);
layerId = "987A0A16-B3BB-4492-BDF7-0F6A1265DC2C";
name = "Sep 30 18, 17:01";
shapes = (
{
closed = 1;
nodes = (
(126,0,l),
(201,0,l),
(201,700,l),
(126,700,l)
);
},
{
closed = 1;
nodes = (
(147,326,l),
(207,322,o),
(262,315,o),
(322,315,cs),
(456,315,o),
(549,403,o),
(549,521,cs),
(549,618,o),
(447,700,o),
(330,700,c),
(148,700,l)
);
},
{
closed = 1;
nodes = (
(168,656,l),
(168,700,l),
(55,700,l),
(55,678,l),
(93,675,l),
(126,656,l)
);
},
{
closed = 1;
nodes = (
(246,666,o),
(291,673,o),
(315,672,cs),
(401,670,o),
(473,590,o),
(473,478,cs),
(473,404,o),
(415,351,o),
(332,351,cs),
(272,351,o),
(247,358,o),
(202,379,c),
(202,635,l),
(222,662,l)
);
},
{
closed = 1;
nodes = (
(343,327,l),
(313,327,l),
(471,38,l),
(515,0,l),
(636,0,l),
(636,22,l),
(592,25,l),
(541,70,l),
(394,309,l)
);
},
{
closed = 1;
nodes = (
(93,25,l),
(40,15,l),
(40,0,l),
(285,0,l),
(285,15,l),
(232,25,l),
(201,45,l),
(126,45,l)
);
}
);
width = 600;
},
{
associatedMasterId = m01;
guides = (
{
angle = 164.3205;
pos = (425,216);
}
);
layerId = "1D7FC580-4812-4B1D-85DB-CEFB42937DEA";
name = "Sep 30 18, 18:07";
shapes = (
{
closed = 1;
nodes = (
(126,0,l),
(201,0,l),
(201,700,l),
(126,700,l)
);
},
{
closed = 1;
nodes = (
(147,326,l),
(207,322,o),
(262,315,o),
(322,315,cs),
(456,315,o),
(549,403,o),
(549,521,cs),
(549,618,o),
(447,700,o),
(330,700,c),
(148,700,l)
);
},
{
closed = 1;
nodes = (
(168,656,l),
(168,700,l),
(55,700,l),
(55,678,l),
(93,675,l),
(126,656,l)
);
},
{
closed = 1;
nodes = (
(246,666,o),
(291,673,o),
(315,672,cs),
(401,670,o),
(473,590,o),
(473,478,cs),
(473,404,o),
(415,351,o),
(332,351,cs),
(272,351,o),
(247,358,o),
(202,379,c),
(202,635,l),
(222,662,l)
);
},
{
closed = 1;
nodes = (
(343,327,l),
(313,327,l),
(471,38,l),
(515,0,l),
(636,0,l),
(636,22,l),
(592,25,l),
(541,70,l),
(394,309,l)
);
},
{
closed = 1;
nodes = (
(93,25,l),
(40,15,l),
(40,0,l),
(285,0,l),
(285,15,l),
(232,25,l),
(201,45,l),
(126,45,l)
);
}
);
width = 600;
},
{
associatedMasterId = m01;
background = {
shapes = (
{
closed = 1;
nodes = (
(232,645,l),
(245,646,o),
(255,647,o),
(273,647,cs),
(389,647,o),
(460,618,o),
(460,493,cs),
(460,391,o),
(408,343,o),
(287,343,cs),
(232,343,l)
);
},
{
closed = 1;
nodes = (
(215,671,o),
(106,667,o),
(35,662,c),
(35,640,l),
(129,640,o),
(136,643,o),
(136,497,cs),
(136,172,ls),
(136,44,o),
(136,22,o),
(51,22,cs),
(30,22,l),
(30,0,l),
(347,0,l),
(347,22,l),
(315,22,ls),
(231,22,o),
(232,44,o),
(232,172,cs),
(232,319,l),
(246,319,ls),
(283,319,o),
(303,319,o),
(362,238,cs),
(466,95,ls),
(511,33,o),
(537,13,o),
(554,0,c),
(732,0,l),
(732,22,l),
(653,22,o),
(598,76,o),
(556,131,cs),
(472,241,ls),
(455,264,o),
(399,331,o),
(369,333,c),
(490,343,o),
(567,406,o),
(567,500,cs),
(567,675,o),
(323,671,o),
(280,671,cs)
);
}
);
};
layerId = "1E059007-CFE3-4761-9E56-455DACFBD4F6";
name = "Jan 11 19, 17:54";
shapes = (
{
closed = 1;
nodes = (
(415,301,o),
(400,301,cs),
(357,301,o),
(350,323,o),
(338,341,c),
(305,341,l),
(357,280,o),
(424,124,o),
(501,36,cs),
(533,0,o),
(579,0,o),
(679,0,c),
(679,14,l),
(636,15,o),
(588,28,o),
(540,101,cs),
(461,222,o)
);
},
{
closed = 1;
nodes = (
(131,0,l),
(206,0,l),
(206,700,l),
(131,700,l)
);
},
{
closed = 1;
nodes = (
(152,323,l),
(295,323,l),
(462,325,o),
(556,406,o),
(556,534,cs),
(556,625,o),
(465,700,o),
(336,700,c),
(153,700,l)
);
},
{
closed = 1;
nodes = (
(206,662,o),
(238,683,o),
(322,681,cs),
(404,679,o),
(484,599,o),
(484,487,cs),
(484,419,o),
(428,356,o),
(364,353,cs),
(283,349,o),
(252,361,o),
(206,378,c),
(206,633,l)
);
},
{
closed = 1;
nodes = (
(131,37,o),
(99,16,o),
(44,14,c),
(44,0,l),
(291,0,l),
(291,14,l),
(236,16,o),
(206,37,o),
(206,85,c),
(131,85,l)
);
},
{
closed = 1;
nodes = (
(160,645,l),
(194,700,l),
(33,700,l),
(33,686,l),
(108,683,o),
(131,688,o),
(131,645,c)
);
}
);
width = 650;
},
{
anchors = (
{
name = bottom;
pos = (346,0);
},
{
name = top;
pos = (346,700);
}
);
associatedMasterId = m01;
layerId = "4EF47A43-EA9F-416F-884D-AC541148DC09";
name = Bold;
shapes = (
{
closed = 1;
nodes = (
(97,0,l),
(247,0,l),
(247,700,l),
(97,700,l)
);
},
{
closed = 1;
nodes = (
(192,316,l),
(402,303,l),
(534,354,l),
(606,494,l),
(554,642,l),
(448,700,l),
(193,700,l)
);
},
{
closed = 1;
nodes = (
(370,649,l),
(443,553,l),
(464,444,l),
(422,366,l),
(342,351,l),
(247,399,l),
(247,635,l),
(278,665,l)
);
},
{
closed = 1;
nodes = (
(64,25,l),
(7,22,l),
(7,0,l),
(336,0,l),
(336,22,l),
(280,25,l),
(247,70,l),
(97,70,l)
);
},
{
closed = 1;
nodes = (
(312,340,l),
(451,38,l),
(495,0,l),
(705,0,l),
(705,22,l),
(661,25,l),
(610,70,l),
(475,291,l)
);
},
{
closed = 1;
nodes = (
(150,700,l),
(7,700,l),
(7,678,l),
(64,675,l),
(97,630,l),
(150,630,l)
);
}
);
width = 692;
},
{
anchors = (
{
name = bottom;
pos = (365,0);
},
{
name = top;
pos = (365,705);
}
);
layerId = "2CB5E1B6-8A79-4562-81B9-46C99CEA2FC9";
shapes = (
{
closed = 1;
nodes = (
(621,39,o),
(515,252,o),
(473,337,c),
(332,329,l),
(429,152,o),
(472,0,o),
(634,0,cs),
(739,0,l),
(739,26,l),
(719,28,ls)
);
},
{
closed = 1;
nodes = (
(123,678,o),
(127,680,o),
(127,627,cs),
(127,68,ls),
(127,20,o),
(85,29,o),
(25,27,c),
(25,0,l),
(372,0,l),
(372,27,l),
(316,29,o),
(270,20,o),
(270,68,cs),
(270,319,l),
(340,319,ls),
(534,319,o),
(640,418,o),
(640,531,cs),
(640,649,o),
(533,705,o),
(372,705,cs),
(25,705,l),
(25,678,l)
);
},
{
closed = 1;
nodes = (
(270,671,l),
(328,671,ls),
(434,671,o),
(500,615,o),
(500,506,cs),
(500,426,o),
(434,351,o),
(338,351,cs),
(270,351,l)
);
}
);
width = 739;
},
{
anchors = (
{
name = bottom;
pos = (336,0);
},
{
name = top;
pos = (324,702);
}
);
layerId = "1881FB1F-FF0F-4B67-AF41-4B555E01DE13";
shapes = (
{
closed = 1;
nodes = (
(569,37,o),
(463,261,o),
(421,346,c),
(316,338,l),
(413,161,o),
(456,0,o),
(618,0,cs),
(687,0,l),
(687,19,l),
(651,24,ls)
);
},
{
closed = 1;
nodes = (
(121,683,o),
(125,685,o),
(125,632,cs),
(125,60,ls),
(125,12,o),
(83,21,o),
(23,19,c),
(23,0,l),
(326,0,l),
(326,19,l),
(270,21,o),
(228,12,o),
(228,60,cs),
(228,328,l),
(298,328,ls),
(488,328,o),
(581,421,o),
(581,534,cs),
(581,646,o),
(482,702,o),
(338,702,cs),
(23,702,l),
(23,683,l)
);
},
{
closed = 1;
nodes = (
(228,674,l),
(286,674,ls),
(421,674,o),
(478,610,o),
(478,519,cs),
(478,424,o),
(398,355,o),
(309,355,cs),
(228,355,l)
);
}
);
width = 677.125;
}
);
metricLeft = H;
unicode = 82;
}
{
glyphname = S;
kernLeft = S;
kernRight = S;
layers = (
{
anchors = (
{
name = bottom;
pos = (273,0);
},
{
name = top;
pos = (265,700);
}
);
layerId = m01;
shapes = (
{
closed = 1;
nodes = (
(468,660,o),
(366,713,o),
(265,713,cs),
(134,713,o),
(35,652,o),
(35,541,cs),
(35,451,o),
(103,398,o),
(180,363,cs),
(323,298,ls),
(399,263,o),
(428,222,o),
(428,172,cs),
(428,91,o),
(379,18,o),
(276,16,cs),
(146,13,o),
(71,112,o),
(68,253,c),
(53,253,l),
(33,77,l),
(65,53,o),
(151,-11,o),
(263,-11,cs),
(419,-11,o),
(502,90,o),
(502,196,cs),
(502,266,o),
(465,317,o),
(374,359,cs),
(227,427,ls),
(159,459,o),
(110,496,o),
(110,567,cs),
(110,637,o),
(169,687,o),
(248,687,cs),
(377,687,o),
(440,595,o),
(438,477,c),
(453,477,l),
(482,649,l)
);
}
);
width = 545;
},
{
associatedMasterId = m01;
layerId = "EC94FA93-7D0C-4DA0-813E-EA4E589384FA";
name = "Oct 5 18, 18:15";
shapes = (
{
closed = 1;
nodes = (
(586,654,o),
(526,713,o),
(406,713,cs),
(265,713,o),
(139,670,o),
(139,526,cs),
(139,427,o),
(207,390,o),
(363,315,cs),
(477,260,o),
(526,207,o),
(526,145,cs),
(526,75,o),
(476,24,o),
(392,26,cs),
(295,28,o),
(257,57,o),
(200,97,c),
(166,233,l),
(151,233,l),
(106,74,l),
(153,49,o),
(240,-21,o),
(345,-18,cs),
(464,-15,o),
(615,53,o),
(615,172,cs),
(615,250,o),
(561,306,o),
(431,373,cs),
(286,448,o),
(230,454,o),
(230,546,cs),
(230,622,o),
(284,673,o),
(352,673,cs),
(405,673,o),
(474,649,o),
(504,622,c),
(547,488,l),
(562,488,l),
(602,646,l)
);
}
);
width = 615;
},
{
associatedMasterId = m01;
layerId = "ED2C3102-D30F-4A8B-BE50-165EBE2A30D8";
name = "Oct 5 18, 18:25";
shapes = (
{
closed = 1;
nodes = (
(510,670,o),
(456,714,o),
(356,714,cs),
(208,714,o),
(108,637,o),
(108,527,cs),
(108,437,o),
(159,390,o),
(308,322,cs),
(423,269,o),
(476,221,o),
(476,154,cs),
(476,93,o),
(416,41,o),
(345,41,cs),
(271,41,o),
(228,56,o),
(171,90,c),
(142,213,l),
(127,213,l),
(106,35,l),
(153,13,o),
(190,-14,o),
(289,-14,cs),
(404,-14,o),
(558,57,o),
(558,176,cs),
(558,263,o),
(508,300,o),
(370,370,cs),
(232,440,o),
(189,455,o),
(189,547,cs),
(189,621,o),
(229,681,o),
(292,681,cs),
(345,681,o),
(404,660,o),
(444,630,c),
(487,492,l),
(502,492,l),
(526,662,l)
);
}
);
width = 615;
},
{
anchors = (
{
name = bottom;
pos = (310,0);
},
{
name = top;
pos = (310,700);
}
);
associatedMasterId = m01;
layerId = "4EF47A43-EA9F-416F-884D-AC541148DC09";
name = Bold;
shapes = (
{
closed = 1;
nodes = (
(429,727,l),
(197,708,l),
(40,572,l),
(74,400,l),
(427,221,l),
(428,80,l),
(341,36,l),
(159,116,l),
(84,284,l),
(59,285,l),
(25,82,l),
(292,-18,l),
(508,56,l),
(600,195,l),
(514,352,l),
(239,471,l),
(193,587,l),
(260,682,l),
(385,670,l),
(511,462,l),
(536,462,l),
(576,654,l)
);
}
);
width = 620;
},
{
anchors = (
{
name = bottom;
pos = (273,0);
},
{
name = top;
pos = (273,700);
}
);
associatedMasterId = m01;
layerId = "2F5E6D8C-F01E-44C8-937A-2DA37249395D";
name = "8 set 21, 18:40";
shapes = (
{
closed = 1;
nodes = (
(457,477,l),
(442,477,l),
(444,595,o),
(381,687,o),
(252,687,cs),
(173,687,o),
(120,637,o),
(120,567,cs),
(120,496,o),
(167,461,o),
(287,401,cs),
(390,349,o),
(502,304,o),
(502,196,cs),
(502,90,o),
(419,-11,o),
(263,-11,cs),
(151,-11,o),
(65,53,o),
(33,77,c),
(53,253,l),
(68,253,l),
(71,112,o),
(146,13,o),
(276,16,cs),
(379,18,o),
(425,91,o),
(425,162,cs),
(425,246,o),
(352,288,o),
(242,340,cs),
(107,404,o),
(43,453,o),
(43,544,cs),
(43,652,o),
(148,713,o),
(269,713,cs),
(370,713,o),
(472,660,o),
(486,649,c)
);
}
);
width = 545;
},
{
anchors = (
{
name = bottom;
pos = (312,0);
},
{
name = top;
pos = (312,705);
}
);
layerId = "2CB5E1B6-8A79-4562-81B9-46C99CEA2FC9";
shapes = (
{
closed = 1;
nodes = (
(531,667,o),
(422,720,o),
(310,720,cs),
(180,720,o),
(42,663,o),
(42,528,cs),
(42,458,o),
(73,373,o),
(188,330,cs),
(366,263,ls),
(430,239,o),
(465,200,o),
(465,153,cs),
(465,100,o),
(420,30,o),
(309,30,cs),
(165,30,o),
(97,111,o),
(104,272,c),
(77,272,l),
(47,78,l),
(79,54,o),
(163,-11,o),
(294,-11,cs),
(488,-11,o),
(581,98,o),
(581,214,cs),
(581,294,o),
(544,347,o),
(453,381,cs),
(286,444,ls),
(209,473,o),
(171,509,o),
(171,578,cs),
(171,639,o),
(226,682,o),
(306,682,cs),
(424,682,o),
(492,592,o),
(490,460,c),
(516,460,l),
(545,656,l)
);
}
);
width = 623;
},
{
anchors = (
{
name = bottom;
pos = (288,0);
},
{
name = top;
pos = (283,702);
}
);
layerId = "1881FB1F-FF0F-4B67-AF41-4B555E01DE13";
shapes = (
{
closed = 1;
nodes = (
(492,663,o),
(387,716,o),
(282,716,cs),
(151,716,o),
(38,656,o),
(38,536,cs),
(38,454,o),
(92,389,o),
(183,351,cs),
(339,285,ls),
(411,254,o),
(442,214,o),
(442,165,cs),
(442,95,o),
(395,23,o),
(291,21,cs),
(154,18,o),
(81,111,o),
(82,260,c),
(62,260,l),
(38,77,l),
(70,53,o),
(156,-11,o),
(275,-11,cs),
(445,-11,o),
(532,93,o),
(532,203,cs),
(532,277,o),
(495,328,o),
(404,367,cs),
(249,433,ls),
(178,464,o),
(133,501,o),
(133,571,cs),
(133,638,o),
(190,685,o),
(270,685,cs),
(395,685,o),
(460,594,o),
(458,471,c),
(477,471,l),
(506,652,l)
);
}
);
width = 574.25;
}
);
unicode = 83;
}
{
glyphname = T;
kernLeft = T;
kernRight = T;
layers = (
{
anchors = (
{
name = bottom;
pos = (336,0);
},
{
name = center;
pos = (336,350);
},
{
name = top;
pos = (336,700);
}
);
layerId = m01;
shapes = (
{
closed = 1;
nodes = (
(31,477,l),
(52,607,o),
(80,674,o),
(160,674,cs),
(298,674,l),
(298,55,ls),
(298,17,o),
(286,16,o),
(183,14,c),
(183,0,l),
(490,0,l),
(490,14,l),
(377,16,o),
(377,17,o),
(377,55,cs),
(377,674,l),
(511,674,ls),
(596,674,o),
(619,607,o),
(640,477,c),
(657,477,l),
(629,700,l),
(42,700,l),
(14,477,l)
);
}
);
width = 671;
},
{
anchors = (
{
name = bottom;
pos = (342,0);
},
{
name = center;
pos = (342,350);
},
{
name = top;
pos = (342,700);
}
);
associatedMasterId = m01;
layerId = "4EF47A43-EA9F-416F-884D-AC541148DC09";
name = Bold;
shapes = (
{
closed = 1;
nodes = (
(266,0,l),
(416,0,l),
(416,700,l),
(266,700,l)
);
},
{
closed = 1;
nodes = (
(46,645,l),
(636,645,l),
(636,700,l),
(46,700,l)
);
},
{
closed = 1;
nodes = (
(223,25,l),
(166,22,l),
(166,0,l),
(516,0,l),
(516,22,l),
(459,25,l),
(416,70,l),
(266,70,l)
);
},
{
closed = 1;
nodes = (
(466,700,l),
(466,680,l),
(591,615,l),
(648,461,l),
(673,461,l),
(652,700,l)
);
},
{
closed = 1;
nodes = (
(10,461,l),
(35,461,l),
(92,615,l),
(217,680,l),
(217,700,l),
(31,700,l)
);
}
);
width = 683;
},
{
anchors = (
{
name = bottom;
pos = (349,0);
},
{
name = center;
pos = (349,353);
},
{
name = top;
pos = (349,705);
}
);
layerId = "2CB5E1B6-8A79-4562-81B9-46C99CEA2FC9";
shapes = (
{
closed = 1;
nodes = (
(39,448,l),
(72,638,o),
(121,669,o),
(197,669,cs),
(276,669,l),
(276,78,ls),
(276,20,o),
(230,29,o),
(155,27,c),
(155,0,l),
(540,0,l),
(540,27,l),
(465,29,o),
(419,20,o),
(419,78,cs),
(419,669,l),
(498,669,ls),
(575,669,o),
(629,638,o),
(660,448,c),
(693,448,l),
(661,705,l),
(38,705,l),
(6,448,l)
);
}
);
width = 699;
},
{
anchors = (
{
name = bottom;
pos = (341,0);
},
{
name = center;
pos = (341,351);
},
{
name = top;
pos = (341,702);
}
);
layerId = "1881FB1F-FF0F-4B67-AF41-4B555E01DE13";
shapes = (
{
closed = 1;
nodes = (
(34,466,l),
(60,619,o),
(95,672,o),
(174,672,cs),
(290,672,l),
(290,64,ls),
(290,18,o),
(265,21,o),
(173,19,c),
(173,0,l),
(509,0,l),
(509,19,l),
(410,21,o),
(393,18,o),
(393,64,cs),
(393,672,l),
(506,672,ls),
(588,672,o),
(623,619,o),
(648,466,c),
(671,466,l),
(641,702,l),
(41,702,l),
(11,466,l)
);
}
);
width = 681.5;
}
);
unicode = 84;
}
{
glyphname = U;
layers = (
{
anchors = (
{
name = bottom;
pos = (358,0);
},
{
name = ogonek;
pos = (499,13);
},
{
name = top;
pos = (398,700);
},
{
name = topright;
pos = (714,700);
}
);
layerId = m01;
shapes = (
{
closed = 1;
nodes = (
(80,684,o),
(107,693,o),
(107,645,cs),
(107,262,ls),
(107,72,o),
(215,-12,o),
(390,-11,cs),
(531,-10,o),
(642,86,o),
(642,264,cs),
(642,645,ls),
(642,693,o),
(679,684,o),
(744,686,c),
(744,700,l),
(499,700,l),
(499,686,l),
(584,686,o),
(601,693,o),
(601,645,cs),
(601,262,ls),
(601,126,o),
(532,26,o),
(392,26,cs),
(273,26,o),
(186,113,o),
(186,263,cs),
(186,645,ls),
(186,693,o),
(223,684,o),
(288,686,c),
(288,700,l),
(5,700,l),
(5,686,l)
);
}
);
width = 753;
},
{
anchors = (
{
name = bottom;
pos = (370,0);
},
{
name = ogonek;
pos = (571,40);
},
{
name = top;
pos = (410,700);
},
{
name = topright;
pos = (711,700);
}
);
associatedMasterId = m01;
layerId = "4EF47A43-EA9F-416F-884D-AC541148DC09";
name = Bold;
shapes = (
{
closed = 1;
nodes = (
(583,39,l),
(666,211,l),
(666,661,l),
(601,661,l),
(601,209,l),
(500,84,l),
(334,88,l),
(237,194,l),
(237,656,l),
(87,657,l),
(87,195,l),
(178,30,l),
(387,-23,l)
);
},
{
closed = 1;
nodes = (
(666,630,l),
(696,675,l),
(753,678,l),
(753,700,l),
(511,700,l),
(511,678,l),
(568,675,l),
(601,630,l)
);
},
{
closed = 1;
nodes = (
(237,630,l),
(270,675,l),
(327,678,l),
(327,700,l),
(-3,700,l),
(-3,678,l),
(54,675,l),
(87,630,l)
);
}
);
width = 745;
},
{
anchors = (
{
name = bottom;
pos = (392,0);
},
{
name = ogonek;
pos = (552,32);
},
{
name = top;
pos = (425,705);
},
{
name = topright;
pos = (766,705);
}
);
layerId = "2CB5E1B6-8A79-4562-81B9-46C99CEA2FC9";
shapes = (
{
closed = 1;
nodes = (
(65,676,o),
(92,685,o),
(92,619,cs),
(92,252,ls),
(92,62,o),
(219,-12,o),
(392,-11,cs),
(577,-10,o),
(666,96,o),
(666,264,cs),
(666,619,ls),
(666,685,o),
(703,676,o),
(778,678,c),
(778,705,l),
(508,705,l),
(508,678,l),
(599,678,o),
(616,685,o),
(616,619,cs),
(616,253,ls),
(616,109,o),
(547,35,o),
(418,35,cs),
(320,35,o),
(235,95,o),
(235,249,cs),
(235,619,ls),
(235,685,o),
(282,676,o),
(347,678,c),
(347,705,l),
(-10,705,l),
(-10,678,l)
);
}
);
width = 794;
},
{
anchors = (
{
name = bottom;
pos = (371,0);
},
{
name = ogonek;
pos = (519,20);
},
{
name = top;
pos = (408,702);
},
{
name = topright;
pos = (734,702);
}
);
layerId = "1881FB1F-FF0F-4B67-AF41-4B555E01DE13";
shapes = (
{
closed = 1;
nodes = (
(74,681,o),
(101,690,o),
(101,635,cs),
(101,258,ls),
(101,68,o),
(217,-12,o),
(391,-11,cs),
(548,-10,o),
(651,90,o),
(651,264,cs),
(651,635,ls),
(651,690,o),
(688,681,o),
(757,683,c),
(757,702,l),
(502,702,l),
(502,683,l),
(590,683,o),
(607,690,o),
(607,635,cs),
(607,259,ls),
(607,120,o),
(538,29,o),
(402,29,cs),
(291,29,o),
(204,106,o),
(204,258,cs),
(204,635,ls),
(204,690,o),
(245,681,o),
(310,683,c),
(310,702,l),
(-1,702,l),
(-1,683,l)
);
}
);
width = 768.375;
}
);
unicode = 85;
}
{
glyphname = V;
layers = (
{
layerId = m01;
shapes = (
{
closed = 1;
nodes = (
(-68,700,l),
(235,700,l),
(235,686,l),
(130,684,o),
(110,685,o),
(138,622,cs),
(359,115,l),
(545,616,ls),
(573,692,o),
(524,684,o),
(449,686,c),
(449,700,l),
(705,700,l),
(705,686,l),
(621,684,o),
(603,672,o),
(587,630,cs),
(354,0,l),
(329,0,l),
(54,623,ls),
(27,685,o),
(24,684,o),
(-68,686,c)
);
}
);
width = 650;
},
{
anchors = (
{
name = bottom;
pos = (328,0);
},
{
name = top;
pos = (328,700);
}
);
associatedMasterId = m01;
layerId = "4EF47A43-EA9F-416F-884D-AC541148DC09";
name = Bold;
shapes = (
{
closed = 1;
nodes = (
(-4,700,l),
(321,0,l),
(374,0,l),
(647,700,l),
(584,700,l),
(386,192,l),
(372,256,l),
(160,700,l)
);
},
{
closed = 1;
nodes = (
(662,675,l),
(716,678,l),
(716,700,l),
(476,700,l),
(476,678,l),
(540,675,l),
(540,579,l),
(619,630,l)
);
},
{
closed = 1;
nodes = (
(189,630,l),
(222,675,l),
(286,678,l),
(286,700,l),
(-60,700,l),
(-60,678,l),
(-6,675,l),
(27,630,l)
);
}
);
width = 656;
},
{
layerId = "2CB5E1B6-8A79-4562-81B9-46C99CEA2FC9";
shapes = (
{
closed = 1;
nodes = (
(-59,705,l),
(316,705,l),
(316,678,l),
(239,677,o),
(208,677,o),
(208,652,cs),
(208,643,o),
(212,631,o),
(219,614,cs),
(411,164,l),
(586,608,ls),
(592,623,o),
(595,635,o),
(595,644,cs),
(595,682,o),
(548,676,o),
(480,678,c),
(480,705,l),
(754,705,l),
(754,678,l),
(670,676,o),
(652,664,o),
(636,622,cs),
(398,0,l),
(333,0,l),
(63,615,ls),
(36,677,o),
(33,676,o),
(-59,678,c)
);
}
);
width = 703;
},
{
layerId = "1881FB1F-FF0F-4B67-AF41-4B555E01DE13";
shapes = (
{
closed = 1;
nodes = (
(-65,702,l),
(265,702,l),
(265,683,l),
(160,681,o),
(141,682,o),
(168,619,cs),
(379,133,l),
(560,613,ls),
(589,689,o),
(539,681,o),
(461,683,c),
(461,702,l),
(723,702,l),
(723,683,l),
(639,681,o),
(621,669,o),
(605,627,cs),
(371,0,l),
(331,0,l),
(57,620,ls),
(30,682,o),
(27,681,o),
(-65,683,c)
);
}
);
width = 669.875;
}
);
unicode = 86;
}
{
glyphname = W;
kernLeft = W;
kernRight = W;
layers = (
{
anchors = (
{
name = bottom;
pos = (446,0);
},
{
name = top;
pos = (490,700);
}
);
layerId = m01;
shapes = (
{
closed = 1;
nodes = (
(477,600,l),
(308,140,l),
(136,631,ls),
(114,695,o),
(147,684,o),
(242,686,c),
(242,700,l),
(-55,700,l),
(-55,686,l),
(27,684,o),
(32,685,o),
(49,636,cs),
(270,0,l),
(295,0,l),
(495,550,l)
);
},
{
closed = 1;
nodes = (
(670,0,l),
(695,0,l),
(903,646,ls),
(916,685,o),
(948,684,o),
(1002,686,c),
(1002,700,l),
(763,700,l),
(763,686,l),
(855,684,o),
(883,693,o),
(857,616,cs),
(698,140,l),
(518,652,ls),
(504,693,o),
(560,684,o),
(613,686,c),
(613,700,l),
(311,700,l),
(311,686,l),
(354,684,o),
(432,693,o),
(446,652,cs)
);
}
);
width = 947;
},
{
anchors = (
{
name = bottom;
pos = (453,0);
},
{
name = top;
pos = (453,700);
}
);
associatedMasterId = m01;
layerId = "4EF47A43-EA9F-416F-884D-AC541148DC09";
name = Bold;
shapes = (
{
closed = 1;
nodes = (
(-70,700,l),
(-70,678,l),
(-16,675,l),
(17,630,l),
(289,0,l),
(312,0,l),
(456.195,400.542,l),
(629,0,l),
(652,0,l),
(878.727,629.799,l),
(922,675,l),
(976,678,l),
(976,700,l),
(746,700,l),
(746,678,l),
(810,675,l),
(810,579,l),
(695,230,l),
(530.904,608.065,l),
(539.571,632.143,l),
(571,675,l),
(615,678,l),
(615,700,l),
(280,700,l),
(280,678,l),
(324,675,l),
(357,630,l),
(430.718,459.595,l),
(355,230,l),
(180.497,632.041,l),
(212,675,l),
(256,678,l),
(256,700,l)
);
}
);
width = 906;
},
{
anchors = (
{
name = bottom;
pos = (461,0);
},
{
name = top;
pos = (481,700);
}
);
associatedMasterId = m01;
layerId = "3AFD7D98-F498-4E6C-8BD8-EAA9978AFE6C";
name = "8 set 21, 18:32";
shapes = (
{
closed = 1;
nodes = (
(-70,700,l),
(227,700,l),
(227,686,l),
(132,684,o),
(100,695,o),
(121,631,cs),
(284,140,l),
(439,652,ls),
(451,693,o),
(386,684,o),
(343,686,c),
(343,700,l),
(625,700,l),
(625,686,l),
(572,684,o),
(517,693,o),
(530,652,cs),
(697,140,l),
(847,616,ls),
(872,694,o),
(845,684,o),
(753,686,c),
(753,700,l),
(987,700,l),
(987,686,l),
(933,684,o),
(900,685,o),
(888,646,cs),
(694,0,l),
(669,0,l),
(468,627,l),
(466,627,l),
(277,1,l),
(252,1,l),
(34,636,ls),
(17,685,o),
(12,684,o),
(-70,686,c)
);
}
);
width = 921;
},
{
anchors = (
{
name = bottom;
pos = (536,0);
},
{
name = top;
pos = (556,705);
}
);
layerId = "2CB5E1B6-8A79-4562-81B9-46C99CEA2FC9";
shapes = (
{
closed = 1;
nodes = (
(529,616,l),
(371,159,l),
(213,628,ls),
(209,640,o),
(207,648,o),
(207,655,cs),
(207,676,o),
(226,678,o),
(266,678,cs),
(280,678,o),
(298,678,o),
(319,678,c),
(319,705,l),
(-36,705,l),
(-36,678,l),
(46,676,o),
(53,677,o),
(68,633,cs),
(285,0,l),
(375,0,l),
(547,537,l)
);
},
{
closed = 1;
nodes = (
(709,0,l),
(799,0,l),
(995,644,ls),
(1003,669,o),
(1008,681,o),
(1092,678,c),
(1092,705,l),
(843,705,l),
(843,678,l),
(919,677,o),
(946,682,o),
(946,655,cs),
(946,645,o),
(943,632,o),
(937,613,cs),
(796,159,l),
(625,649,ls),
(624,653,o),
(623,656,o),
(623,659,cs),
(623,677,o),
(649,678,o),
(681,678,cs),
(693,678,o),
(707,678,o),
(720,678,c),
(720,705,l),
(383,705,l),
(383,678,l),
(466,677,o),
(480,673,o),
(488,649,cs)
);
}
);
width = 1072;
},
{
anchors = (
{
name = bottom;
pos = (480,0);
},
{
name = top;
pos = (515,702);
}
);
layerId = "1881FB1F-FF0F-4B67-AF41-4B555E01DE13";
shapes = (
{
closed = 1;
nodes = (
(497,606,l),
(332,147,l),
(165,630,ls),
(144,692,o),
(176,681,o),
(271,683,c),
(271,702,l),
(-48,702,l),
(-48,683,l),
(34,681,o),
(40,682,o),
(56,635,cs),
(276,0,l),
(325,0,l),
(515,545,l)
);
},
{
closed = 1;
nodes = (
(685,0,l),
(734,0,l),
(938,645,ls),
(949,679,o),
(971,683,o),
(1036,683,c),
(1036,702,l),
(793,702,l),
(793,683,l),
(889,681,o),
(912,690,o),
(887,615,cs),
(735,147,l),
(558,651,ls),
(545,690,o),
(600,681,o),
(653,683,c),
(653,702,l),
(338,702,l),
(338,683,l),
(396,681,o),
(450,686,o),
(462,651,cs)
);
}
);
width = 993.875;
}
);
unicode = 87;
}
{
glyphname = X;
layers = (
{
layerId = m01;
shapes = (
{
closed = 1;
nodes = (
(30,684,o),
(54,687,o),
(79,652,cs),
(498,70,ls),
(538,14,o),
(495,16,o),
(385,14,c),
(385,0,l),
(738,0,l),
(738,14,l),
(669,17,o),
(635,12,o),
(593,71,cs),
(206,608,ls),
(157,676,o),
(176,684,o),
(306,686,c),
(306,700,l),
(-37,700,l),
(-37,686,l)
);
},
{
closed = 1;
nodes = (
(239,0,l),
(239,14,l),
(149,16,o),
(110,18,o),
(158,85,cs),
(343,345,l),
(315,369,l),
(94,60,ls),
(75,34,o),
(46,17,o),
(-42,14,c),
(-42,0,l)
);
},
{
closed = 1;
nodes = (
(362,361,l),
(570,638,ls),
(597,673,o),
(627,685,o),
(705,686,c),
(705,700,l),
(438,700,l),
(438,686,l),
(529,684,o),
(560,682,o),
(507,613,cs),
(333,384,l)
);
}
);
width = 701;
},
{
anchors = (
{
name = bottom;
pos = (373,0);
},
{
name = top;
pos = (373,700);
}
);
associatedMasterId = m01;
guides = (
{
angle = 270;
pos = (760,0);
},
{
angle = 90;
pos = (-1,0);
}
);
layerId = "4EF47A43-EA9F-416F-884D-AC541148DC09";
name = Bold;
shapes = (
{
closed = 1;
nodes = (
(530,0,l),
(720,0,l),
(201,700,l),
(11,700,l)
);
},
{
closed = 1;
nodes = (
(287,675,l),
(361,678,l),
(361,700,l),
(-33,700,l),
(-33,678,l),
(21,675,l),
(63,630,l),
(254,630,l)
);
},
{
closed = 1;
nodes = (
(445,25,l),
(371,22,l),
(371,0,l),
(762,0,l),
(762,22,l),
(708,25,l),
(668,70,l),
(478,70,l)
);
},
{
closed = 1;
nodes = (
(325,344,l),
(40,0,l),
(131,0,l),
(385,344,l)
);
},
{
closed = 1;
nodes = (
(419,374,l),
(687,700,l),
(596,700,l),
(359,374,l)
);
},
{
closed = 1;
nodes = (
(45,25,l),
(-9,22,l),
(-9,0,l),
(256,0,l),
(256,22,l),
(182,25,l),
(182,70,l),
(99,70,l)
);
},
{
closed = 1;
nodes = (
(670,675,l),
(734,678,l),
(734,700,l),
(471,700,l),
(471,678,l),
(545,675,l),
(545,630,l),
(628,630,l)
);
}
);
width = 745;
},
{
layerId = "2CB5E1B6-8A79-4562-81B9-46C99CEA2FC9";
shapes = (
{
closed = 1;
nodes = (
(14,676,o),
(36,679,o),
(63,644,cs),
(495,83,ls),
(505,70,o),
(511,59,o),
(511,52,cs),
(511,29,o),
(465,29,o),
(382,27,c),
(382,0,l),
(815,0,l),
(815,27,l),
(746,30,o),
(714,27,o),
(670,84,cs),
(270,600,ls),
(254,621,o),
(245,637,o),
(245,648,cs),
(245,671,o),
(282,677,o),
(370,678,c),
(370,705,l),
(-53,705,l),
(-53,678,l)
);
},
{
closed = 1;
nodes = (
(258,0,l),
(258,27,l),
(195,28,o),
(154,31,o),
(154,55,cs),
(154,65,o),
(161,79,o),
(177,98,cs),
(382,342,l),
(344,366,l),
(103,73,ls),
(74,37,o),
(58,30,o),
(-33,27,c),
(-33,0,l)
);
},
{
closed = 1;
nodes = (
(409,358,l),
(623,630,ls),
(650,664,o),
(680,677,o),
(758,678,c),
(758,705,l),
(487,705,l),
(487,678,l),
(547,677,o),
(581,675,o),
(581,654,cs),
(581,644,o),
(572,628,o),
(553,605,cs),
(370,381,l)
);
}
);
width = 776;
},
{
layerId = "1881FB1F-FF0F-4B67-AF41-4B555E01DE13";
shapes = (
{
closed = 1;
nodes = (
(24,681,o),
(47,684,o),
(73,649,cs),
(497,75,ls),
(538,20,o),
(494,21,o),
(384,19,c),
(384,0,l),
(767,0,l),
(767,19,l),
(698,22,o),
(665,18,o),
(622,76,cs),
(230,605,ls),
(181,672,o),
(200,681,o),
(330,683,c),
(330,702,l),
(-43,702,l),
(-43,683,l)
);
},
{
closed = 1;
nodes = (
(246,0,l),
(246,19,l),
(156,21,o),
(115,24,o),
(165,90,cs),
(358,344,l),
(326,368,l),
(97,65,ls),
(75,35,o),
(51,22,o),
(-39,19,c),
(-39,0,l)
);
},
{
closed = 1;
nodes = (
(380,360,l),
(590,635,ls),
(617,670,o),
(647,682,o),
(725,683,c),
(725,702,l),
(456,702,l),
(456,683,l),
(547,681,o),
(578,679,o),
(524,610,cs),
(347,383,l)
);
}
);
width = 729.125;
}
);
unicode = 88;
}
{
glyphname = Y;
kernLeft = Y;
kernRight = Y;
layers = (
{
anchors = (
{
name = bottom;
pos = (301,0);
},
{
name = top;
pos = (336,700);
},
{
name = topleft;
pos = (0,700);
}
);
layerId = m01;
shapes = (
{
closed = 1;
nodes = (
(0,686,ls),
(41,686,o),
(51,664,o),
(85,608,cs),
(277,296,l),
(277,58,ls),
(277,10,o),
(240,16,o),
(175,14,c),
(175,0,l),
(452,0,l),
(452,14,l),
(387,16,o),
(352,10,o),
(352,58,cs),
(352,296,l),
(535,624,ls),
(556,661,o),
(563,686,o),
(614,686,cs),
(652,686,l),
(652,700,l),
(407,700,l),
(407,686,l),
(477,686,ls),
(524,686,o),
(523,666,o),
(487,604,cs),
(333,336,l),
(148,633,ls),
(125,670,o),
(132,686,o),
(175,686,cs),
(248,686,l),
(248,700,l),
(-49,700,l),
(-49,686,l)
);
}
);
width = 613;
},
{
anchors = (
{
name = bottom;
pos = (307,0);
},
{
name = top;
pos = (307,700);
},
{
name = topleft;
pos = (-17,700);
}
);
associatedMasterId = m01;
layerId = "4EF47A43-EA9F-416F-884D-AC541148DC09";
name = Bold;
shapes = (
{
closed = 1;
nodes = (
(-5,700,l),
(271,243,l),
(331,243,l),
(583,700,l),
(524,700,l),
(347,371,l),
(335,409,l),
(159,700,l)
);
},
{
closed = 1;
nodes = (
(212,675,l),
(266,678,l),
(266,700,l),
(-50,700,l),
(-50,678,l),
(4,675,l),
(37,630,l),
(179,630,l)
);
},
{
closed = 1;
nodes = (
(592,675,l),
(646,678,l),
(646,700,l),
(417,700,l),
(417,678,l),
(481,675,l),
(481,579,l),
(549,630,l)
);
},
{
closed = 1;
nodes = (
(223,0,l),
(373,0,l),
(373,337,l),
(223,337,l)
);
},
{
closed = 1;
nodes = (
(180,25,l),
(123,22,l),
(123,0,l),
(473,0,l),
(473,22,l),
(416,25,l),
(373,70,l),
(223,70,l)
);
}
);
width = 596;
},
{
anchors = (
{
name = bottom;
pos = (333,0);
},
{
name = top;
pos = (381,705);
},
{
name = topleft;
pos = (20,705);
}
);
layerId = "2CB5E1B6-8A79-4562-81B9-46C99CEA2FC9";
shapes = (
{
closed = 1;
nodes = (
(0,678,ls),
(41,678,o),
(49,653,o),
(85,600,cs),
(283,311,l),
(283,71,ls),
(283,23,o),
(246,29,o),
(181,27,c),
(181,0,l),
(528,0,l),
(528,27,l),
(461,29,o),
(426,23,o),
(426,71,cs),
(426,329,l),
(597,616,ls),
(620,654,o),
(625,678,o),
(671,678,cs),
(722,678,l),
(722,705,l),
(457,705,l),
(457,678,l),
(527,678,ls),
(552,678,o),
(564,672,o),
(564,657,cs),
(564,645,o),
(555,625,o),
(537,596,cs),
(398,373,l),
(221,625,ls),
(211,639,o),
(207,650,o),
(207,658,cs),
(207,672,o),
(221,678,o),
(249,678,cs),
(314,678,l),
(314,705,l),
(-49,705,l),
(-49,678,l)
);
}
);
width = 666;
},
{
anchors = (
{
name = bottom;
pos = (313,0);
},
{
name = top;
pos = (335,702);
},
{
name = topleft;
pos = (8,702);
}
);
layerId = "1881FB1F-FF0F-4B67-AF41-4B555E01DE13";
shapes = (
{
closed = 1;
nodes = (
(0,683,ls),
(41,683,o),
(50,660,o),
(85,605,cs),
(279,302,l),
(279,63,ls),
(279,15,o),
(242,21,o),
(177,19,c),
(177,0,l),
(481,0,l),
(481,19,l),
(415,21,o),
(380,15,o),
(380,63,cs),
(380,308,l),
(558,621,ls),
(580,658,o),
(586,683,o),
(635,683,cs),
(678,683,l),
(678,702,l),
(426,702,l),
(426,683,l),
(496,683,ls),
(543,683,o),
(543,663,o),
(506,601,cs),
(357,350,l),
(175,630,ls),
(151,668,o),
(160,683,o),
(203,683,cs),
(273,683,l),
(273,702,l),
(-49,702,l),
(-49,683,l)
);
}
);
width = 632.875;
}
);
unicode = 89;
}
{
glyphname = Z;
kernLeft = Z;
kernRight = Z;
layers = (
{
anchors = (
{
name = bottom;
pos = (311,0);
},
{
name = center;
pos = (311,350);
},
{
name = top;
pos = (341,700);
}
);
layerId = m01;
shapes = (
{
closed = 1;
nodes = (
(498,670,l),
(194,670,ls),
(110,670,o),
(89,591,o),
(70,478,c),
(50,478,l),
(72,700,l),
(72,701,l),
(587,700,l),
(598,685,l),
(141,31,l),
(465,31,ls),
(547,31,o),
(569,109,o),
(589,222,c),
(610,222,l),
(580,0,l),
(53,0,l),
(42,19,l)
);
}
);
width = 632;
},
{
anchors = (
{
name = bottom;
pos = (327,0);
},
{
name = center;
pos = (327,350);
},
{
name = top;
pos = (327,700);
}
);
associatedMasterId = m01;
layerId = "4EF47A43-EA9F-416F-884D-AC541148DC09";
name = Bold;
shapes = (
{
closed = 1;
nodes = (
(58,431,l),
(85,431,l),
(148,602,l),
(275,700,l),
(77,700,l)
);
},
{
closed = 1;
nodes = (
(625,700,l),
(434,700,l),
(439,633,l),
(23,51,l),
(23,0,l),
(223,0,l),
(218,64,l),
(625,640,l)
);
},
{
closed = 1;
nodes = (
(439,700,l),
(97,700,l),
(99,635,l),
(439,645,l)
);
},
{
closed = 1;
nodes = (
(615,269,l),
(588,269,l),
(526,98,l),
(409,0,l),
(594,0,l)
);
},
{
closed = 1;
nodes = (
(223,0,l),
(574,0,l),
(575,65,l),
(223,55,l)
);
},
{
closed = 1;
nodes = (
(347,700,l),
(451,573,l),
(539,700,l)
);
},
{
closed = 1;
nodes = (
(222,127,l),
(118,0,l),
(310,0,l)
);
}
);
width = 653;
},
{
anchors = (
{
name = bottom;
pos = (354,0);
},
{
name = center;
pos = (354,353);
},
{
name = top;
pos = (354,705);
}
);
layerId = "2CB5E1B6-8A79-4562-81B9-46C99CEA2FC9";
shapes = (
{
closed = 1;
nodes = (
(483,665,l),
(229,665,ls),
(135,665,o),
(104,586,o),
(85,463,c),
(53,463,l),
(75,705,l),
(75,706,l),
(662,705,l),
(673,690,l),
(223,42,l),
(488,42,ls),
(580,42,o),
(622,120,o),
(642,243,c),
(675,243,l),
(645,0,l),
(45,0,l),
(34,19,l)
);
}
);
width = 707;
},
{
anchors = (
{
name = bottom;
pos = (327,0);
},
{
name = center;
pos = (327,351);
},
{
name = top;
pos = (346,702);
}
);
layerId = "1881FB1F-FF0F-4B67-AF41-4B555E01DE13";
shapes = (
{
closed = 1;
nodes = (
(492,668,l),
(207,668,ls),
(119,668,o),
(95,589,o),
(76,472,c),
(51,472,l),
(73,702,l),
(73,703,l),
(615,702,l),
(626,687,l),
(172,35,l),
(474,35,ls),
(559,35,o),
(589,113,o),
(609,230,c),
(634,230,l),
(604,0,l),
(50,0,l),
(39,19,l)
);
}
);
width = 660.125;
}
);
unicode = 90;
}
{
glyphname = bracketleft;
layers = (
{
layerId = m01;
shapes = (
{
closed = 1;
nodes = (
(70,736,l),
(70,-216,l),
(71,-216,l),
(71,-220,l),
(279,-220,l),
(279,-204,l),
(145,-204,l),
(145,720,l),
(278,720,l),
(278,736,l)
);
}
);
width = 304;
},
{
associatedMasterId = m01;
layerId = "4EF47A43-EA9F-416F-884D-AC541148DC09";
name = Bold;
shapes = (
{
closed = 1;
nodes = (
(40,736,l),
(40,-216,l),
(151,-216,l),
(151,736,l)
);
},
{
closed = 1;
nodes = (
(55,696,l),
(263,696,l),
(263,736,l),
(55,736,l)
);
},
{
closed = 1;
nodes = (
(55,-216,l),
(263,-216,l),
(263,-177,l),
(55,-177,l)
);
}
);
width = 288;
},
{
layerId = "2CB5E1B6-8A79-4562-81B9-46C99CEA2FC9";
shapes = (
{
closed = 1;
nodes = (
(75,736,l),
(75,-216,l),
(76,-216,l),
(76,-220,l),
(334,-220,l),
(334,-193,l),
(200,-193,l),
(200,709,l),
(333,709,l),
(333,736,l)
);
}
);
width = 344;
},
{
layerId = "1881FB1F-FF0F-4B67-AF41-4B555E01DE13";
shapes = (
{
closed = 1;
nodes = (
(72,736,l),
(72,-216,l),
(73,-216,l),
(73,-220,l),
(300,-220,l),
(300,-200,l),
(166,-200,l),
(166,716,l),
(299,716,l),
(299,736,l)
);
}
);
width = 319;
}
);
unicode = 91;
}
{
glyphname = backslash;
layers = (
{
layerId = m01;
shapes = (
{
pos = (395,0);
ref = slash;
scale = (-1,1);
}
);
width = 395;
},
{
associatedMasterId = m01;
layerId = "4EF47A43-EA9F-416F-884D-AC541148DC09";
name = Bold;
shapes = (
{
closed = 1;
nodes = (
(64,810,l),
(0,809,l),
(350,-96,l),
(415,-96,l)
);
}
);
width = 415;
},
{
layerId = "2CB5E1B6-8A79-4562-81B9-46C99CEA2FC9";
shapes = (
{
pos = (427,0);
ref = slash;
scale = (-1,1);
}
);
width = 427;
},
{
layerId = "1881FB1F-FF0F-4B67-AF41-4B555E01DE13";
shapes = (
{
alignment = -1;
pos = (407,0);
ref = slash;
scale = (-1,1);
}
);
width = 407;
}
);
metricLeft = "=|slash";
metricRight = "=|slash";
unicode = 92;
}
{
glyphname = bracketright;
layers = (
{
layerId = m01;
shapes = (
{
pos = (304,0);
ref = bracketleft;
scale = (-1,1);
}
);
width = 304;
},
{
associatedMasterId = m01;
layerId = "4EF47A43-EA9F-416F-884D-AC541148DC09";
name = Bold;
shapes = (
{
closed = 1;
nodes = (
(137,-216,l),
(248,-216,l),
(248,736,l),
(137,736,l)
);
},
{
closed = 1;
nodes = (
(25,736,l),
(25,696,l),
(233,696,l),
(233,736,l)
);
},
{
closed = 1;
nodes = (
(25,-177,l),
(25,-216,l),
(233,-216,l),
(233,-177,l)
);
}
);
width = 288;
},
{
layerId = "2CB5E1B6-8A79-4562-81B9-46C99CEA2FC9";
shapes = (
{
pos = (344,0);
ref = bracketleft;
scale = (-1,1);
}
);
width = 344;
},
{
layerId = "1881FB1F-FF0F-4B67-AF41-4B555E01DE13";
shapes = (
{
alignment = -1;
pos = (319,0);
ref = bracketleft;
scale = (-1,1);
}
);
width = 319;
}
);
metricLeft = "=|bracketleft";
metricRight = "=|bracketleft";
unicode = 93;
}
{
glyphname = asciicircum;
layers = (
{
layerId = m01;
shapes = (
{
closed = 1;
nodes = (
(203,700,l),
(55,439,l),
(98,439,l),
(209,639,l),
(321,439,l),
(364,439,l),
(216,700,l)
);
}
);
width = 419;
},
{
associatedMasterId = m01;
layerId = "4EF47A43-EA9F-416F-884D-AC541148DC09";
name = Bold;
shapes = (
{
closed = 1;
nodes = (
(205,700,l),
(55,434,l),
(127,434,l),
(209,582,l),
(293,434,l),
(364,434,l),
(214,700,l)
);
}
);
width = 419;
},
{
layerId = "2CB5E1B6-8A79-4562-81B9-46C99CEA2FC9";
shapes = (
{
closed = 1;
nodes = (
(193,705,l),
(48,444,l),
(107,444,l),
(206,626,l),
(306,444,l),
(365,444,l),
(219,705,l)
);
}
);
width = 413;
},
{
layerId = "1881FB1F-FF0F-4B67-AF41-4B555E01DE13";
shapes = (
{
closed = 1;
nodes = (
(199,702,l),
(52,441,l),
(101,441,l),
(208,634,l),
(315,441,l),
(364,441,l),
(217,702,l)
);
}
);
width = 416.75;
}
);
unicode = 94;
}
{
glyphname = underscore;
layers = (
{
layerId = m01;
shapes = (
{
closed = 1;
nodes = (
(10,-112,l),
(454,-112,l),
(454,-82,l),
(10,-82,l)
);
}
);
width = 464;
},
{
annotations = (
{
pos = (187.832,-194.01);
text = "underscore alto quanto emdash o quanto hyphen?";
type = Text;
}
);
associatedMasterId = m01;
layerId = "4EF47A43-EA9F-416F-884D-AC541148DC09";
name = Bold;
shapes = (
{
closed = 1;
nodes = (
(30,-112,l),
(474,-112,l),
(474,-72,l),
(30,-72,l)
);
}
);
width = 504;
},
{
layerId = "2CB5E1B6-8A79-4562-81B9-46C99CEA2FC9";
shapes = (
{
closed = 1;
nodes = (
(20,-122,l),
(480,-122,l),
(480,-72,l),
(20,-72,l)
);
}
);
width = 500;
},
{
layerId = "1881FB1F-FF0F-4B67-AF41-4B555E01DE13";
shapes = (
{
closed = 1;
nodes = (
(14,-116,l),
(464,-116,l),
(464,-78,l),
(14,-78,l)
);
}
);
width = 477.5;
}
);
unicode = 95;
}
